<svg xmlns="http://www.w3.org/2000/svg" viewBox="0 0 100 100">
  <g transform="translate(0,100) scale(0.012500,-0.012500)">
  <path d="M6099 7381 c-74 -20 -161 -79 -206 -138 -15 -21 -31 -39 -35 -41 -12 -6 -9 -22 4 -22 6 0 19 7 27 14 10 9 22 12 30 7 9 -6 6 -10 -13 -15 -19 -5 -26 -13 -26 -31 0 -29 27 -40 66 -25 51 20 182 6 221 -23 15 -11 51 0 55 16 2 7 20 -5 41 -27 31 -32 33 -37 15 -31 -59 18 -68 18 -68 -1 0 -15 -4 -14 -28 9 -88 85 -248 75 -347 -23 -27 -26 -61 -50 -75 -52 -25 -3 -45 -58 -21 -58 57 0 -33 -94 -123 -129 -22 -9 -89 -42 -147 -74 -58 -31 -113 -57 -122 -57 -9 0 -23 -11 -32 -23 -19 -30 -62 -51 -96 -48 -49 4 -90 -149 -58 -212 10 -19 7 -18 -18 6 -52 48 -106 35 -123 -31 -7 -26 -18 -61 -26 -79 -19 -43 -18 -96 6 -178 11 -38 20 -91 20 -116 0 -121 41 -191 125 -216 l40 -11 -38 -1 c-49 -1 -97 44 -116 109 -7 25 -19 60 -27 78 -8 18 -14 57 -14 87 0 66 -24 121 -57 130 -13 3 -29 17 -35 30 -12 27 -17 29 -33 17 -18 -12 -47 -88 -43 -113 2 -19 -4 -27 -33 -41 -32 -15 -37 -23 -43 -62 -5 -33 -15 -51 -34 -66 -15 -12 -40 -46 -57 -78 -21 -39 -37 -58 -54 -62 -28 -6 -26 -3 -91 -141 -55 -115 -59 -118 -155 -141 -85 -19 -135 -70 -135 -137 0 -95 74 -126 146 -60 11 10 27 19 35 19 8 0 36 23 62 50 26 28 51 50 56 50 5 0 24 44 42 98 49 150 50 152 110 152 l50 0 39 63 c22 34 47 86 56 115 17 59 37 58 52 -1 19 -73 -9 -115 -132 -197 -146 -97 -179 -141 -196 -257 -12 -86 -13 -183 -1 -183 14 0 0 -41 -15 -47 -18 -7 -18 -23 0 -23 8 0 16 -5 18 -12 9 -26 73 5 73 36 1 16 9 34 18 41 24 18 22 55 -3 55 -21 0 -24 8 -14 34 3 9 10 14 15 11 4 -3 6 -12 2 -20 -3 -10 1 -15 11 -15 9 0 19 6 22 14 4 11 18 13 60 9 53 -6 54 -5 54 20 0 30 -106 51 -135 27 -12 -10 -15 -9 -15 5 0 12 -6 16 -20 12 -50 -13 -9 104 50 142 16 10 11 2 -12 -20 -36 -34 -48 -59 -30 -59 5 0 17 9 28 21 45 50 159 94 187 71 6 -5 30 -15 52 -22 22 -7 48 -20 58 -28 16 -14 20 -14 29 -2 8 12 9 11 4 -3 -3 -10 -6 -21 -6 -23 0 -2 -6 -4 -14 -4 -16 0 -31 -34 -21 -50 10 -16 25 -12 26 8 0 11 3 8 8 -8 4 -14 4 -52 1 -85 -4 -33 -8 -48 -9 -34 0 14 -8 34 -16 45 -8 10 -15 27 -15 37 0 34 -17 16 -23 -26 -9 -61 -34 -116 -60 -127 -33 -14 -53 -33 -61 -55 -5 -17 -16 -20 -63 -22 -73 -2 -124 -53 -54 -53 25 0 30 -4 33 -27 2 -22 9 -29 31 -31 21 -3 31 -11 39 -33 5 -16 14 -29 19 -29 5 0 9 -6 9 -13 0 -20 43 -57 66 -57 28 0 44 19 44 52 0 15 4 28 9 28 16 0 22 -18 9 -23 -9 -3 -2 -16 18 -38 24 -26 30 -39 24 -54 -27 -64 48 -121 90 -70 10 12 16 13 26 4 8 -6 25 -9 39 -7 27 6 50 -28 57 -82 5 -44 53 -35 53 10 0 28 -4 35 -25 41 -14 4 -19 7 -12 8 6 1 12 8 12 16 0 9 9 15 23 15 89 1 161 30 215 86 49 52 56 56 90 51 33 -4 43 1 84 39 49 46 66 51 99 34 15 -9 27 -5 56 15 21 14 43 25 50 25 7 0 13 5 13 10 0 16 -32 12 -66 -9 -23 -14 -43 -18 -72 -14 -36 5 -44 2 -85 -36 -37 -35 -51 -41 -87 -41 -39 0 -48 -5 -99 -58 -54 -56 -58 -59 -132 -71 l-76 -13 -54 34 c-30 19 -62 37 -71 41 -10 3 -51 28 -90 54 -40 26 -90 57 -111 67 -47 24 -53 13 79 148 l110 114 35 -38 c37 -43 134 -87 204 -95 85 -9 85 -9 69 -43 -23 -45 -15 -104 14 -108 29 -4 55 18 99 86 36 56 60 65 120 41 15 -7 62 -15 103 -19 41 -4 109 -17 150 -28 55 -16 90 -20 132 -15 55 6 118 -9 118 -27 0 -18 80 -90 98 -90 58 0 85 115 35 147 -15 10 -35 26 -45 35 -44 44 -248 85 -248 49 0 -7 23 -11 63 -11 81 -1 123 -17 186 -71 56 -48 62 -71 30 -105 l-20 -22 -23 22 c-18 18 -20 24 -10 41 13 21 8 75 -7 75 -5 0 -9 -11 -9 -24 0 -51 -11 -60 -35 -29 -22 27 -27 28 -117 29 -80 1 -188 20 -217 38 -21 14 -21 80 2 113 24 35 63 58 72 43 8 -13 45 -13 45 0 0 6 -7 10 -15 10 -34 0 -11 19 48 38 63 21 80 21 59 0 -49 -49 78 -36 134 14 13 11 36 18 62 18 32 0 49 7 75 30 22 19 40 27 54 24 16 -5 6 -13 -50 -43 -68 -36 -95 -61 -64 -61 8 0 32 12 53 26 21 15 32 19 24 10 -43 -53 -365 -155 -394 -126 -12 12 -56 13 -56 3 0 -17 82 -43 100 -33 10 6 29 10 41 10 55 0 294 94 336 132 18 17 25 18 43 8 22 -12 39 -2 40 23 0 17 28 5 38 -18 15 -32 42 -33 42 -1 0 33 -34 73 -83 96 -56 27 -67 26 -128 -20 -53 -40 -89 -38 -89 5 0 62 -89 71 -156 15 -49 -40 -68 -48 -78 -31 -12 20 -68 21 -109 2 -54 -25 -119 -10 -218 49 -37 22 -119 57 -184 79 -141 48 -137 44 -93 83 20 18 62 62 94 98 32 36 99 99 149 141 49 42 123 106 164 143 78 70 185 137 358 224 56 29 142 76 190 105 98 59 196 107 388 192 305 136 425 234 451 370 20 106 -114 212 -291 229 -68 7 -303 58 -357 78 -18 7 -31 22 -39 45 -43 131 -205 199 -370 154z m161 -11 c10 -6 3 -8 -22 -3 -38 6 -56 -11 -20 -20 13 -3 11 -6 -10 -15 -57 -24 -27 -86 31 -65 28 10 33 49 8 65 -9 6 -8 8 3 8 17 0 55 -24 90 -57 l24 -23 -32 0 c-29 0 -32 -3 -32 -31 0 -41 60 -41 70 1 6 24 7 23 22 -15 l16 -40 -60 -3 c-45 -2 -67 2 -91 16 -45 28 -136 52 -194 52 l-48 0 1 41 c2 56 54 93 54 38 0 -51 92 -19 98 34 4 29 58 39 92 17z m-110 -8 c0 -23 -49 -55 -56 -37 -5 12 -1 23 11 31 21 16 45 18 45 6z m196 -28 c63 -42 133 -144 99 -144 -9 0 -24 19 -35 43 -21 45 -62 89 -107 112 -16 9 -21 15 -12 15 9 0 34 -12 55 -26z m-367 -84 c-15 -20 -31 -30 -48 -30 -25 0 -24 2 18 42 48 46 67 38 30 -12z m87 -45 c14 -13 12 -15 -11 -15 -15 0 -33 7 -41 15 -14 13 -12 15 11 15 15 0 33 -7 41 -15z m-72 -11 c9 -3 16 -12 16 -20 0 -21 -33 -17 -48 6 -13 22 -1 27 32 14z m486 -42 c-11 -2 -20 -8 -20 -13 0 -14 58 -11 62 3 3 9 33 5 114 -15 60 -15 147 -32 194 -38 188 -25 331 -124 304 -212 -40 -133 -155 -221 -471 -363 -180 -81 -274 -128 -376 -188 -42 -25 -123 -69 -180 -97 -169 -86 -278 -154 -357 -225 -41 -36 -116 -101 -165 -143 -50 -42 -124 -113 -164 -159 -40 -45 -84 -90 -97 -98 -23 -16 -34 -54 -15 -54 26 0 -37 -119 -96 -180 -71 -73 -70 -70 -44 -70 33 0 124 109 144 173 17 54 20 57 45 51 67 -15 162 -50 217 -81 154 -86 222 -104 287 -75 45 20 62 19 90 -5 22 -20 51 -10 112 38 53 42 58 44 86 29 28 -15 44 -70 21 -70 -10 0 -25 -7 -32 -17 -12 -13 -68 -43 -83 -43 -2 0 -2 9 1 20 8 30 -22 36 -86 16 -146 -45 -197 -90 -195 -172 l2 -54 -43 0 c-23 0 -62 7 -85 15 -79 28 -132 19 -156 -26 -21 -41 -74 -100 -85 -93 -16 9 -10 50 11 77 33 42 9 67 -66 67 -70 0 -179 53 -227 109 -38 46 -44 43 -189 -104 -73 -74 -140 -135 -148 -134 -10 0 -11 2 -2 6 27 11 10 24 -25 18 -27 -5 -34 -3 -24 3 17 12 -3 37 -40 51 -21 7 -20 9 15 15 39 8 66 -5 66 -30 0 -8 5 -14 10 -14 6 0 10 16 10 35 0 35 40 85 68 85 14 0 51 74 52 103 0 11 5 15 11 11 7 -4 9 -22 5 -49 -9 -58 15 -69 55 -23 26 28 29 40 30 102 1 39 3 63 6 53 3 -13 10 -16 21 -11 10 3 24 6 33 6 17 -1 39 37 39 67 0 22 84 150 112 169 12 9 18 22 16 36 -4 18 1 21 34 21 42 1 72 23 63 47 -5 12 -18 15 -53 12 -26 -1 -36 -1 -22 2 59 12 99 29 158 66 34 22 62 42 62 45 0 12 -32 34 -44 30 -9 -4 -12 2 -8 20 4 21 2 24 -14 20 -70 -20 -86 -20 -79 2 5 17 2 21 -17 19 -37 -3 -95 21 -144 58 -24 19 -50 34 -57 34 -21 0 -27 11 -16 31 9 17 13 15 44 -20 24 -26 52 -44 90 -56 53 -16 70 -16 157 1 32 6 45 34 23 50 -12 9 -7 12 30 16 24 3 57 14 71 24 65 46 110 72 127 73 9 1 17 6 17 11 0 20 -48 9 -100 -24 -98 -62 -109 -67 -135 -60 -36 9 -31 33 10 50 39 16 41 19 20 40 -13 13 -20 13 -50 2 -52 -18 -92 12 -49 37 10 6 38 22 63 38 29 17 59 27 84 27 46 0 85 22 142 80 73 75 151 105 280 106 109 2 164 11 400 70 200 50 435 129 435 146 0 13 -13 9 -180 -47 -339 -115 -676 -177 -703 -130 -21 39 -161 -11 -259 -92 -94 -78 -107 -87 -115 -79 -7 7 110 126 125 126 5 0 29 17 53 39 52 45 110 76 161 85 59 11 74 93 20 110 -10 4 -32 20 -48 37 l-29 32 40 -27 c66 -44 101 -56 167 -58 49 -1 54 -2 21 -5 -47 -5 -48 -5 -33 -34 20 -37 144 0 249 73 26 19 121 139 121 154 0 16 53 34 99 34 20 0 43 5 51 10 10 6 22 4 38 -6 19 -12 30 -13 55 -5 21 8 34 8 41 1 38 -38 123 31 103 83 -6 17 -167 31 -291 26 -41 -2 -78 0 -82 4 -4 4 -17 7 -28 7 -12 0 -26 8 -32 18 -13 20 105 23 289 8 l97 -8 0 26 c0 24 -4 26 -40 26 -22 0 -40 -4 -40 -10 0 -5 -7 -10 -16 -10 -8 0 -12 5 -9 11 4 6 -1 17 -11 25 -18 15 -18 15 6 9 59 -14 90 -17 90 -8 0 16 -110 39 -119 24 -4 -6 -15 -9 -24 -5 -9 3 -25 3 -34 -1 -25 -10 -137 -6 -141 6 -2 5 -15 9 -28 9 -13 0 -24 5 -24 10 0 6 27 10 60 10 33 0 60 4 60 9 0 14 33 18 53 7 17 -10 16 -11 -3 -14z m-195 -22 c7 -22 54 -40 102 -40 48 0 38 -24 -12 -28 -36 -3 -125 61 -125 90 0 14 29 -4 35 -22z m-175 -42 c50 -26 115 -104 124 -150 4 -22 10 -29 22 -24 9 3 27 6 40 6 16 0 30 10 42 29 l17 28 176 -2 c199 -2 205 -3 181 -45 -17 -30 -36 -38 -47 -20 -3 5 -29 10 -58 10 -29 0 -63 0 -77 0 -34 1 -135 -15 -188 -29 -24 -7 -51 -10 -61 -6 -13 4 -21 -5 -35 -36 -55 -125 -235 -199 -335 -138 -26 16 -31 23 -21 29 12 7 11 12 -3 28 -16 17 -12 17 30 -5 35 -18 56 -22 78 -17 17 3 44 7 60 8 23 1 31 6 33 24 4 23 -13 31 -21 10 -3 -7 -6 -3 -6 9 -1 13 8 27 19 33 20 11 28 50 10 50 -5 0 -10 4 -10 9 0 6 12 6 31 -1 32 -11 49 -4 32 13 -18 18 -83 24 -83 7 0 -34 -29 -43 -55 -18 -27 25 -78 20 -160 -15 -45 -20 -85 -29 -62 -15 12 8 17 24 17 59 0 33 6 55 18 68 9 10 13 13 8 5 -6 -8 -11 -34 -11 -58 -2 -55 9 -56 103 -15 93 41 112 44 154 27 47 -20 107 9 70 33 -5 3 -12 18 -16 34 -3 15 -11 27 -16 27 -13 0 -13 -22 0 -54 11 -30 4 -32 -46 -14 -30 11 -33 16 -39 69 -6 53 -9 58 -33 62 -15 2 -4 5 23 6 35 1 65 -6 95 -21z m441 -8 l24 -19 -27 -1 c-42 0 -59 9 -45 26 16 18 21 17 48 -6z m-551 -19 c0 -11 2 -26 5 -33 6 -15 -51 -38 -94 -38 -12 0 -25 -8 -28 -17 -4 -10 -11 -21 -17 -25 -8 -6 -7 -11 2 -17 11 -6 9 -9 -6 -13 -36 -10 -33 34 6 81 53 64 132 101 132 62z m5 -80 c-18 -16 -107 -41 -103 -29 2 6 24 17 49 23 58 16 65 17 54 6z m-6 -125 c11 -13 10 -17 -3 -22 -20 -8 -21 -24 -2 -24 12 0 26 -20 26 -36 0 -32 -118 19 -147 63 -28 43 92 61 126 19z m-270 -59 c10 -26 -60 -102 -105 -113 -52 -13 -132 -68 -168 -115 -20 -27 -54 -56 -79 -68 -58 -28 -76 -49 -91 -107 -16 -62 -29 -65 -77 -15 -32 34 -39 49 -39 81 0 56 37 129 62 122 24 -6 84 26 103 54 8 12 26 25 42 29 15 3 75 32 133 64 58 32 122 63 142 70 21 7 40 17 44 22 8 13 24 1 33 -24z m31 -99 c0 -5 -8 -11 -17 -15 -10 -3 -27 -16 -38 -28 -12 -13 -43 -27 -74 -34 -48 -10 -62 -20 -133 -91 -50 -50 -91 -83 -111 -88 -27 -7 -33 -14 -38 -46 -4 -26 -20 -51 -53 -85 -39 -40 -46 -52 -46 -87 0 -33 -6 -46 -30 -67 -81 -73 4 -160 132 -137 44 9 80 -5 37 -14 -13 -3 -37 -7 -52 -11 -110 -23 -242 118 -149 160 40 18 55 105 28 158 -14 26 -14 27 5 16 43 -22 71 -8 84 44 14 57 36 83 93 109 25 12 58 40 78 67 36 47 112 99 177 120 20 7 47 25 59 41 22 27 48 21 48 -12z m120 -69 c0 -20 -28 -39 -56 -39 -26 0 -117 -46 -139 -70 -10 -11 -35 -30 -54 -43 -111 -67 -179 -175 -113 -178 15 -1 4 -5 -25 -9 -60 -9 -173 -74 -173 -100 0 -25 22 -48 50 -52 22 -3 25 -7 22 -38 -4 -45 -25 -60 -83 -60 -88 0 -124 53 -69 102 23 20 30 34 30 64 0 32 8 46 45 84 30 30 47 58 53 85 6 33 13 41 41 49 20 6 64 41 115 92 75 74 89 83 131 90 28 4 57 16 69 28 11 11 34 30 51 41 l30 21 37 -25 c21 -13 38 -33 38 -42z m274 64 c13 -13 -56 -42 -70 -29 -9 8 -5 14 15 23 31 14 45 15 55 6z m-1018 -325 c56 -58 74 -88 74 -118 -1 -25 -29 -86 -30 -62 0 7 -10 26 -22 43 -12 16 -29 58 -38 92 -14 57 -17 62 -44 65 -22 3 -26 6 -15 13 24 15 33 11 75 -33z m-30 -75 c3 -24 17 -59 30 -78 13 -19 19 -37 14 -40 -5 -3 -15 3 -22 15 -7 11 -18 20 -24 20 -26 0 -58 133 -37 154 12 12 32 -24 39 -71z m-50 -53 c20 -62 -4 -198 -25 -145 -27 65 -36 134 -22 168 7 17 16 46 20 62 l6 30 3 -35 c1 -19 9 -55 18 -80z m-133 -90 c22 0 47 -67 47 -126 0 -31 6 -68 14 -82 23 -47 44 -122 33 -122 -10 0 -5 -49 8 -82 6 -15 2 -18 -20 -18 -23 0 -26 2 -15 15 17 21 -5 161 -36 226 -13 27 -24 54 -24 60 0 6 -12 9 -27 7 -30 -3 -37 -37 -20 -103 8 -30 8 -30 -8 -7 -28 38 -61 29 -73 -20 -6 -24 -31 -74 -54 -113 l-43 -70 -55 -5 -55 -5 -40 -116 c-39 -114 -57 -149 -78 -149 -5 0 -25 -18 -44 -40 -19 -22 -40 -40 -47 -40 -8 0 -24 -9 -38 -19 -41 -33 -73 -36 -92 -10 -46 66 14 142 134 173 87 23 88 24 150 156 47 102 55 112 93 124 10 3 29 29 41 58 13 29 37 63 53 75 22 16 32 33 37 64 8 50 21 69 47 69 22 0 43 35 34 58 -12 33 25 82 46 61 11 -11 25 -19 32 -19z m211 -34 c-3 -8 -11 -13 -18 -10 -14 5 -36 -36 -36 -66 0 -11 10 -22 22 -26 13 -4 39 -19 58 -34 30 -24 76 -46 155 -75 30 -11 -55 -36 -127 -38 -61 -2 -75 -12 -32 -23 23 -6 57 -1 194 31 14 3 3 -4 -25 -15 -69 -30 -130 -40 -172 -28 -26 7 -38 6 -43 -2 -4 -7 -13 -9 -20 -5 -9 6 -9 9 1 16 11 6 10 17 -5 59 -24 66 -23 175 1 264 5 17 7 16 29 -7 13 -14 21 -33 18 -41z m-188 -201 c19 -45 35 -146 25 -159 -27 -35 -23 -56 12 -56 18 0 37 -3 41 -7 3 -4 32 -8 64 -10 103 -6 156 -29 118 -50 -28 -16 -106 -145 -106 -175 0 -17 -4 -27 -10 -23 -5 3 -10 15 -10 26 0 29 -35 92 -60 107 l-22 14 21 14 c11 8 21 19 21 24 0 16 -55 68 -75 72 -25 4 -46 95 -25 108 9 6 9 14 -2 36 -23 45 -50 153 -42 166 7 11 14 -1 50 -87z m474 -85 c-37 -30 -125 -70 -152 -70 -37 0 -60 20 -23 20 17 0 66 16 110 34 95 41 97 41 65 16z m-496 -145 c3 -8 13 -15 23 -15 10 0 29 -12 43 -27 l25 -27 -36 22 c-70 43 -251 14 -265 -43 -3 -13 -19 -29 -36 -36 -17 -7 -44 -24 -61 -38 -26 -22 -28 -22 -19 -5 15 27 75 79 158 134 87 58 134 105 134 135 0 63 15 54 21 -13 4 -40 10 -79 13 -87z m149 71 c-3 -4 1 -12 8 -17 8 -5 9 -9 3 -9 -17 0 -42 24 -49 49 l-7 24 25 -19 c14 -11 23 -23 20 -28z m-127 -131 c17 -13 16 -14 -14 -4 -18 6 -57 9 -85 6 -34 -4 -45 -3 -32 3 32 14 109 11 131 -5z m-18 -59 c15 -8 43 -31 62 -52 l35 -38 -47 41 c-27 25 -60 44 -80 47 -18 3 -44 7 -58 9 -14 3 -6 5 18 6 24 0 55 -5 70 -13z m1522 -194 c3 -2 -5 -1 -17 2 -15 5 -24 2 -31 -10 -5 -9 -24 -18 -42 -19 -22 -2 -28 0 -19 6 8 5 21 9 30 9 9 0 19 9 22 21 5 19 32 15 57 -9z m-1560 -416 c0 -35 -20 -49 -42 -29 -22 20 -22 27 -3 47 20 20 45 10 45 -18z m172 -112 c-6 -34 -39 -61 -59 -48 -27 17 -26 30 4 61 32 34 63 27 55 -13z" fill="none" stroke="rgba(255,255,255,0.9)" stroke-width="48.00" stroke-linecap="round" stroke-linejoin="round"/>
  <path d="M6746 7054 c-24 -23 -20 -32 22 -43 80 -23 171 -10 159 22 -13 34 -152 50 -181 21z m148 -24 c7 -7 -4 -10 -34 -10 -57 0 -92 9 -84 22 8 13 103 3 118 -12z" fill="none" stroke="rgba(255,255,255,0.9)" stroke-width="48.00" stroke-linecap="round" stroke-linejoin="round"/>
  <path d="M7020 7011 c0 -5 -14 -11 -31 -15 -21 -4 -29 -10 -26 -20 5 -11 -1 -12 -29 -4 -61 16 -98 7 -102 -24 -2 -16 1 -28 6 -28 6 0 8 -8 5 -19 -11 -43 33 -58 107 -35 25 7 25 7 7 -14 -50 -56 -155 -11 -142 61 3 20 1 27 -8 25 -49 -17 3 -121 66 -133 82 -16 162 71 122 132 l-18 28 26 -18 c26 -17 57 -14 57 6 0 5 9 2 20 -8 11 -10 23 -16 26 -12 10 9 -13 42 -40 57 -14 7 -26 17 -26 22 0 4 -4 8 -10 8 -5 0 -10 -4 -10 -9z m-40 -108 c0 -7 -7 -13 -15 -13 -8 0 -15 7 -15 15 0 8 -7 15 -15 15 -13 0 -14 2 -3 14 15 16 48 -5 48 -31z m-66 1 c19 -7 3 -34 -19 -34 -20 0 -39 27 -23 33 19 8 24 8 42 1z" fill="none" stroke="rgba(255,255,255,0.9)" stroke-width="48.00" stroke-linecap="round" stroke-linejoin="round"/>
  <path d="M7080 6857 c-14 -13 -59 -38 -100 -56 -41 -18 -89 -39 -105 -46 -17 -8 -43 -18 -58 -24 -36 -14 -36 -33 1 -25 15 4 32 10 37 14 6 4 35 17 65 28 129 48 200 90 200 119 0 19 -12 16 -40 -10z" fill="none" stroke="rgba(255,255,255,0.9)" stroke-width="48.00" stroke-linecap="round" stroke-linejoin="round"/>
  <path d="M6690 6825 c0 -22 4 -25 33 -25 41 0 59 12 51 33 -11 30 -84 23 -84 -8z" fill="none" stroke="rgba(255,255,255,0.9)" stroke-width="48.00" stroke-linecap="round" stroke-linejoin="round"/>
  <path d="M6447 6813 c-12 -12 -7 -41 8 -47 29 -11 64 21 49 45 -6 10 -47 12 -57 2z" fill="none" stroke="rgba(255,255,255,0.9)" stroke-width="48.00" stroke-linecap="round" stroke-linejoin="round"/>
  <path d="M6602 6813 c-46 -9 -24 -48 26 -47 50 1 56 5 47 33 -6 21 -22 24 -73 14z" fill="none" stroke="rgba(255,255,255,0.9)" stroke-width="48.00" stroke-linecap="round" stroke-linejoin="round"/>
  <path d="M6348 6793 c-36 -41 -32 -60 12 -61 62 -3 81 55 24 72 -13 4 -26 0 -36 -11z" fill="none" stroke="rgba(255,255,255,0.9)" stroke-width="48.00" stroke-linecap="round" stroke-linejoin="round"/>
  <path d="M6998 6750 c-19 -16 -64 -41 -99 -56 -110 -46 -132 -55 -208 -92 -75 -36 -198 -72 -396 -117 -60 -14 -118 -30 -129 -36 -10 -6 -46 -15 -80 -20 -56 -9 -86 -22 -75 -33 6 -6 108 14 158 31 24 9 87 26 140 38 203 47 332 86 417 126 116 53 119 55 184 79 56 22 150 85 150 101 0 17 -26 9 -62 -21z" fill="none" stroke="rgba(255,255,255,0.9)" stroke-width="48.00" stroke-linecap="round" stroke-linejoin="round"/>
  <path d="M6365 6459 c-44 -17 -134 -46 -200 -65 -117 -34 -205 -72 -234 -100 -29 -27 -1 -26 46 2 56 33 84 44 218 83 55 16 109 33 120 36 11 4 -18 -12 -65 -36 -278 -139 -378 -187 -400 -193 l-25 -7 23 17 c12 9 22 20 22 25 0 15 -25 10 -46 -8 -18 -17 -247 -133 -286 -147 -10 -3 -18 -10 -18 -16 0 -15 42 -12 65 4 64 43 211 109 250 111 30 1 87 23 196 77 248 122 368 178 379 178 10 0 69 27 79 36 5 5 -26 34 -36 33 -4 0 -44 -14 -88 -30z" fill="none" stroke="rgba(255,255,255,0.9)" stroke-width="48.00" stroke-linecap="round" stroke-linejoin="round"/>
  <path d="M5430 6355 c0 -18 5 -25 20 -25 15 0 20 7 20 25 0 18 -5 25 -20 25 -15 0 -20 -7 -20 -25z" fill="none" stroke="rgba(255,255,255,0.9)" stroke-width="48.00" stroke-linecap="round" stroke-linejoin="round"/>
  <path d="M5790 7180 c-14 -5 -54 -13 -90 -18 -123 -18 -496 -178 -582 -250 -32 -26 -100 -82 -152 -125 -126 -103 -221 -227 -174 -227 6 0 -8 -13 -32 -29 -40 -27 -90 -104 -90 -139 0 -7 -9 -25 -20 -40 -11 -15 -25 -52 -31 -82 -5 -30 -13 -67 -16 -83 -3 -15 0 -34 7 -42 22 -26 -16 -107 -44 -92 -11 7 -22 13 -24 14 -2 0 8 26 22 56 28 59 30 67 18 67 -10 0 -62 -99 -62 -117 0 -15 -27 -60 -53 -88 -10 -11 -36 -42 -58 -70 -22 -27 -56 -67 -75 -87 -19 -20 -34 -41 -34 -45 0 -5 -12 -14 -27 -21 -16 -6 -50 -29 -77 -51 -27 -22 -55 -37 -62 -34 -19 7 -104 -36 -104 -53 0 -16 16 -19 25 -4 5 9 69 40 81 40 3 0 9 -12 15 -27 21 -56 -63 -94 -103 -48 -31 36 -98 16 -230 -69 -13 -8 -52 -26 -88 -39 -36 -13 -86 -38 -111 -56 -26 -17 -51 -31 -56 -31 -6 0 -18 -9 -28 -20 -10 -11 -22 -20 -27 -20 -20 0 -284 -189 -345 -247 -18 -17 -45 -33 -60 -36 -16 -3 -60 -36 -100 -74 -40 -37 -102 -94 -138 -126 -36 -32 -65 -65 -65 -73 0 -7 -11 -16 -25 -20 -24 -6 -115 -105 -115 -125 0 -4 -22 -31 -49 -59 -27 -28 -56 -62 -65 -75 -9 -13 -47 -59 -85 -102 -37 -43 -91 -112 -120 -155 -28 -42 -54 -78 -59 -80 -4 -1 -21 -24 -37 -49 -17 -26 -42 -64 -56 -85 -15 -22 -40 -64 -56 -94 -17 -30 -38 -71 -49 -90 -10 -19 -27 -41 -36 -48 -10 -7 -18 -19 -18 -26 0 -8 -7 -19 -14 -26 -8 -6 -25 -33 -37 -58 -12 -26 -48 -85 -79 -132 -31 -47 -69 -110 -84 -140 -15 -30 -38 -66 -50 -80 -45 -52 -83 -106 -90 -127 -4 -12 -25 -36 -47 -53 -21 -18 -39 -37 -39 -44 0 -16 -127 -144 -150 -151 -11 -3 -22 -15 -25 -25 -3 -11 -53 -63 -111 -117 -57 -53 -104 -102 -104 -107 -1 -16 -25 -41 -138 -145 -56 -51 -102 -101 -102 -110 0 -16 -114 -141 -128 -141 -13 0 -62 -55 -62 -68 0 -18 11 -14 42 15 25 24 29 25 41 11 36 -46 117 -47 166 -3 93 84 82 191 -16 172 -32 -6 -29 2 19 51 l41 44 21 -22 c12 -11 26 -35 32 -53 17 -52 67 -50 145 4 l61 43 -7 56 c-3 30 -12 60 -18 65 -7 6 -20 22 -30 38 -10 15 -25 27 -34 27 -13 0 -8 9 16 34 l34 35 21 -27 c12 -15 29 -44 39 -64 26 -58 55 -52 99 20 54 89 56 138 7 191 -19 21 -17 46 5 54 8 3 23 -18 40 -54 32 -70 56 -76 109 -29 60 52 73 164 26 211 -22 22 -23 31 -7 47 15 15 54 -26 63 -68 16 -73 71 -61 114 25 34 67 26 111 -25 150 l-40 31 25 38 c20 31 29 37 50 33 52 -10 96 60 56 89 -15 11 -5 53 20 82 9 10 64 -31 67 -50 8 -58 140 -60 185 -3 45 57 70 206 37 219 -30 12 -76 6 -99 -12 -15 -12 -34 -17 -58 -14 l-35 4 16 37 c30 66 68 108 76 83 7 -20 19 -24 116 -34 17 -2 26 -11 30 -28 12 -53 64 -40 106 26 20 31 60 83 89 114 29 32 56 67 60 79 3 11 11 21 16 21 16 0 117 100 157 155 20 27 68 86 107 130 39 44 99 118 134 165 80 110 183 240 196 248 5 4 39 38 75 77 36 38 94 91 130 118 36 28 103 84 149 126 80 73 237 192 351 268 30 20 66 47 79 60 13 12 29 23 35 23 97 0 589 372 615 464 4 18 34 58 65 90 31 32 56 64 56 70 0 7 11 35 25 62 14 27 29 64 33 83 6 27 13 35 31 36 38 3 53 32 49 96 -3 55 -2 56 34 79 27 17 40 33 44 57 4 19 18 42 33 54 14 11 36 28 48 37 34 26 62 142 43 177 -31 58 -80 52 -143 -18 l-38 -42 35 50 c40 58 106 124 106 107 0 -17 57 -15 85 4 28 19 32 40 10 64 -13 15 -10 19 30 48 41 29 45 30 45 12 0 -41 95 -18 198 47 51 33 59 46 44 70 -11 17 -70 0 -152 -43 -64 -35 -65 -35 -33 -6 73 64 593 265 593 228 0 -18 -61 -66 -66 -51 -9 23 -69 19 -128 -9 -28 -13 -77 -32 -108 -42 -56 -18 -75 -34 -42 -34 20 0 142 43 184 65 41 21 70 21 49 0 -35 -36 -199 -86 -241 -74 -41 11 -55 8 -44 -9 23 -37 248 11 308 65 14 13 21 13 32 4 21 -18 -1 -52 -29 -45 -13 3 -44 -11 -87 -40 -39 -26 -85 -47 -110 -51 -57 -10 -108 -31 -138 -59 -41 -38 -144 -104 -203 -130 -55 -24 -56 -25 -76 -91 -30 -98 -22 -195 16 -181 7 3 13 -1 13 -9 0 -8 5 -15 10 -15 6 0 10 13 10 29 0 16 6 34 14 40 7 6 16 33 20 59 9 70 70 132 129 132 8 0 31 18 50 39 46 51 78 72 125 81 138 29 252 94 252 144 0 36 17 51 57 47 24 -3 123 83 123 106 0 17 -10 16 -29 -1 -14 -12 -18 -12 -29 0 -7 8 -9 14 -4 14 27 0 46 28 30 44 -18 17 -21 18 -58 6z m12 -32 c-17 -17 -15 -45 4 -52 20 -7 -18 -56 -42 -56 -21 0 -38 39 -20 46 8 3 24 21 35 40 11 19 24 34 28 34 4 0 2 -5 -5 -12z m-122 -176 c0 -21 -18 -38 -70 -66 -52 -29 -60 -32 -120 -49 -30 -9 -72 -21 -92 -27 -22 -7 -56 -31 -83 -59 -28 -29 -61 -53 -84 -60 -65 -19 -89 -45 -102 -110 -22 -107 -77 -134 -64 -33 10 84 36 126 96 151 54 24 192 112 204 131 11 18 79 48 126 55 27 4 70 22 105 45 67 44 84 48 84 22z m-350 -26 c0 -14 -162 -96 -189 -96 -14 0 13 17 129 81 32 18 60 25 60 15z m-327 -201 c-40 -31 -56 -15 -21 22 19 21 23 22 31 8 6 -12 3 -21 -10 -30z m-49 -130 c27 -41 -2 -126 -56 -162 -44 -30 -54 -43 -63 -85 -6 -30 -35 -51 -59 -42 -12 5 -13 11 -5 32 6 15 9 54 8 87 l-2 60 66 68 c72 74 87 79 111 42z m-194 -187 c0 -45 -16 -91 -30 -83 -5 3 -10 17 -10 31 0 13 -4 24 -10 24 -15 0 -12 15 11 55 25 42 39 33 39 -27z m-29 -132 c47 -64 40 -137 -14 -141 -22 -2 -37 -22 -37 -49 0 -10 -8 -33 -19 -50 -10 -17 -24 -48 -30 -68 -7 -20 -37 -63 -67 -94 -30 -31 -58 -69 -61 -85 -16 -83 -415 -392 -605 -468 -32 -13 -58 -27 -58 -31 0 -4 -28 -26 -62 -49 -116 -75 -275 -196 -359 -272 -46 -42 -113 -98 -149 -126 -36 -27 -94 -80 -130 -118 -36 -39 -70 -73 -75 -77 -13 -8 -116 -138 -196 -248 -35 -47 -95 -121 -134 -165 -39 -44 -87 -103 -107 -130 -40 -55 -141 -155 -157 -155 -5 0 -13 -10 -16 -21 -4 -12 -31 -47 -60 -79 -29 -31 -69 -83 -89 -114 -40 -63 -53 -68 -67 -27 -9 27 -15 29 -71 33 -82 6 -98 25 -64 81 26 46 79 58 100 25 6 -10 18 -18 26 -18 16 0 90 103 90 124 0 6 7 22 16 34 27 39 10 62 -46 62 l-49 0 26 43 c26 40 29 42 77 42 46 0 52 3 74 35 13 19 29 34 36 32 7 -1 33 2 59 7 37 7 49 5 59 -6 17 -21 57 -35 79 -28 23 8 26 57 5 74 -7 6 -16 34 -18 62 -8 78 -35 84 -115 28 -75 -53 -86 -15 -18 61 25 28 52 61 60 73 58 90 116 129 151 102 10 -8 29 -15 42 -15 12 0 33 -7 47 -16 65 -43 116 6 80 76 -15 29 -15 35 -1 65 28 59 1 79 -69 50 -16 -7 -17 -6 -7 6 6 8 24 29 39 48 29 37 119 111 134 111 5 0 9 -9 9 -20 0 -49 78 -49 131 1 30 28 31 31 24 85 -6 54 -6 55 32 92 50 48 103 86 103 73 0 -23 56 -41 92 -29 82 27 109 85 56 118 -18 11 -28 20 -22 20 7 0 35 16 63 35 28 19 54 35 57 35 4 0 15 7 24 15 16 14 22 13 69 -11 60 -30 80 -28 144 16 60 41 73 90 24 90 -44 0 -53 18 -14 28 20 6 62 26 94 45 32 19 77 44 100 56 l42 21 14 -21 c43 -61 164 -20 154 52 -5 35 -2 40 27 58 17 11 42 31 55 45 14 14 32 26 42 26 10 0 20 8 24 18 3 9 26 39 50 65 l45 49 0 -41 c0 -34 3 -41 19 -41 32 0 72 81 70 139 -3 56 24 112 44 92 6 -6 20 -11 31 -11 36 0 73 119 46 146 -8 8 -8 19 0 38 5 15 10 40 10 55 0 16 11 45 25 65 14 20 26 45 26 54 1 9 4 4 6 -13 3 -16 18 -48 34 -69z m-241 -366 c0 -16 -11 -45 -24 -64 l-24 -36 -4 38 c-3 27 1 45 16 65 26 35 36 34 36 -3z m-741 -502 c20 -7 38 -13 40 -15 7 -5 -23 -35 -44 -44 -11 -5 -29 -15 -40 -23 -18 -13 -25 -13 -66 6 l-47 22 52 33 c58 37 58 37 105 21z m-339 -208 l25 -20 -33 -30 c-37 -34 -61 -37 -91 -12 l-22 17 42 33 c50 38 47 37 79 12z m-294 -178 c-3 -4 -1 -26 4 -48 14 -60 -53 -132 -93 -101 -36 28 -26 67 31 114 50 41 69 52 58 35z m-323 -304 c3 -10 11 -10 37 -1 42 16 45 13 29 -31 -11 -30 -11 -42 0 -69 7 -17 13 -39 14 -47 3 -21 -37 -25 -53 -5 -7 8 -22 15 -33 15 -28 0 -97 32 -97 44 0 14 79 106 90 106 5 0 10 -6 13 -12z m-179 -390 c2 -13 4 -36 4 -51 0 -16 8 -37 18 -48 30 -34 2 -45 -35 -14 -27 24 -36 26 -73 19 -24 -4 -57 -6 -75 -5 -26 1 -35 -4 -47 -27 -20 -39 -41 -54 -69 -50 -25 3 -25 3 17 64 75 111 76 111 87 92 15 -27 60 -22 99 12 42 35 68 38 74 8z m-294 -302 c0 -51 -82 -167 -106 -149 -10 8 -29 11 -41 8 -35 -8 -30 27 12 89 34 51 36 53 85 54 27 0 50 0 50 -2z m-153 -401 c21 -58 -59 -215 -111 -215 -36 0 -86 29 -86 50 0 12 -9 24 -24 30 -37 14 -37 22 -4 74 l31 47 47 -6 c38 -5 51 -3 71 14 29 24 67 27 76 6z m-314 -241 c10 -10 -12 -44 -28 -44 -18 0 -19 5 -3 30 13 21 21 24 31 14z m-100 -186 c58 -40 60 -61 17 -130 -37 -60 -46 -60 -71 -1 -11 26 -25 51 -32 55 -8 5 -7 12 4 25 8 10 20 30 27 46 14 33 16 33 55 5z m-133 -170 c33 -55 10 -136 -50 -171 l-30 -18 -26 57 -26 56 54 54 c63 64 54 61 78 22z m-161 -219 c8 -23 3 -37 -29 -88 -49 -81 -46 -79 -67 -35 -9 22 -26 49 -37 62 l-20 22 54 55 55 55 17 -22 c10 -13 22 -35 27 -49z m-217 -156 c10 -9 18 -21 18 -26 0 -5 6 -15 14 -21 42 -34 29 -81 -34 -125 -69 -48 -91 -49 -105 -4 -6 17 -19 41 -30 53 -19 21 -19 21 3 27 12 3 22 10 22 16 0 10 80 96 89 97 3 0 13 -7 23 -17z m-201 -243 c30 -17 23 -53 -21 -103 -49 -55 -68 -62 -114 -43 -48 20 -46 32 17 93 65 63 83 71 118 53z" fill="none" stroke="rgba(255,255,255,0.9)" stroke-width="48.00" stroke-linecap="round" stroke-linejoin="round"/>
  <path d="M4793 5513 c-18 -7 -16 -40 3 -47 19 -7 64 3 64 14 0 26 -39 45 -67 33z" fill="none" stroke="rgba(255,255,255,0.9)" stroke-width="48.00" stroke-linecap="round" stroke-linejoin="round"/>
  <path d="M4698 5483 c-22 -6 -25 -53 -4 -53 8 0 18 -9 21 -20 7 -22 15 -23 64 -14 47 10 45 54 -2 54 -18 0 -38 -5 -43 -10 -7 -7 -9 -1 -6 20 4 30 2 32 -30 23z" fill="none" stroke="rgba(255,255,255,0.9)" stroke-width="48.00" stroke-linecap="round" stroke-linejoin="round"/>
  <path d="M4810 5325 c-16 -19 -3 -58 17 -51 8 3 19 6 24 6 14 0 11 30 -5 46 -18 17 -21 17 -36 -1z" fill="none" stroke="rgba(255,255,255,0.9)" stroke-width="48.00" stroke-linecap="round" stroke-linejoin="round"/>
  <path d="M4369 5269 c-16 -17 -29 -35 -29 -41 0 -5 -13 -28 -28 -51 -80 -118 -80 -247 -2 -322 29 -28 54 -29 31 -1 -9 11 -9 15 0 18 13 4 11 12 -16 58 -47 80 20 234 105 242 24 2 36 9 38 22 6 28 -11 38 -43 26 -28 -11 -29 -11 -11 8 9 11 33 23 52 27 19 3 38 13 41 21 8 22 -4 29 -23 13 -13 -11 -18 -11 -21 -1 -9 24 -64 13 -94 -19z m3 -61 c-3 -13 -15 -35 -28 -50 -38 -47 -57 -111 -52 -180 4 -58 4 -61 -8 -33 -27 62 -17 103 55 228 36 62 42 69 33 35z" fill="none" stroke="rgba(255,255,255,0.9)" stroke-width="48.00" stroke-linecap="round" stroke-linejoin="round"/>
  <path d="M4023 5273 c-13 -2 -40 -25 -61 -50 -32 -36 -48 -47 -85 -54 -25 -4 -67 -23 -94 -42 -26 -18 -78 -48 -114 -66 -37 -18 -83 -46 -104 -63 l-36 -31 6 -76 c9 -98 18 -107 117 -116 95 -9 105 2 88 92 -14 79 -14 79 26 102 26 16 45 20 69 15 54 -10 159 33 197 80 15 18 20 19 37 9 31 -19 59 -16 66 7 4 11 17 27 30 36 44 29 59 110 25 144 -20 20 -100 26 -167 13z m147 -33 c45 -45 -31 -151 -102 -142 -31 3 -42 -1 -71 -30 -38 -38 -123 -68 -173 -61 -88 13 -125 -40 -104 -147 12 -63 1 -73 -69 -64 -71 8 -87 25 -94 95 -7 71 7 86 138 154 49 26 105 59 123 73 18 13 54 29 80 33 37 7 54 17 81 50 52 63 148 82 191 39z" fill="none" stroke="rgba(255,255,255,0.9)" stroke-width="48.00" stroke-linecap="round" stroke-linejoin="round"/>
  <path d="M4666 5223 c-5 -11 1 -23 16 -35 25 -19 78 -24 78 -8 0 6 -9 10 -19 10 -11 0 -22 4 -25 9 -4 5 3 7 14 4 29 -8 25 16 -6 27 -36 14 -51 12 -58 -7z" fill="none" stroke="rgba(255,255,255,0.9)" stroke-width="48.00" stroke-linecap="round" stroke-linejoin="round"/>
  <path d="M4272 5208 c-30 -37 -66 -189 -56 -240 3 -18 2 -18 -7 5 -6 15 -14 27 -19 27 -14 0 -21 -33 -9 -40 14 -9 8 -42 -9 -48 -7 -2 -15 9 -18 27 -6 30 -24 44 -24 19 0 -7 -9 -2 -20 12 -22 29 -40 19 -21 -11 14 -24 9 -34 -14 -26 -9 4 -15 19 -15 40 0 34 -23 77 -35 65 -4 -3 -2 -15 4 -26 17 -31 13 -49 -10 -55 -36 -10 -19 -90 27 -138 25 -25 35 -43 30 -54 -10 -26 -29 -13 -56 40 -31 60 -41 64 -74 28 -25 -27 -61 -92 -54 -97 1 -1 18 -13 36 -25 52 -36 2 -61 -52 -26 -35 23 -133 10 -142 -19 -12 -41 -34 -56 -73 -50 -33 5 -39 2 -72 -38 -82 -100 -97 -157 -46 -184 16 -9 15 -12 -8 -44 -18 -25 -25 -46 -24 -75 2 -64 8 -75 37 -76 24 0 25 -1 7 -9 -24 -10 -95 -84 -95 -99 0 -6 11 -13 25 -17 38 -9 150 106 141 146 -3 19 0 33 10 41 11 9 14 23 11 46 -3 18 -2 33 3 33 5 0 29 17 54 38 24 20 56 45 70 54 19 14 24 26 23 54 -2 42 43 88 64 67 8 -8 2 -17 -20 -34 -34 -25 -39 -54 -17 -85 17 -22 -3 -54 -34 -54 -17 0 -63 -51 -87 -99 -17 -30 -16 -34 1 -28 10 4 13 1 9 -9 -10 -27 22 -14 39 16 9 17 27 34 40 39 13 5 46 31 73 58 28 26 71 65 95 86 28 24 40 41 33 44 -7 2 -13 9 -13 14 0 6 5 7 11 4 14 -9 57 32 74 70 9 20 14 24 14 12 2 -39 101 25 101 65 0 33 -29 33 -64 -1 -17 -17 -38 -31 -46 -31 -7 0 5 16 28 36 34 29 42 42 42 70 0 35 83 104 125 104 28 0 29 30 1 59 -43 45 -38 182 10 270 31 56 28 87 -4 49z m-218 -293 c20 -15 55 -11 67 8 4 5 10 0 14 -12 8 -27 59 -29 74 -3 8 12 10 13 11 3 0 -8 10 -25 22 -38 18 -20 19 -23 5 -23 -48 0 -127 -69 -127 -111 0 -38 -98 -123 -143 -123 -29 -1 -32 -4 -35 -35 -2 -22 -13 -42 -33 -58 -51 -44 -63 -102 -18 -90 11 3 17 1 13 -4 -10 -17 -32 -9 -54 18 l-21 26 36 29 c44 37 46 64 5 73 -51 11 -94 -21 -98 -73 -3 -37 -8 -46 -40 -66 -20 -13 -48 -35 -61 -50 -14 -14 -31 -26 -39 -26 -9 0 -13 -10 -11 -35 2 -19 -2 -40 -9 -47 -6 -6 -12 -17 -12 -23 0 -13 -49 -39 -58 -31 -17 18 -10 81 13 108 31 36 33 74 5 81 -64 17 50 189 118 180 40 -5 67 13 74 52 4 26 79 38 108 18 69 -48 152 10 92 64 l-30 26 25 39 c29 43 47 39 58 -12 8 -37 27 -52 62 -48 45 5 44 55 -1 105 -53 59 -61 115 -12 78z" fill="none" stroke="rgba(255,255,255,0.9)" stroke-width="48.00" stroke-linecap="round" stroke-linejoin="round"/>
  <path d="M4517 5072 c-35 -38 11 -120 53 -94 9 6 35 8 57 5 68 -9 70 42 3 53 -22 4 -47 16 -59 30 -25 29 -33 30 -54 6z" fill="none" stroke="rgba(255,255,255,0.9)" stroke-width="48.00" stroke-linecap="round" stroke-linejoin="round"/>
  <path d="M5807 5009 c-32 -26 -37 -36 -38 -72 0 -41 0 -42 -16 -19 -27 39 -75 30 -117 -22 -39 -47 -50 -111 -21 -122 8 -4 12 -11 9 -16 -4 -6 0 -14 7 -19 9 -6 10 -9 2 -9 -6 0 -15 5 -18 10 -3 6 -19 10 -36 10 -16 0 -29 -4 -29 -10 0 -5 8 -10 18 -10 10 0 22 -4 28 -10 20 -20 100 -24 108 -5 9 24 -21 68 -43 62 -49 -13 -53 50 -5 103 42 46 60 50 76 15 20 -44 52 -30 56 25 2 39 8 49 37 69 19 13 35 30 35 37 0 21 -12 17 -53 -17z" fill="none" stroke="rgba(255,255,255,0.9)" stroke-width="48.00" stroke-linecap="round" stroke-linejoin="round"/>
  <path d="M4575 4970 c-14 -23 6 -51 33 -48 36 4 43 43 10 52 -31 8 -36 8 -43 -4z" fill="none" stroke="rgba(255,255,255,0.9)" stroke-width="48.00" stroke-linecap="round" stroke-linejoin="round"/>
  <path d="M4567 4874 c-9 -10 -9 -36 1 -52 15 -22 64 3 60 31 -3 22 -45 37 -61 21z" fill="none" stroke="rgba(255,255,255,0.9)" stroke-width="48.00" stroke-linecap="round" stroke-linejoin="round"/>
  <path d="M4672 4798 c4 -40 40 -52 57 -19 16 29 3 51 -31 51 -27 0 -29 -2 -26 -32z" fill="none" stroke="rgba(255,255,255,0.9)" stroke-width="48.00" stroke-linecap="round" stroke-linejoin="round"/>
  <path d="M4220 4791 c-38 -32 -39 -74 -2 -79 13 -2 22 2 22 10 0 7 14 26 30 41 57 54 11 79 -50 28z" fill="none" stroke="rgba(255,255,255,0.9)" stroke-width="48.00" stroke-linecap="round" stroke-linejoin="round"/>
  <path d="M4340 4810 c0 -5 -7 -10 -15 -10 -20 0 -19 -16 1 -24 9 -4 51 -13 93 -22 93 -19 108 -29 85 -55 -10 -11 -23 -19 -29 -19 -7 0 -23 -16 -36 -35 -22 -33 -68 -65 -92 -65 -6 0 -3 8 6 18 21 23 21 32 3 32 -8 0 -24 -13 -36 -30 -12 -16 -28 -30 -37 -30 -20 0 -105 -87 -151 -153 -19 -29 -39 -53 -44 -55 -4 -2 -8 -10 -8 -18 0 -34 -19 -55 -40 -42 -25 16 -41 0 -17 -17 18 -13 -1 -32 -27 -26 -27 6 -47 -12 -44 -40 3 -34 -87 -103 -103 -77 -7 10 -11 10 -21 0 -10 -10 -10 -14 2 -22 11 -7 7 -13 -19 -27 -18 -10 -57 -37 -86 -60 -28 -24 -62 -43 -75 -43 -17 0 -21 -4 -17 -20 3 -11 0 -20 -5 -20 -6 0 -21 -11 -33 -24 -12 -13 -50 -34 -84 -46 -60 -22 -78 -39 -43 -41 9 0 -7 -10 -37 -22 -32 -12 -56 -28 -59 -39 -5 -21 -3 -21 -38 -8 -30 12 -64 5 -64 -13 0 -33 -56 -11 -78 30 l-22 42 40 32 c43 34 52 67 25 89 -12 10 -13 16 -5 24 8 8 16 4 29 -13 13 -17 23 -22 39 -16 23 7 30 39 11 50 -5 4 -14 18 -19 31 -5 13 -27 32 -49 43 -21 11 -41 25 -43 31 -4 13 -70 23 -83 13 -104 -82 -114 -178 -28 -256 60 -55 42 -122 -31 -119 -20 1 -36 -3 -36 -8 0 -5 -7 -7 -15 -3 -21 8 28 33 58 30 19 -2 22 4 25 37 4 42 -32 85 -70 86 -10 0 -25 11 -33 24 -30 45 -135 22 -135 -29 0 -18 -14 -19 -28 -2 -24 28 49 97 102 97 60 0 129 128 97 179 -13 20 -135 5 -183 -23 -61 -35 -76 -118 -29 -160 18 -16 18 -19 3 -37 -23 -27 -28 -25 -59 31 -33 60 -61 66 -93 20 -40 -56 -1 -121 64 -104 17 4 25 -1 36 -22 14 -25 76 -61 87 -50 8 8 -7 26 -21 26 -8 0 -20 8 -27 18 -11 14 -11 15 1 5 8 -7 19 -13 25 -13 13 0 59 -38 148 -124 34 -32 43 -43 19 -22 -23 20 -48 36 -55 36 -8 0 -31 13 -53 30 -43 33 -78 38 -101 15 -8 -9 -14 -17 -12 -19 2 -1 21 -13 42 -25 20 -12 37 -24 37 -26 0 -6 -55 12 -88 29 -89 46 -125 -58 -41 -118 19 -13 20 -16 6 -16 -9 0 -17 3 -17 8 0 37 -112 65 -130 33 -16 -31 -12 -39 25 -52 43 -16 43 -18 5 -54 -33 -32 -42 -85 -15 -85 55 0 159 81 169 131 3 18 10 28 17 24 8 -5 8 -10 0 -18 -42 -42 6 -73 54 -35 l28 21 -13 -22 c-28 -53 24 -101 65 -61 11 11 27 44 35 73 12 40 21 53 38 55 12 2 22 8 22 13 0 5 7 9 15 9 22 0 19 -7 -21 -42 -46 -40 -45 -81 1 -86 50 -5 141 111 105 133 -26 16 -32 47 -8 40 78 -24 110 -46 94 -64 -47 -52 5 -67 92 -26 56 26 92 32 92 15 0 -5 5 -10 12 -10 25 0 85 -52 108 -92 88 -156 -80 -493 -415 -831 -167 -169 -186 -197 -130 -197 21 0 25 -5 24 -27 0 -16 -3 -22 -6 -15 -2 6 -11 12 -20 12 -17 0 -9 -35 13 -57 19 -19 22 -17 29 27 5 32 11 40 23 35 19 -5 106 7 171 25 30 8 65 32 117 81 82 75 107 83 142 46 31 -32 27 -41 -13 -34 -40 7 -95 -30 -95 -64 0 -28 46 -25 73 5 19 20 29 22 77 19 76 -6 99 -31 115 -125 6 -36 20 -56 32 -44 3 3 1 18 -5 33 -6 15 -13 44 -16 64 -9 50 -49 89 -92 89 -29 0 -34 3 -34 24 0 98 -91 102 -194 7 -76 -71 -101 -84 -207 -100 -32 -5 -54 -4 -71 5 -12 7 -36 13 -51 14 -28 0 -27 2 27 48 471 402 690 932 437 1061 l-35 19 64 32 c123 62 316 205 487 360 l42 38 -7 -31 c-27 -120 4 -274 58 -287 13 -3 25 -11 28 -18 2 -7 -2 -10 -12 -6 -22 9 -20 -9 4 -31 11 -10 22 -26 25 -36 8 -23 33 -24 57 -2 70 63 348 -14 348 -97 0 -41 50 -53 74 -18 47 67 8 149 -104 220 -44 28 -78 53 -76 55 2 2 32 11 65 19 34 7 80 23 103 35 l41 21 29 -22 c54 -40 93 5 64 74 -10 25 -22 36 -45 41 -41 9 -39 24 9 59 48 36 57 59 35 93 -22 33 -91 28 -115 -9 -53 -80 -97 -112 -172 -121 -77 -10 -95 11 -72 88 12 43 17 91 16 169 -1 134 15 164 145 270 47 38 102 90 122 116 l38 48 39 -24 c117 -72 258 -125 384 -144 36 -5 90 -17 120 -25 30 -9 96 -17 146 -18 104 -3 96 1 258 -130 54 -43 102 -89 108 -103 13 -29 28 -31 28 -5 0 19 -31 49 -181 178 -66 56 -142 87 -197 80 -41 -6 -162 12 -162 24 0 4 16 16 35 28 55 32 92 174 49 188 -8 3 -10 -10 -7 -40 7 -55 -16 -101 -63 -129 -19 -11 -34 -26 -34 -33 0 -9 -10 -10 -37 -4 -21 4 -73 15 -116 23 -43 8 -120 34 -171 56 l-94 41 11 28 c14 38 3 63 -25 59 -15 -2 -24 -11 -26 -26 -3 -18 -8 -22 -20 -16 -49 20 -66 15 -99 -30 -18 -25 -71 -77 -119 -116 -47 -40 -101 -93 -119 -119 l-34 -46 0 -120 c1 -83 -4 -135 -15 -170 -23 -72 -20 -91 14 -115 31 -22 24 -23 147 10 30 7 52 22 75 52 75 93 97 105 122 66 11 -19 -7 -49 -21 -34 -4 4 -1 11 6 15 16 10 6 31 -13 31 -17 0 -28 -40 -16 -55 11 -13 -38 -61 -104 -103 -34 -21 -55 -25 -150 -30 -124 -6 -142 -13 -211 -90 -51 -57 -43 -87 30 -112 74 -25 138 -34 133 -18 -3 7 -18 14 -34 16 -100 10 -156 48 -120 81 19 18 24 20 29 7 8 -20 85 -71 94 -62 4 4 -14 26 -40 50 -56 51 -56 47 -9 78 32 21 52 26 143 30 103 6 175 27 194 58 5 8 45 -51 45 -66 0 -1 -16 -5 -36 -9 -21 -3 -46 -13 -58 -20 -19 -12 -48 -21 -138 -40 -55 -11 -37 -45 52 -98 75 -45 99 -64 65 -51 -19 8 -19 -1 1 -31 10 -15 14 -34 10 -49 l-6 -24 -32 30 c-59 56 -128 79 -226 77 -78 -2 -87 -1 -100 19 -8 12 -19 22 -25 22 -109 0 -157 124 -121 318 9 48 -24 43 -84 -13 -216 -199 -454 -361 -582 -395 -25 -7 -62 -21 -83 -32 -21 -10 -44 -17 -50 -15 -6 2 3 10 21 18 34 15 40 25 20 32 -7 2 -1 2 15 0 29 -5 38 11 11 21 -9 3 -30 6 -48 6 -18 0 -36 4 -41 8 -6 5 -30 14 -55 21 l-44 13 38 13 c22 8 42 19 46 25 5 8 10 7 19 -4 10 -12 8 -16 -8 -21 -12 -3 -21 -11 -21 -16 0 -14 33 -11 58 7 22 15 24 14 56 -20 31 -35 56 -46 56 -27 0 5 -7 17 -16 25 -8 9 -11 16 -5 16 6 0 11 9 11 19 0 17 5 19 35 14 30 -5 35 -3 35 13 0 14 15 25 53 39 30 12 52 27 52 35 0 9 23 25 55 37 30 12 61 32 69 43 7 11 20 20 28 20 10 0 14 7 10 20 -4 15 0 20 15 20 11 0 41 17 67 39 25 21 61 46 79 55 17 9 32 23 32 31 0 8 6 15 14 15 23 0 155 84 156 99 0 16 85 101 100 101 5 0 24 19 41 43 17 23 37 46 45 50 8 5 14 23 14 46 0 24 7 45 20 59 26 28 100 66 100 51 0 -16 29 -41 40 -34 6 4 9 14 8 23 -2 9 8 21 21 28 14 7 30 23 37 36 11 18 13 19 14 6 0 -26 15 -22 30 10 8 15 23 37 34 50 32 36 13 74 -44 87 l-45 10 53 3 c85 5 68 28 -20 28 -40 -1 -85 2 -100 7 -18 4 -28 4 -28 -3z m-1332 -702 c4 -37 -71 -118 -110 -118 -15 0 -30 -4 -33 -10 -24 -39 -78 43 -55 85 35 65 192 99 198 43z m168 -25 c9 -10 30 -25 47 -33 51 -25 65 -57 23 -52 -42 5 -57 -25 -32 -63 15 -22 14 -24 -20 -50 -20 -15 -39 -37 -44 -49 -7 -15 -9 -17 -9 -4 -1 9 -19 32 -42 51 -63 55 -65 100 -8 166 48 55 59 59 85 34z m-447 -136 l23 -37 -24 -9 c-28 -11 -58 3 -58 27 0 16 29 67 34 60 2 -2 13 -20 25 -41z m1906 7 c22 -9 45 -57 35 -73 -11 -18 -30 -5 -30 21 0 12 -7 30 -17 40 -17 19 -15 22 12 12z m-1667 -69 c12 -14 27 -25 32 -25 6 0 24 -10 40 -22 38 -27 40 -58 5 -58 -14 0 -34 -5 -44 -11 -20 -13 -131 59 -131 85 0 43 69 65 98 31z m-220 -173 c30 -23 39 -82 13 -82 -39 0 -79 69 -54 93 9 10 16 8 41 -11z m175 -3 c61 -31 82 -69 39 -69 -25 0 -27 -3 -28 -41 -2 -43 -31 -94 -54 -94 -26 0 -20 23 14 60 l35 37 -20 21 -20 22 20 3 c28 4 27 37 -1 56 -26 19 -17 21 15 5z m1206 -8 c11 -7 11 -12 -2 -31 -15 -22 -15 -22 -26 -2 -20 38 -6 55 28 33z m-1275 -66 c21 -18 26 -29 21 -42 -8 -17 -8 -17 -12 0 -4 15 -12 18 -34 15 -16 -3 -29 -1 -29 4 0 4 9 8 20 8 27 0 25 18 -2 30 -13 5 -17 9 -8 9 8 1 28 -10 44 -24z m-204 -10 c7 -9 10 -18 6 -22 -9 -10 -58 16 -51 27 9 15 31 12 45 -5z m1910 -36 c0 -34 -26 -58 -43 -40 -9 10 -8 14 6 22 10 6 17 22 17 42 0 24 3 28 10 17 5 -8 10 -27 10 -41z m-1509 -22 c-29 -30 -44 -38 -51 -31 -8 8 2 23 37 53 59 50 70 34 14 -22z m-321 4 c0 -12 -64 -67 -100 -86 -17 -9 -30 -12 -30 -7 0 14 63 69 88 77 12 3 22 11 22 16 0 5 5 9 10 9 6 0 10 -4 10 -9z" fill="none" stroke="rgba(255,255,255,0.9)" stroke-width="48.00" stroke-linecap="round" stroke-linejoin="round"/>
  <path d="M3348 4797 c-158 -50 -208 -239 -73 -274 108 -28 145 -17 145 43 0 14 14 43 31 64 68 84 -3 198 -103 167z m75 -35 c37 -40 40 -72 10 -111 -16 -20 -30 -54 -33 -76 l-5 -40 -51 1 c-61 2 -100 20 -122 55 -43 74 144 234 201 171z" fill="none" stroke="rgba(255,255,255,0.9)" stroke-width="48.00" stroke-linecap="round" stroke-linejoin="round"/>
  <path d="M4794 4736 c-13 -35 0 -61 31 -61 44 0 46 68 2 73 -17 2 -29 -2 -33 -12z" fill="none" stroke="rgba(255,255,255,0.9)" stroke-width="48.00" stroke-linecap="round" stroke-linejoin="round"/>
  <path d="M4987 4733 c-13 -12 -7 -80 7 -92 34 -28 81 -9 80 31 -2 56 -56 93 -87 61z m59 -39 c12 -18 14 -28 6 -36 -23 -23 -61 14 -48 47 8 22 23 18 42 -11z" fill="none" stroke="rgba(255,255,255,0.9)" stroke-width="48.00" stroke-linecap="round" stroke-linejoin="round"/>
  <path d="M3600 4720 c0 -26 41 -50 85 -50 25 0 45 4 45 9 0 13 -23 20 -51 14 -16 -3 -31 2 -43 16 -20 23 -36 27 -36 11z" fill="none" stroke="rgba(255,255,255,0.9)" stroke-width="48.00" stroke-linecap="round" stroke-linejoin="round"/>
  <path d="M5829 4703 c-11 -13 -12 -17 -1 -21 7 -2 22 -14 34 -26 14 -14 22 -17 25 -8 3 6 11 12 19 12 8 0 14 6 14 13 0 15 55 -66 71 -106 9 -20 9 -31 1 -39 -8 -8 -14 -4 -21 15 -11 28 -31 37 -31 15 -1 -7 -7 2 -15 20 -20 46 -50 54 -153 42 -48 -5 -120 -10 -161 -10 l-73 0 7 -27 c3 -16 43 -66 88 -112 45 -47 74 -79 64 -71 -34 25 -29 0 12 -61 43 -66 51 -99 26 -119 -44 -36 5 -68 53 -34 59 41 9 158 -125 291 -112 110 -112 113 -25 113 37 0 101 5 142 10 89 12 123 -4 128 -58 3 -28 22 -47 22 -22 0 18 19 10 25 -10 12 -37 65 -9 65 34 1 100 -142 219 -191 159z m-39 -457 c0 -21 -27 -56 -43 -56 -6 0 -3 6 8 13 15 11 17 23 12 63 -5 45 -4 47 9 24 7 -14 13 -34 14 -44z" fill="none" stroke="rgba(255,255,255,0.9)" stroke-width="48.00" stroke-linecap="round" stroke-linejoin="round"/>
  <path d="M4872 4669 c-12 -18 -12 -23 0 -31 58 -39 91 -33 86 15 -4 42 -64 53 -86 16z" fill="none" stroke="rgba(255,255,255,0.9)" stroke-width="48.00" stroke-linecap="round" stroke-linejoin="round"/>
  <path d="M5102 4600 c-26 -34 -27 -40 -8 -40 7 0 21 11 30 25 9 14 21 23 27 19 6 -4 4 -15 -6 -31 -18 -27 -14 -39 9 -30 16 6 31 61 21 77 -12 20 -51 10 -73 -20z" fill="none" stroke="rgba(255,255,255,0.9)" stroke-width="48.00" stroke-linecap="round" stroke-linejoin="round"/>
  <path d="M3054 4507 c-3 -8 -13 -13 -23 -10 -28 7 -45 -24 -44 -82 2 -75 15 -95 61 -95 79 0 107 58 55 112 -22 23 -24 28 -9 28 28 0 17 54 -12 58 -12 2 -24 -3 -28 -11z m21 -84 l40 -45 -24 -19 c-46 -38 -80 -18 -83 48 -3 75 12 78 67 16z" fill="none" stroke="rgba(255,255,255,0.9)" stroke-width="48.00" stroke-linecap="round" stroke-linejoin="round"/>
  <path d="M3236 4438 c3 -13 13 -35 20 -50 18 -36 20 -33 -28 -61 -127 -75 -131 -180 -8 -189 42 -3 45 -5 74 -60 16 -32 36 -58 43 -58 16 0 17 -22 1 -38 -18 -18 -4 -24 26 -11 28 13 33 24 15 35 -8 4 -2 12 15 21 30 16 33 34 9 69 -19 30 -7 44 38 44 39 0 52 51 27 104 -9 21 -8 32 6 59 35 64 -23 137 -73 93 -9 -7 -37 -16 -62 -19 l-45 -6 -22 44 c-23 47 -49 63 -36 23z m218 -77 c14 -26 14 -30 1 -41 -17 -14 -20 -72 -4 -101 16 -31 2 -59 -29 -59 -49 0 -58 -13 -45 -62 22 -83 -19 -82 -65 2 -32 58 -34 60 -75 60 -99 1 -107 61 -17 127 25 18 53 40 63 48 10 9 43 19 73 22 30 3 59 12 65 19 15 19 16 18 33 -15z" fill="none" stroke="rgba(255,255,255,0.9)" stroke-width="48.00" stroke-linecap="round" stroke-linejoin="round"/>
  <path d="M2538 3943 c-35 -9 -14 -57 23 -51 18 2 24 9 24 28 0 25 -14 32 -47 23z" fill="none" stroke="rgba(255,255,255,0.9)" stroke-width="48.00" stroke-linecap="round" stroke-linejoin="round"/>
  <path d="M2527 3826 c-41 -13 -107 -63 -107 -81 0 -7 -9 -24 -21 -39 -50 -64 26 -110 138 -81 25 6 32 42 11 63 -14 14 -14 13 29 17 37 3 101 52 102 78 2 49 -67 69 -152 43z m114 -22 c21 -19 -31 -74 -69 -74 -48 0 -71 -37 -41 -67 14 -14 -8 -20 -73 -22 -52 -1 -67 12 -45 37 8 9 17 26 21 38 20 66 164 127 207 88z" fill="none" stroke="rgba(255,255,255,0.9)" stroke-width="48.00" stroke-linecap="round" stroke-linejoin="round"/>
  <path d="M2313 3650 c-21 -9 -63 -76 -63 -101 0 -6 -7 -26 -16 -45 -9 -19 -14 -42 -12 -52 4 -13 -2 -18 -25 -19 -37 -3 -98 -50 -162 -126 -27 -32 -56 -65 -62 -72 -16 -17 -16 -25 -1 -25 7 0 38 28 70 63 56 60 58 61 56 32 -2 -21 -8 -29 -19 -27 -18 2 -33 -29 -43 -86 -5 -30 14 -39 41 -18 4 3 35 93 42 120 10 43 28 44 23 1 -4 -31 -2 -35 20 -35 32 0 74 80 58 110 -13 25 -13 30 5 30 8 0 15 4 15 8 0 5 12 14 27 21 23 11 25 10 14 -3 -17 -21 -10 -60 12 -64 29 -6 65 25 78 67 8 28 20 43 45 55 42 20 43 32 2 40 -47 9 -57 22 -51 66 4 25 1 46 -7 55 -14 17 -16 17 -47 5z m32 -75 c0 -41 4 -51 22 -60 25 -13 20 -25 -9 -25 -10 0 -41 -11 -68 -25 -58 -29 -57 -31 -28 49 42 119 83 149 83 61z" fill="none" stroke="rgba(255,255,255,0.9)" stroke-width="48.00" stroke-linecap="round" stroke-linejoin="round"/>
  <path d="M2467 3593 c-15 -14 -6 -51 16 -66 l22 -15 -37 -18 c-51 -24 -57 -84 -10 -84 29 0 45 13 106 85 54 65 55 80 2 94 -51 12 -89 14 -99 4z m97 -33 c7 -7 3 -17 -10 -31 -18 -18 -22 -19 -27 -5 -4 9 -2 16 3 16 6 0 10 5 10 11 0 7 -10 9 -24 5 -25 -6 -42 5 -28 18 9 9 63 -1 76 -14z m-54 -89 c0 -8 -43 -41 -55 -41 -15 0 -2 32 18 40 29 12 37 12 37 1z" fill="none" stroke="rgba(255,255,255,0.9)" stroke-width="48.00" stroke-linecap="round" stroke-linejoin="round"/>
  <path d="M3325 3560 c-48 -50 -7 -81 47 -35 37 31 43 31 75 -1 54 -54 -4 -237 -109 -346 -38 -40 -47 -55 -42 -74 5 -18 -1 -31 -25 -55 -44 -44 -41 -109 5 -109 29 0 32 16 4 23 -27 7 -25 35 5 59 14 11 25 25 25 32 0 8 12 11 34 8 28 -3 37 1 51 22 23 35 9 48 -15 16 -15 -20 -23 -23 -36 -14 -29 18 -27 33 8 67 19 18 41 44 51 59 44 71 77 141 77 166 0 15 4 42 9 60 17 56 -27 132 -76 132 -13 0 -23 5 -23 10 0 20 -37 9 -65 -20z" fill="none" stroke="rgba(255,255,255,0.9)" stroke-width="48.00" stroke-linecap="round" stroke-linejoin="round"/>
  <path d="M3078 3539 c-33 -19 -23 -59 15 -59 43 0 59 12 55 41 -3 27 -40 36 -70 18z" fill="none" stroke="rgba(255,255,255,0.9)" stroke-width="48.00" stroke-linecap="round" stroke-linejoin="round"/>
  <path d="M2919 3469 c-41 -41 -1 -92 42 -53 23 21 25 60 3 68 -22 8 -22 8 -45 -15z" fill="none" stroke="rgba(255,255,255,0.9)" stroke-width="48.00" stroke-linecap="round" stroke-linejoin="round"/>
  <path d="M2721 3454 c-55 -46 -40 -94 29 -94 54 0 62 119 8 120 -3 0 -20 -12 -37 -26z m49 -23 c0 -46 -18 -61 -50 -41 -12 7 -11 13 10 34 28 31 40 33 40 7z" fill="none" stroke="rgba(255,255,255,0.9)" stroke-width="48.00" stroke-linecap="round" stroke-linejoin="round"/>
  <path d="M3193 3453 c-7 -2 -13 -16 -13 -29 0 -33 72 -33 78 0 6 28 -29 44 -65 29z" fill="none" stroke="rgba(255,255,255,0.9)" stroke-width="48.00" stroke-linecap="round" stroke-linejoin="round"/>
  <path d="M3081 3436 c-25 -30 -9 -70 32 -80 49 -13 61 0 52 53 -7 45 -57 60 -84 27z m62 -28 c10 -38 -6 -48 -38 -24 -16 12 -17 16 -6 30 19 22 38 20 44 -6z" fill="none" stroke="rgba(255,255,255,0.9)" stroke-width="48.00" stroke-linecap="round" stroke-linejoin="round"/>
  <path d="M2547 3392 c-20 -22 -22 -85 -4 -100 34 -29 87 24 87 88 0 36 -54 44 -83 12z m63 -12 c0 -22 -32 -71 -43 -67 -19 6 -20 37 -1 58 18 21 44 26 44 9z" fill="none" stroke="rgba(255,255,255,0.9)" stroke-width="48.00" stroke-linecap="round" stroke-linejoin="round"/>
  <path d="M1908 3393 c-10 -2 -25 -20 -34 -38 -9 -20 -27 -38 -45 -44 -16 -5 -29 -14 -29 -20 0 -5 -3 -16 -6 -25 -3 -9 10 -31 34 -58 21 -24 44 -59 51 -78 6 -19 21 -45 34 -58 22 -25 22 -25 0 -14 -22 12 -83 -1 -83 -18 0 -4 -27 -27 -60 -51 -67 -49 -74 -71 -40 -127 11 -18 20 -44 20 -57 0 -27 34 -37 42 -13 3 8 24 -4 57 -31 50 -42 52 -46 46 -81 -5 -32 -3 -39 19 -53 31 -21 36 -21 36 -2 0 8 5 15 10 15 16 0 12 14 -15 42 -23 25 -23 28 -9 43 15 15 15 18 -2 36 -13 15 -15 22 -6 31 19 19 14 43 -13 68 -27 26 -32 49 -13 68 20 20 31 14 24 -14 -9 -36 38 -106 68 -102 30 4 34 60 7 94 -12 15 -21 33 -21 41 0 8 -9 26 -20 40 -24 31 -27 57 -2 27 9 -12 25 -24 34 -27 9 -3 32 -30 51 -59 28 -44 47 -61 103 -90 96 -51 124 -81 99 -108 -10 -11 -26 -20 -36 -20 -10 0 -41 -13 -67 -30 -27 -16 -57 -30 -66 -30 -9 0 -34 -11 -54 -25 -20 -14 -42 -25 -49 -25 -6 0 -24 -10 -40 -23 -40 -33 -93 -62 -139 -77 -21 -7 -44 -18 -49 -25 -6 -6 -19 -15 -30 -18 -21 -7 -80 -45 -174 -111 -30 -21 -76 -48 -103 -59 -26 -11 -48 -24 -48 -28 0 -5 -5 -9 -10 -9 -6 0 -47 -26 -91 -57 -113 -81 -132 -93 -149 -93 -9 0 2 14 24 33 42 36 50 111 15 153 -47 57 -205 -60 -186 -137 7 -27 71 -69 106 -69 33 0 25 -17 -26 -55 -61 -44 -63 -44 -63 6 0 101 -86 134 -154 59 -55 -61 -36 -150 34 -150 39 0 45 -38 13 -79 -28 -36 -48 -39 -63 -11 -12 22 -80 44 -119 38 -25 -4 -26 -2 -23 34 4 38 4 38 -32 38 -42 0 -44 8 -14 62 24 42 26 42 96 22 36 -10 112 75 112 125 0 90 -91 90 -144 0 -20 -33 -36 -64 -36 -68 0 -5 -7 -14 -16 -22 -24 -20 -56 -89 -51 -110 3 -10 -1 -23 -9 -30 -7 -6 -21 -35 -31 -65 -9 -30 -21 -54 -25 -54 -9 0 -38 -61 -38 -80 0 -22 19 -8 29 21 9 26 13 29 25 19 13 -10 9 -17 -24 -49 -22 -21 -40 -45 -40 -54 0 -9 -9 -34 -20 -55 -11 -22 -20 -52 -19 -68 1 -16 -3 -49 -9 -74 -17 -69 24 -94 81 -50 57 45 43 125 -20 118 -34 -4 -37 0 -27 39 4 16 14 23 30 23 54 0 71 16 102 97 24 65 55 102 44 54 -8 -35 10 -63 54 -82 61 -27 78 -19 114 56 17 35 39 66 49 70 23 7 81 79 81 99 0 21 35 56 56 56 19 0 81 44 114 82 14 16 42 39 62 51 20 12 79 52 130 88 51 36 116 76 143 88 28 13 58 30 68 39 9 8 26 20 36 26 11 6 45 28 78 49 127 83 166 106 174 101 10 -6 90 39 131 72 16 13 38 26 50 30 13 3 34 14 48 24 14 9 38 20 54 24 16 4 45 18 65 32 19 13 45 24 57 24 23 0 48 24 58 56 8 27 -39 71 -122 114 -35 18 -73 47 -84 64 l-21 31 34 -32 c31 -29 135 -83 159 -83 27 0 4 20 -45 40 -53 21 -145 104 -145 131 0 8 -11 9 -32 5 -38 -8 -81 33 -123 118 l-25 49 28 17 c21 13 32 32 44 76 9 33 20 66 23 75 3 9 -1 24 -10 33 -17 16 -25 18 -57 9z m29 -89 c-26 -92 -56 -113 -97 -70 -26 28 -21 53 11 58 13 2 29 17 40 37 40 75 70 59 46 -25z m-11 -309 c30 -51 31 -55 44 -85 5 -14 15 -33 22 -42 7 -9 9 -21 4 -25 -12 -12 -50 47 -50 80 -1 41 -28 57 -55 33 -28 -26 -28 -82 0 -112 21 -23 21 -23 2 -48 l-20 -25 -22 23 c-18 19 -22 33 -19 72 4 58 -35 77 -65 34 -14 -20 -37 -6 -37 22 0 2 27 23 59 47 33 23 62 49 65 58 11 27 49 10 72 -32z m-762 -737 c27 -38 20 -68 -28 -114 l-44 -42 -34 20 c-58 36 -51 73 26 129 47 35 60 36 80 7z m-336 -60 c35 -35 -49 -144 -98 -126 -37 12 -37 5 6 77 37 62 64 77 92 49z m141 -117 c29 -40 27 -92 -3 -120 -21 -20 -24 -20 -30 -5 -4 11 -14 15 -31 11 -20 -3 -30 2 -45 23 -26 36 -26 33 16 80 43 48 65 50 93 11z m-289 -152 c0 -52 -60 -143 -89 -134 l-20 6 20 52 c28 72 89 124 89 76z m133 -91 c36 -42 -16 -154 -67 -144 -65 13 -80 68 -39 149 17 33 75 30 106 -5z m-213 -113 c0 -34 -48 -95 -74 -95 -17 0 -3 48 21 72 24 25 53 37 53 23z m-60 -215 c12 -23 -40 -88 -60 -75 -17 10 -11 54 10 75 25 25 37 25 50 0z" fill="none" stroke="rgba(255,255,255,0.9)" stroke-width="48.00" stroke-linecap="round" stroke-linejoin="round"/>
  <path d="M3213 3367 c-69 -61 -99 -77 -142 -77 -45 0 -63 -19 -41 -45 16 -19 -34 -65 -70 -63 -24 1 -24 1 -2 5 18 4 23 10 20 31 -4 32 -46 43 -67 18 -13 -16 -6 -56 10 -56 5 0 1 -9 -8 -19 -16 -19 -16 -19 -33 1 -13 17 -23 20 -52 14 -68 -12 -74 -62 -13 -102 31 -20 101 6 91 33 -3 7 1 13 9 13 8 0 15 6 15 14 0 19 28 28 48 16 16 -9 16 -9 0 -10 -10 0 -18 -6 -18 -13 0 -22 -71 -107 -90 -107 -9 0 -27 -12 -41 -26 -35 -38 -209 -122 -291 -141 -65 -15 -77 -21 -148 -87 -59 -54 -107 -87 -201 -135 -368 -189 -441 -228 -514 -276 -44 -29 -127 -76 -184 -105 -304 -151 -482 -321 -626 -595 -134 -253 -162 -534 -73 -725 18 -39 22 -57 14 -62 -20 -13 -28 -9 -21 12 4 14 2 20 -8 20 -26 0 -41 30 -40 83 1 45 -4 58 -33 94 -20 24 -39 62 -46 92 -14 62 -32 68 -24 9 3 -24 6 -50 7 -58 1 -8 19 -34 40 -57 42 -45 45 -53 29 -69 -11 -11 10 -85 33 -114 32 -41 38 -60 18 -60 -11 0 -32 -11 -48 -24 l-27 -24 18 -57 c13 -41 15 -60 7 -68 -30 -30 8 -107 52 -107 22 0 42 49 27 64 -15 15 -12 29 5 22 35 -13 97 25 93 56 l-5 28 22 -20 c44 -42 122 -73 111 -45 -3 9 18 -1 48 -22 l53 -38 -25 -19 c-23 -18 -26 -18 -78 -2 -69 22 -77 36 -20 36 25 0 48 5 51 11 10 16 5 17 -58 11 -91 -7 -82 -48 18 -79 l70 -23 34 24 c42 30 97 10 66 -24 -67 -74 72 -157 159 -95 16 11 36 25 45 30 9 6 18 11 21 13 2 2 -2 7 -9 11 -10 6 -5 11 18 16 40 9 39 13 -8 54 -99 85 -2 301 134 301 52 0 125 -34 125 -59 0 -9 8 -28 17 -41 12 -17 18 -44 18 -82 0 -32 3 -58 6 -58 11 0 19 29 19 71 0 26 7 47 20 61 41 45 0 128 -63 128 l-31 0 21 22 22 21 51 -33 c91 -58 128 -134 63 -128 -34 3 -38 0 -46 -27 -26 -86 -41 -118 -68 -144 -35 -35 -39 -83 -9 -108 11 -10 20 -22 20 -28 1 -17 38 -60 46 -53 4 4 -1 19 -10 32 -9 14 -16 32 -16 40 0 9 -9 20 -20 26 -25 13 -26 46 -3 59 13 7 22 4 38 -13 11 -12 35 -28 53 -35 40 -17 40 -14 -7 -75 -105 -135 -312 -187 -561 -140 -113 22 -233 66 -199 74 32 8 51 136 23 157 -24 17 -104 28 -123 16 -20 -12 -26 -65 -12 -104 13 -36 6 -34 -101 48 -115 86 -248 267 -283 383 l-7 25 29 -27 c33 -31 74 -36 94 -12 7 9 23 20 36 25 27 10 29 34 9 105 -8 27 -17 61 -20 77 -5 23 -12 27 -40 27 -85 0 -133 -47 -124 -122 l6 -43 -18 40 c-10 22 -24 77 -31 122 -14 96 -35 115 -25 23 20 -171 107 -370 231 -525 102 -127 336 -271 478 -295 29 -5 72 -13 97 -19 147 -34 368 -3 479 68 210 135 218 467 14 587 -66 39 -110 48 -139 29 -25 -16 -33 -8 -12 13 6 6 10 13 7 16 -8 7 -134 -17 -149 -29 -8 -7 -20 -10 -27 -8 -42 15 -131 -56 -162 -131 -34 -83 -36 -89 -20 -84 6 2 23 33 38 68 26 61 102 129 146 129 16 1 -38 -38 -62 -45 -18 -5 -21 -11 -16 -34 5 -25 2 -29 -23 -32 -23 -2 -31 -11 -44 -44 -8 -22 -23 -49 -32 -58 -23 -23 -23 -33 3 -47 l21 -11 -21 -19 c-25 -23 -25 -21 -7 -64 14 -33 56 -52 56 -25 0 6 -5 10 -10 10 -22 0 -36 51 -17 61 22 13 22 55 1 67 -15 8 -15 10 0 15 9 4 16 13 16 22 0 34 30 74 57 77 23 2 28 8 28 31 1 20 9 32 30 43 16 8 41 28 55 44 32 37 95 47 95 15 0 -27 36 -31 59 -7 30 34 59 18 36 -21 -18 -29 -21 -30 -88 -28 -168 5 -301 -250 -174 -335 l27 -19 -45 -6 c-47 -7 -126 12 -145 35 -5 6 -58 46 -116 89 -408 295 -447 656 -125 1157 102 158 304 324 537 440 57 29 140 76 184 105 78 51 164 98 483 261 117 60 169 93 215 137 85 79 93 84 179 106 88 23 230 91 273 131 17 15 39 31 50 34 11 4 31 22 45 40 l25 34 5 -31 c5 -34 56 -45 83 -18 18 18 13 82 -6 96 -16 12 -13 17 34 58 68 60 98 75 108 58 6 -9 22 -12 45 -9 25 3 36 0 36 -9 0 -19 47 -16 54 3 11 29 6 36 -24 32 -24 -4 -30 -1 -30 14 0 13 -7 18 -26 18 -37 0 -17 23 36 40 43 14 46 20 30 51 -16 29 -55 23 -97 -14z m-88 -112 c-45 -39 -59 -44 -50 -16 4 14 0 21 -12 24 -10 3 3 5 29 6 26 0 50 6 53 11 3 6 9 10 13 10 4 -1 -11 -16 -33 -35z m-261 -117 c29 -41 -15 -65 -50 -27 -18 20 -18 21 1 35 25 19 31 18 49 -8z m176 -48 c8 -16 6 -24 -10 -40 -35 -35 -58 4 -23 42 20 22 20 22 33 -2z m-2379 -2105 c23 -86 23 -84 2 -92 -10 -3 -28 -15 -41 -26 l-22 -21 -30 29 c-60 58 -60 138 0 171 52 29 71 16 91 -61z m273 -252 c33 -35 54 -63 46 -63 -24 0 -180 166 -168 178 7 7 18 1 36 -21 14 -18 53 -60 86 -94z m794 37 c-16 -24 -34 -10 -47 37 -13 44 -1 50 31 14 24 -27 26 -34 16 -51z m-909 -31 c29 -33 52 -62 50 -63 -74 -63 -196 35 -132 106 22 25 22 25 82 -43z m1026 -19 c13 -22 17 -148 6 -183 l-12 -36 -35 16 c-36 18 -39 24 -25 51 5 9 12 25 15 35 3 10 15 17 31 17 30 0 33 16 4 23 -31 8 -46 -1 -58 -36 -7 -19 -15 -27 -21 -21 -6 6 -4 24 5 49 8 22 14 49 15 61 0 33 58 52 75 24z m-841 -214 c33 -14 34 -15 28 -63 -6 -57 -16 -66 -53 -47 -96 49 -72 151 25 110z m335 -21 l25 6 -19 -21 c-60 -67 -193 -47 -156 24 l13 24 56 -20 c33 -12 66 -17 81 -13z" fill="none" stroke="rgba(255,255,255,0.9)" stroke-width="48.00" stroke-linecap="round" stroke-linejoin="round"/>
  <path d="M3355 3370 c-3 -11 -15 -25 -26 -31 -27 -14 -22 -53 8 -57 14 -2 26 4 33 17 6 12 19 21 30 21 21 0 37 40 25 59 -12 20 -63 13 -70 -9z" fill="none" stroke="rgba(255,255,255,0.9)" stroke-width="48.00" stroke-linecap="round" stroke-linejoin="round"/>
  <path d="M2965 3360 c-9 -28 12 -60 39 -60 26 0 38 26 29 60 -7 28 -59 28 -68 0z" fill="none" stroke="rgba(255,255,255,0.9)" stroke-width="48.00" stroke-linecap="round" stroke-linejoin="round"/>
  <path d="M2387 3352 c-34 -38 -18 -92 29 -95 36 -3 69 68 45 97 -18 21 -54 20 -74 -2z m51 -48 c-13 -28 -33 -31 -42 -8 -9 24 23 57 40 43 10 -8 10 -16 2 -35z" fill="none" stroke="rgba(255,255,255,0.9)" stroke-width="48.00" stroke-linecap="round" stroke-linejoin="round"/>
  <path d="M2863 3362 c-21 -13 -25 -58 -9 -91 20 -37 39 -39 71 -6 57 56 4 139 -62 97z m62 -33 c11 -35 -29 -70 -50 -44 -18 25 -18 30 1 49 22 22 41 20 49 -5z" fill="none" stroke="rgba(255,255,255,0.9)" stroke-width="48.00" stroke-linecap="round" stroke-linejoin="round"/>
  <path d="M2230 3325 c-28 -34 -25 -113 4 -126 34 -16 46 -5 57 57 14 76 -22 116 -61 69z m41 -60 c-7 -44 -34 -56 -39 -17 -4 27 26 78 38 66 4 -5 5 -27 1 -49z" fill="none" stroke="rgba(255,255,255,0.9)" stroke-width="48.00" stroke-linecap="round" stroke-linejoin="round"/>
  <path d="M2767 3262 c-33 -37 -18 -95 22 -86 36 9 48 20 54 52 10 49 -42 72 -76 34z m53 -26 c0 -22 -29 -41 -42 -28 -9 9 -7 17 7 32 18 20 35 18 35 -4z" fill="none" stroke="rgba(255,255,255,0.9)" stroke-width="48.00" stroke-linecap="round" stroke-linejoin="round"/>
  <path d="M2667 3264 c-17 -18 -6 -55 20 -65 33 -12 46 -1 41 37 -3 29 -42 46 -61 28z" fill="none" stroke="rgba(255,255,255,0.9)" stroke-width="48.00" stroke-linecap="round" stroke-linejoin="round"/>
  <path d="M2104 3216 c-12 -48 -2 -71 33 -74 36 -4 49 19 38 68 -9 40 -61 44 -71 6z m51 -17 c9 -26 -10 -48 -26 -32 -12 12 -3 53 11 53 5 0 12 -9 15 -21z" fill="none" stroke="rgba(255,255,255,0.9)" stroke-width="48.00" stroke-linecap="round" stroke-linejoin="round"/>
  <path d="M2484 3226 c-13 -33 0 -51 39 -54 33 -3 37 -1 37 20 0 43 -62 70 -76 34z" fill="none" stroke="rgba(255,255,255,0.9)" stroke-width="48.00" stroke-linecap="round" stroke-linejoin="round"/>
  <path d="M2330 3210 c-23 -42 19 -92 59 -70 46 24 32 90 -19 90 -19 0 -33 -7 -40 -20z m59 -14 c17 -20 -13 -43 -34 -26 -15 12 -5 40 15 40 4 0 13 -6 19 -14z" fill="none" stroke="rgba(255,255,255,0.9)" stroke-width="48.00" stroke-linecap="round" stroke-linejoin="round"/>
  <path d="M3127 3188 c-10 -36 10 -60 46 -56 27 2 32 7 34 30 3 46 -69 69 -80 26z" fill="none" stroke="rgba(255,255,255,0.9)" stroke-width="48.00" stroke-linecap="round" stroke-linejoin="round"/>
  <path d="M2596 3191 c-14 -22 6 -61 31 -61 21 0 24 4 21 33 -3 32 -38 51 -52 28z" fill="none" stroke="rgba(255,255,255,0.9)" stroke-width="48.00" stroke-linecap="round" stroke-linejoin="round"/>
  <path d="M2002 3131 c-29 -18 -11 -86 23 -86 33 0 38 25 13 73 -13 24 -17 26 -36 13z" fill="none" stroke="rgba(255,255,255,0.9)" stroke-width="48.00" stroke-linecap="round" stroke-linejoin="round"/>
  <path d="M2538 3123 c-19 -5 -32 -40 -26 -70 6 -33 84 -31 92 2 7 29 0 65 -14 65 -5 0 -14 2 -22 4 -7 2 -21 2 -30 -1z m45 -35 c7 -21 -4 -38 -23 -38 -23 0 -32 13 -24 34 7 19 40 21 47 4z" fill="none" stroke="rgba(255,255,255,0.9)" stroke-width="48.00" stroke-linecap="round" stroke-linejoin="round"/>
  <path d="M2146 3102 c-12 -20 7 -52 31 -52 21 0 24 4 21 28 -3 27 -39 44 -52 24z" fill="none" stroke="rgba(255,255,255,0.9)" stroke-width="48.00" stroke-linecap="round" stroke-linejoin="round"/>
  <path d="M2312 3078 c-40 -40 5 -113 65 -106 32 3 45 58 23 98 -12 23 -68 28 -88 8z m72 -41 c14 -39 -5 -55 -38 -33 -28 18 -33 35 -14 54 19 19 41 10 52 -21z" fill="none" stroke="rgba(255,255,255,0.9)" stroke-width="48.00" stroke-linecap="round" stroke-linejoin="round"/>
  <path d="M2707 3072 c-25 -28 -21 -32 29 -32 41 0 45 2 42 23 -4 29 -48 35 -71 9z" fill="none" stroke="rgba(255,255,255,0.9)" stroke-width="48.00" stroke-linecap="round" stroke-linejoin="round"/>
  <path d="M3114 3055 c-4 -8 -3 -22 0 -31 8 -21 50 -14 54 10 6 31 -43 50 -54 21z" fill="none" stroke="rgba(255,255,255,0.9)" stroke-width="48.00" stroke-linecap="round" stroke-linejoin="round"/>
  <path d="M2627 3044 c-4 -4 -7 -14 -7 -22 0 -9 -7 -24 -17 -34 -23 -26 -3 -71 30 -66 29 4 36 47 11 65 -16 12 -14 13 15 13 28 0 32 3 29 23 -3 22 -45 37 -61 21z" fill="none" stroke="rgba(255,255,255,0.9)" stroke-width="48.00" stroke-linecap="round" stroke-linejoin="round"/>
  <path d="M2190 3003 c0 -37 16 -53 53 -53 50 0 36 74 -15 78 -36 3 -38 2 -38 -25z" fill="none" stroke="rgba(255,255,255,0.9)" stroke-width="48.00" stroke-linecap="round" stroke-linejoin="round"/>
  <path d="M3162 2958 c-17 -17 -15 -55 3 -65 41 -23 -64 -147 -150 -178 -61 -22 -78 -34 -71 -52 10 -24 -6 -43 -34 -43 -28 0 -100 -35 -100 -48 1 -12 25 -39 40 -44 15 -6 -82 -58 -107 -58 -7 0 -13 -4 -13 -9 0 -12 -47 -25 -90 -26 -44 0 -52 -31 -16 -58 25 -17 98 -13 174 9 18 5 21 3 16 -10 -11 -29 21 -18 64 22 39 36 57 82 32 82 -5 0 -10 -4 -10 -8 0 -12 -39 -9 -44 4 -2 6 9 19 25 28 16 9 29 23 29 30 0 7 11 18 25 24 14 6 25 16 25 22 0 12 5 13 -54 -5 -66 -20 -77 -19 -39 4 22 14 45 19 77 16 47 -3 65 15 30 29 -9 4 -14 9 -11 13 4 3 13 0 21 -6 12 -10 20 -8 43 13 31 29 26 45 -9 22 -15 -10 -28 -12 -38 -6 -14 9 63 50 94 50 20 0 96 84 105 116 4 17 18 34 34 42 26 13 40 73 20 85 -23 13 -61 15 -71 5z m56 -41 c2 -10 -3 -17 -11 -17 -18 0 -39 24 -30 34 12 12 38 2 41 -17z" fill="none" stroke="rgba(255,255,255,0.9)" stroke-width="48.00" stroke-linecap="round" stroke-linejoin="round"/>
  <path d="M2874 2952 c-25 -16 -26 -62 -2 -72 13 -5 17 -9 11 -9 -18 -1 -16 -57 3 -75 16 -17 51 -21 70 -8 38 26 20 92 -26 92 -27 0 -29 2 -21 18 20 37 -5 75 -35 54z m74 -116 c4 -21 -14 -37 -34 -29 -19 7 -26 35 -12 45 20 12 42 5 46 -16z" fill="none" stroke="rgba(255,255,255,0.9)" stroke-width="48.00" stroke-linecap="round" stroke-linejoin="round"/>
  <path d="M2483 2943 c-13 -2 -23 -9 -23 -15 0 -6 -12 -8 -29 -5 -17 4 -36 0 -47 -8 -27 -20 -51 -18 -74 5 -29 29 -53 25 -32 -6 20 -31 182 -60 182 -32 0 9 17 13 62 13 61 0 63 1 63 25 0 26 -42 35 -102 23z" fill="none" stroke="rgba(255,255,255,0.9)" stroke-width="48.00" stroke-linecap="round" stroke-linejoin="round"/>
  <path d="M2791 2876 c-17 -35 -31 -68 -31 -74 0 -5 -7 -12 -15 -16 -8 -3 -20 -18 -26 -33 -26 -62 -55 -113 -64 -113 -6 0 -30 -33 -52 -73 -50 -88 -61 -151 -42 -239 l14 -62 115 -53 c63 -30 130 -62 148 -71 39 -19 140 -130 200 -219 56 -83 84 -103 141 -103 73 0 90 49 37 110 -41 47 -112 198 -99 211 35 35 161 29 237 -10 26 -14 57 -20 90 -20 77 2 124 -21 128 -63 3 -28 7 -33 31 -36 45 -5 57 13 57 83 0 73 -19 96 -94 116 -22 6 -59 15 -81 21 -32 8 -228 93 -245 105 -9 8 27 22 95 38 38 10 94 24 122 33 61 18 91 1 115 -65 16 -44 75 -45 95 -3 15 33 3 94 -20 98 -18 4 -23 -13 -7 -23 14 -9 13 -58 -2 -73 -20 -20 -35 -14 -47 20 -25 70 -72 93 -138 67 -15 -6 -64 -19 -108 -29 -168 -38 -175 -56 -48 -115 48 -22 107 -50 132 -62 25 -13 61 -23 79 -23 80 0 131 -42 132 -106 0 -70 -44 -86 -52 -19 -4 36 -49 55 -138 59 -30 2 -70 10 -88 20 -50 26 -132 38 -196 28 -31 -5 -56 -5 -56 0 0 4 11 8 25 8 14 0 25 5 25 11 0 7 -13 10 -34 7 -25 -3 -37 1 -45 15 -12 18 -60 41 -68 33 -3 -3 15 -25 40 -49 30 -28 42 -48 36 -54 -17 -17 64 -198 112 -249 27 -29 21 -58 -13 -62 -45 -5 -85 25 -137 102 -74 110 -156 202 -193 218 -18 7 -84 38 -148 69 l-116 56 -13 52 c-8 33 -10 70 -6 99 8 53 86 196 93 172 10 -31 47 -33 114 -8 63 24 34 108 -37 108 -18 0 -19 19 -1 43 17 22 26 22 26 -3 0 -15 7 -20 25 -20 45 0 63 77 23 104 l-21 15 26 40 c31 46 32 51 13 51 -7 0 -27 -29 -45 -64z m25 -81 c4 -8 0 -22 -7 -31 -14 -17 -36 17 -23 37 8 14 24 11 30 -6z m-46 -120 c36 -19 36 -19 8 -45 -23 -21 -88 -28 -88 -10 0 52 37 77 80 55z" fill="none" stroke="rgba(255,255,255,0.9)" stroke-width="48.00" stroke-linecap="round" stroke-linejoin="round"/>
  <path d="M3021 2886 c-7 -8 -11 -30 -9 -48 5 -54 98 -39 98 16 0 43 -62 65 -89 32z m58 -20 c10 -11 7 -17 -10 -30 -34 -23 -56 3 -27 32 16 16 23 15 37 -2z" fill="none" stroke="rgba(255,255,255,0.9)" stroke-width="48.00" stroke-linecap="round" stroke-linejoin="round"/>
  <path d="M1641 2757 c-18 -6 -49 -25 -68 -43 -19 -18 -50 -45 -69 -59 -42 -32 -44 -59 -4 -80 16 -8 32 -26 36 -39 10 -41 84 -35 84 6 0 9 3 9 12 0 17 -17 55 -15 66 5 5 9 25 21 43 27 33 11 34 12 37 72 5 103 -42 141 -137 111z m93 -38 c45 -53 32 -129 -21 -129 -13 0 -26 -7 -29 -15 -5 -12 -15 -14 -41 -9 -28 5 -37 3 -49 -15 -20 -28 -30 -27 -42 8 -6 16 -20 32 -31 36 -29 9 -26 20 12 47 17 12 40 32 49 44 18 22 93 64 115 64 6 0 23 -14 37 -31z" fill="none" stroke="rgba(255,255,255,0.9)" stroke-width="48.00" stroke-linecap="round" stroke-linejoin="round"/>
  <path d="M2647 2543 c-25 -24 -6 -73 28 -73 29 0 35 4 35 21 0 44 -39 76 -63 52z" fill="none" stroke="rgba(255,255,255,0.9)" stroke-width="48.00" stroke-linecap="round" stroke-linejoin="round"/>
  <path d="M1304 2475 c-98 -63 -111 -114 -39 -146 53 -23 82 -18 121 22 15 16 35 29 44 29 50 0 51 45 2 93 -46 45 -63 45 -128 2z m136 -57 c0 -5 -12 -13 -27 -19 -14 -5 -41 -23 -60 -39 l-34 -30 -39 20 c-55 28 -44 50 55 113 l40 25 33 -31 c17 -17 32 -35 32 -39z" fill="none" stroke="rgba(255,255,255,0.9)" stroke-width="48.00" stroke-linecap="round" stroke-linejoin="round"/>
  <path d="M3007 2390 c-7 -28 0 -47 20 -54 21 -8 25 -4 26 36 2 40 -36 55 -46 18z" fill="none" stroke="rgba(255,255,255,0.9)" stroke-width="48.00" stroke-linecap="round" stroke-linejoin="round"/>
  <path d="M799 1668 c-20 -24 -41 -52 -47 -63 -27 -48 -27 -48 -60 -31 -71 37 -88 23 -98 -78 l-7 -65 37 -15 c30 -13 36 -19 31 -36 -3 -11 -2 -27 3 -36 6 -12 5 -28 -4 -50 -12 -29 -12 -38 1 -69 8 -19 22 -51 30 -70 8 -19 19 -35 25 -35 12 0 13 27 1 34 -22 14 -44 116 -31 142 9 16 17 21 24 14 5 -5 16 -10 23 -10 23 0 14 20 -18 39 l-31 19 29 15 c33 17 67 137 45 159 -12 12 3 42 47 93 25 29 51 70 51 80 0 15 -20 0 -51 -37z m-126 -112 c57 -24 68 -44 53 -101 -11 -45 -46 -79 -46 -45 0 6 -16 18 -36 26 l-36 15 7 52 c10 75 9 74 58 53z" fill="none" stroke="rgba(255,255,255,0.9)" stroke-width="48.00" stroke-linecap="round" stroke-linejoin="round"/>
  <path d="M490 1331 c-80 -42 -74 -201 6 -201 103 0 143 64 118 189 -8 38 -65 44 -124 12z m104 -23 c19 -74 -2 -129 -56 -146 -56 -18 -102 37 -83 97 17 55 127 93 139 49z" fill="none" stroke="rgba(255,255,255,0.9)" stroke-width="48.00" stroke-linecap="round" stroke-linejoin="round"/>
  <path d="M1717 1254 c-34 -31 -31 -48 9 -52 16 -2 43 -15 61 -28 37 -28 43 -29 43 -9 0 19 -58 55 -89 55 -23 0 -24 1 -6 20 10 11 29 20 42 20 28 0 109 -70 93 -80 -6 -4 -14 -25 -17 -47 -5 -37 -63 -96 -63 -64 0 6 -4 11 -10 11 -13 0 -13 -27 1 -36 26 -16 89 28 89 62 0 18 7 39 15 48 66 66 -99 164 -168 100z" fill="none" stroke="rgba(255,255,255,0.9)" stroke-width="48.00" stroke-linecap="round" stroke-linejoin="round"/>
  <path d="M1502 829 c6 -17 108 -26 108 -10 0 6 -18 11 -39 11 -22 0 -47 3 -57 7 -12 4 -15 2 -12 -8z" fill="none" stroke="rgba(255,255,255,0.9)" stroke-width="48.00" stroke-linecap="round" stroke-linejoin="round"/>
  <path d="M1610 535 c-14 -8 -33 -14 -42 -15 -25 0 -22 -20 2 -20 26 0 80 27 80 40 0 13 -10 12 -40 -5z" fill="none" stroke="rgba(255,255,255,0.9)" stroke-width="48.00" stroke-linecap="round" stroke-linejoin="round"/>
  <path d="M1431 486 c-34 -41 -10 -71 54 -69 l60 2 -44 -17 c-53 -20 -59 -33 -29 -62 l23 -21 -80 3 c-78 3 -80 4 -83 30 -3 29 -11 32 -114 44 -63 7 -69 0 -52 -63 10 -38 27 -27 20 12 l-7 35 43 -5 c83 -12 88 -14 88 -40 0 -13 -4 -27 -10 -30 -15 -9 -12 -25 5 -25 8 0 15 5 15 10 0 14 74 12 88 -2 9 -9 15 -10 20 -2 6 9 86 24 141 27 14 0 32 16 59 49 21 26 -4 58 -46 58 -31 0 -32 1 -21 22 24 45 -96 85 -130 44z m98 -20 c14 -17 8 -21 -41 -30 -39 -7 -52 2 -42 28 8 20 67 21 83 2z m74 -80 c12 -31 -51 -56 -91 -38 l-34 17 38 17 c48 21 80 23 87 4z" fill="none" stroke="rgba(255,255,255,0.9)" stroke-width="48.00" stroke-linecap="round" stroke-linejoin="round"/>
  </g>
</svg>