<svg xmlns="http://www.w3.org/2000/svg" viewBox="0 0 100 100">
  <g transform="translate(0,100) scale(0.030581,-0.030581)">
  <path d="M1280 2200 c-31 -4 -74 -16 -95 -27 -22 -11 -71 -35 -110 -54 -38 -18 -84 -43 -101 -56 -17 -13 -35 -23 -40 -23 -14 -1 -104 -87 -104 -99 0 -20 17 -11 67 33 27 24 64 53 83 64 86 51 168 91 174 85 3 -4 16 3 29 14 55 50 184 65 234 28 37 -29 43 -30 43 -10 0 22 -59 55 -95 54 -16 -1 -55 -5 -85 -9z" fill="none" stroke="rgba(255,255,255,0.9)" stroke-width="19.62" stroke-linecap="round" stroke-linejoin="round"/>
  <path d="M2116 2179 c-14 -11 -26 -27 -26 -34 0 -16 -35 -29 -51 -20 -6 5 -4 12 8 20 25 19 8 31 -23 16 -15 -6 -31 -8 -38 -3 -26 20 -58 12 -52 -12 5 -21 -1 -26 -49 -47 -36 -16 -55 -30 -55 -41 0 -22 7 -23 27 -2 12 12 18 13 23 3 5 -6 17 -9 29 -6 12 3 21 1 21 -4 0 -17 40 -9 57 11 10 11 23 20 30 20 7 0 13 4 13 9 0 4 11 6 24 4 13 -3 27 0 30 6 4 6 18 11 32 11 15 0 24 6 24 16 0 10 -6 14 -14 11 -25 -10 -7 19 20 31 26 12 33 32 10 32 -7 0 -25 -9 -40 -21z" fill="none" stroke="rgba(255,255,255,0.9)" stroke-width="19.62" stroke-linecap="round" stroke-linejoin="round"/>
  <path d="M1602 2078 c-14 -14 -16 -58 -3 -58 5 0 16 -3 24 -6 21 -8 31 30 15 55 -15 24 -20 25 -36 9z" fill="none" stroke="rgba(255,255,255,0.9)" stroke-width="19.62" stroke-linecap="round" stroke-linejoin="round"/>
  <path d="M1060 2030 c0 -6 -5 -8 -10 -5 -30 18 -53 -59 -34 -109 8 -20 24 -21 24 -1 0 8 6 15 13 15 14 0 67 51 67 64 0 5 -6 6 -14 3 -10 -4 -16 2 -18 15 -3 22 -28 38 -28 18z m10 -43 c0 -14 -20 -37 -32 -37 -10 0 -11 34 -1 43 11 12 33 8 33 -6z" fill="none" stroke="rgba(255,255,255,0.9)" stroke-width="19.62" stroke-linecap="round" stroke-linejoin="round"/>
  <path d="M1981 2031 c-7 -5 -11 -17 -7 -27 6 -21 -17 -36 -101 -68 l-43 -16 0 25 c0 14 -4 25 -10 25 -5 0 -10 -9 -10 -19 0 -11 -3 -26 -6 -34 -12 -33 62 -21 148 23 17 9 28 -5 28 -36 0 -19 -40 -64 -57 -64 -7 0 -13 -6 -13 -13 0 -8 -11 -24 -25 -37 -15 -14 -23 -30 -20 -40 5 -12 4 -13 -6 -2 -10 9 -10 15 -1 24 23 23 11 37 -17 19 -17 -11 -26 -107 -11 -116 6 -3 10 -15 10 -26 0 -23 9 -24 38 -3 26 18 30 39 5 30 -15 -6 -32 8 -33 26 0 4 14 15 32 24 17 9 42 27 56 39 l25 23 24 -29 c24 -28 26 -68 3 -54 -6 4 -25 -7 -42 -24 -17 -17 -40 -33 -50 -37 -10 -3 -18 -12 -18 -20 0 -18 5 -18 38 2 22 13 20 10 -8 -15 -24 -22 -42 -30 -56 -27 -11 3 -30 -1 -41 -9 -31 -21 -73 -4 -73 29 0 31 -9 56 -21 56 -11 0 0 -91 12 -104 14 -15 10 -52 -6 -66 -22 -19 -18 -33 8 -26 30 7 53 -54 29 -77 -17 -17 -1 -57 23 -57 46 0 139 34 230 84 17 9 39 16 50 16 42 0 96 22 183 75 54 32 97 52 107 49 10 -4 15 0 15 10 0 32 -38 20 -151 -49 -61 -37 -102 -55 -152 -64 -31 -6 -67 -15 -80 -21 l-22 -11 23 20 c12 11 28 21 35 24 9 4 9 7 0 18 -10 10 -20 7 -50 -18 -48 -38 -96 -63 -123 -63 -31 0 -24 -20 8 -21 22 0 19 -3 -17 -14 -54 -17 -66 -12 -45 20 15 22 15 26 0 40 -9 9 -16 22 -16 30 0 7 -2 20 -5 27 -8 21 51 78 81 78 31 0 60 14 99 49 17 15 49 36 72 47 24 10 43 22 43 27 0 10 -38 9 -44 -2 -8 -12 -46 -21 -46 -10 0 5 6 9 13 9 56 0 115 69 81 95 -18 14 -18 14 8 15 31 0 33 3 43 49 6 30 5 33 -11 27 -18 -6 -18 -5 0 9 14 10 22 12 27 4 4 -6 16 -8 28 -4 14 4 23 1 27 -9 7 -18 24 -21 24 -5 0 16 31 38 53 39 9 0 17 4 17 9 0 13 -54 21 -61 9 -11 -17 -79 -28 -79 -12 0 17 -12 18 -28 2 -6 -6 -14 -9 -18 -6 -3 4 8 14 25 23 17 8 31 20 31 25 0 13 -27 13 -35 0 -10 -16 -25 -12 -18 6 4 12 0 14 -19 9 -21 -6 -25 -2 -34 32 -9 40 -41 55 -73 34z m113 -211 c-5 -4 -20 -10 -34 -12 -15 -2 -25 -9 -25 -20 0 -28 -11 -29 -35 -3 l-23 25 21 0 c24 0 33 49 10 51 -7 0 3 6 22 12 36 13 88 -30 64 -53z" fill="none" stroke="rgba(255,255,255,0.9)" stroke-width="19.62" stroke-linecap="round" stroke-linejoin="round"/>
  <path d="M2703 1970 c-40 -16 -22 -39 30 -41 17 0 18 -2 6 -7 -20 -9 -79 -64 -79 -74 0 -17 28 -7 51 18 13 14 39 32 57 39 17 8 32 19 32 24 0 6 -15 15 -32 20 -18 5 -27 10 -20 10 6 1 12 6 12 11 0 12 -27 12 -57 0z" fill="none" stroke="rgba(255,255,255,0.9)" stroke-width="19.62" stroke-linecap="round" stroke-linejoin="round"/>
  <path d="M857 1882 c-19 -20 -22 -42 -8 -42 6 0 17 10 25 21 15 21 16 20 40 -35 15 -33 31 -56 40 -56 21 0 20 10 -4 40 -11 14 -20 32 -20 40 -2 44 -45 63 -73 32z" fill="none" stroke="rgba(255,255,255,0.9)" stroke-width="19.62" stroke-linecap="round" stroke-linejoin="round"/>
  <path d="M3035 1810 c-11 -5 -48 -9 -83 -9 -35 -1 -75 -7 -90 -15 -15 -7 -48 -17 -74 -20 -27 -4 -48 -11 -48 -16 0 -4 -12 -11 -27 -15 -39 -9 -102 -39 -103 -47 0 -13 44 -9 65 6 11 7 35 17 53 21 17 3 32 10 32 15 0 5 21 12 48 16 26 3 59 13 74 20 15 8 52 14 82 14 59 0 106 13 106 30 0 12 -8 12 -35 0z" fill="none" stroke="rgba(255,255,255,0.9)" stroke-width="19.62" stroke-linecap="round" stroke-linejoin="round"/>
  <path d="M2325 1796 c-122 -49 -200 -91 -200 -107 0 -23 57 -30 85 -11 14 9 46 27 73 40 45 22 61 42 35 42 -7 1 2 7 20 15 54 24 43 44 -13 21z" fill="none" stroke="rgba(255,255,255,0.9)" stroke-width="19.62" stroke-linecap="round" stroke-linejoin="round"/>
  <path d="M550 1730 c0 -5 14 -10 31 -10 17 0 39 -5 49 -10 36 -19 90 -180 61 -180 -6 0 -11 -7 -11 -16 0 -11 5 -14 16 -10 9 3 18 6 20 6 26 0 -25 185 -59 212 -24 19 -107 25 -107 8z" fill="none" stroke="rgba(255,255,255,0.9)" stroke-width="19.62" stroke-linecap="round" stroke-linejoin="round"/>
  <path d="M1000 1719 c0 -6 7 -17 16 -26 8 -9 13 -22 10 -30 -3 -8 -6 -25 -6 -38 0 -33 -28 -58 -56 -51 -26 7 -32 -5 -11 -23 30 -24 75 8 87 62 14 66 13 81 -8 100 -21 20 -32 22 -32 6z" fill="none" stroke="rgba(255,255,255,0.9)" stroke-width="19.62" stroke-linecap="round" stroke-linejoin="round"/>
  <path d="M1949 1555 c-23 -20 -50 -40 -60 -46 -11 -5 -19 -14 -19 -19 0 -20 29 -9 72 25 24 19 53 40 66 47 27 14 29 28 3 28 -11 0 -38 -16 -62 -35z" fill="none" stroke="rgba(255,255,255,0.9)" stroke-width="19.62" stroke-linecap="round" stroke-linejoin="round"/>
  <path d="M2845 1546 c-88 -30 -137 -58 -123 -72 3 -2 28 7 56 21 29 14 58 25 64 24 7 0 3 -4 -9 -9 -13 -5 -23 -14 -23 -20 0 -5 -11 -10 -24 -10 -14 0 -27 -4 -31 -9 -3 -5 -34 -19 -70 -31 -42 -14 -65 -27 -65 -37 0 -11 5 -13 18 -8 9 4 44 18 77 30 33 12 67 25 76 29 14 6 17 0 20 -37 l4 -45 -48 -12 c-34 -9 -47 -16 -43 -26 3 -8 1 -14 -4 -14 -6 0 -10 -5 -10 -11 0 -26 152 7 228 49 27 16 29 36 3 29 -14 -3 -18 -1 -14 9 7 18 1 18 -42 -3 -42 -20 -48 -15 -51 42 -3 45 -3 45 46 68 49 22 63 37 35 37 -8 0 -15 5 -15 10 0 12 -5 12 -55 -4z m-1 -200 c-37 -17 -102 -31 -92 -21 10 11 81 34 103 34 15 0 12 -3 -11 -13z" fill="none" stroke="rgba(255,255,255,0.9)" stroke-width="19.62" stroke-linecap="round" stroke-linejoin="round"/>
  <path d="M2250 1484 c-68 -37 -100 -61 -100 -76 0 -15 27 -8 44 11 22 24 57 35 49 15 -8 -20 15 -17 48 7 22 15 27 17 23 5 -8 -22 3 -20 54 6 48 26 51 33 21 49 -16 8 -28 8 -45 0 -19 -8 -22 -7 -17 4 8 21 -4 18 -77 -21z" fill="none" stroke="rgba(255,255,255,0.9)" stroke-width="19.62" stroke-linecap="round" stroke-linejoin="round"/>
  <path d="M3254 1423 c-16 -49 -63 -131 -91 -161 -39 -41 -39 -42 -13 -42 31 0 107 116 125 193 8 30 -12 39 -21 10z" fill="none" stroke="rgba(255,255,255,0.9)" stroke-width="19.62" stroke-linecap="round" stroke-linejoin="round"/>
  <path d="M2353 1392 c-5 -22 -43 -38 -105 -47 -43 -6 -48 -10 -48 -32 0 -24 2 -25 59 -21 61 3 94 -11 84 -38 -4 -11 2 -13 28 -7 62 11 173 51 177 62 5 15 -6 14 -73 -9 -40 -14 -62 -17 -69 -10 -15 15 -29 12 -22 -5 8 -21 1 -19 -29 11 -22 22 -31 25 -67 19 -29 -5 -39 -4 -34 4 4 6 20 11 35 11 34 0 81 21 81 37 0 6 3 18 6 27 4 9 1 16 -6 16 -6 0 -14 -8 -17 -18z" fill="none" stroke="rgba(255,255,255,0.9)" stroke-width="19.62" stroke-linecap="round" stroke-linejoin="round"/>
  <path d="M3277 1383 c-4 -3 -7 -16 -7 -27 0 -56 -162 -231 -204 -220 -27 7 -76 -11 -76 -28 0 -12 34 -10 49 5 10 8 12 8 7 0 -10 -18 -115 -73 -166 -87 -251 -71 -340 -87 -499 -87 -96 0 -150 5 -216 20 -83 20 -117 21 -86 2 74 -46 372 -57 551 -20 150 30 172 35 204 48 16 6 47 16 70 21 116 26 321 187 376 296 25 48 22 103 -3 77z" fill="none" stroke="rgba(255,255,255,0.9)" stroke-width="19.62" stroke-linecap="round" stroke-linejoin="round"/>
  <path d="M2393 1343 c-25 -10 -12 -23 22 -23 19 0 35 5 35 10 0 6 -4 10 -9 10 -5 0 -15 2 -23 4 -7 3 -19 2 -25 -1z" fill="none" stroke="rgba(255,255,255,0.9)" stroke-width="19.62" stroke-linecap="round" stroke-linejoin="round"/>
  <path d="M2991 1330 c-24 -11 -50 -20 -59 -20 -24 0 -152 -52 -152 -62 0 -12 14 -10 77 14 32 12 64 21 71 20 18 -4 122 46 122 58 0 14 -9 12 -59 -10z" fill="none" stroke="rgba(255,255,255,0.9)" stroke-width="19.62" stroke-linecap="round" stroke-linejoin="round"/>
  <path d="M3290 1312 c0 -21 197 -91 495 -175 50 -14 98 -29 108 -32 11 -5 17 -2 17 8 0 10 -35 24 -117 46 -106 28 -441 135 -485 155 -11 5 -18 4 -18 -2z" fill="none" stroke="rgba(255,255,255,0.9)" stroke-width="19.62" stroke-linecap="round" stroke-linejoin="round"/>
  <path d="M2991 1290 c-14 -12 -38 -20 -61 -20 -31 0 -45 -7 -71 -35 -19 -20 -43 -35 -56 -35 -13 0 -23 -4 -23 -10 0 -26 64 -9 97 25 25 26 43 35 66 35 18 0 47 9 65 20 18 11 39 20 47 20 8 0 15 5 15 10 0 17 -54 10 -79 -10z" fill="none" stroke="rgba(255,255,255,0.9)" stroke-width="19.62" stroke-linecap="round" stroke-linejoin="round"/>
  <path d="M3241 1214 c-23 -29 -29 -88 -8 -81 11 3 13 8 16 47 1 10 11 16 29 15 20 0 27 5 27 20 0 31 -39 31 -64 -1z" fill="none" stroke="rgba(255,255,255,0.9)" stroke-width="19.62" stroke-linecap="round" stroke-linejoin="round"/>
  <path d="M3350 1090 c0 -5 19 -10 43 -11 23 0 76 -7 117 -15 41 -8 118 -21 170 -29 52 -9 107 -20 123 -25 81 -27 197 -24 197 6 0 12 -5 14 -17 8 -24 -12 -123 -9 -164 5 -19 5 -77 17 -129 25 -52 9 -129 22 -170 30 -88 17 -170 20 -170 6z" fill="none" stroke="rgba(255,255,255,0.9)" stroke-width="19.62" stroke-linecap="round" stroke-linejoin="round"/>
  <path d="M1584 986 c-9 -23 0 -51 16 -53 23 -4 61 33 54 51 -8 20 -63 21 -70 2z" fill="none" stroke="rgba(255,255,255,0.9)" stroke-width="19.62" stroke-linecap="round" stroke-linejoin="round"/>
  <path d="M2895 893 c-10 -15 -26 -35 -36 -43 -13 -10 -17 -22 -13 -37 8 -28 24 -30 24 -4 0 22 16 36 24 22 18 -28 111 -20 103 10 -3 10 -1 19 4 21 5 2 10 14 11 28 5 41 -91 43 -117 3z" fill="none" stroke="rgba(255,255,255,0.9)" stroke-width="19.62" stroke-linecap="round" stroke-linejoin="round"/>
  <path d="M3020 866 c0 -30 9 -37 38 -29 37 9 30 53 -8 53 -25 0 -30 -4 -30 -24z" fill="none" stroke="rgba(255,255,255,0.9)" stroke-width="19.62" stroke-linecap="round" stroke-linejoin="round"/>
  <path d="M2973 800 c-32 -13 -28 -42 8 -62 62 -36 91 -10 53 47 -17 27 -26 29 -61 15z" fill="none" stroke="rgba(255,255,255,0.9)" stroke-width="19.62" stroke-linecap="round" stroke-linejoin="round"/>
  <path d="M3136 715 c-22 -13 -57 -27 -78 -30 -21 -4 -40 -11 -44 -16 -7 -12 -62 -11 -66 1 -4 12 -68 -9 -68 -22 0 -18 131 -11 168 8 15 8 33 14 41 14 26 0 101 42 101 56 0 19 -8 17 -54 -11z" fill="none" stroke="rgba(255,255,255,0.9)" stroke-width="19.62" stroke-linecap="round" stroke-linejoin="round"/>
  <path d="M3438 573 c-38 -10 -21 -43 22 -43 33 0 40 3 40 20 0 11 -4 20 -9 20 -5 0 -15 2 -23 4 -7 2 -21 2 -30 -1z" fill="none" stroke="rgba(255,255,255,0.9)" stroke-width="19.62" stroke-linecap="round" stroke-linejoin="round"/>
  </g>
</svg>