<svg xmlns="http://www.w3.org/2000/svg" viewBox="0 0 100 100">
  <g transform="translate(0,100) scale(0.012500,-0.012500)">
  <path d="M6273 7071 c-190 -31 -429 -156 -516 -270 -21 -27 -56 -61 -80 -77 -23 -15 -44 -30 -46 -31 -18 -12 14 -11 38 2 40 20 39 16 -6 -31 -41 -43 -133 -180 -133 -198 0 -6 -14 -31 -30 -56 -17 -25 -35 -62 -41 -83 -14 -52 -70 -145 -123 -204 -62 -69 -127 -100 -393 -186 -392 -128 -612 -217 -943 -382 -113 -56 -243 -119 -290 -140 -107 -49 -502 -250 -553 -282 -195 -123 -343 -170 -569 -180 -201 -10 -283 23 -923 370 -426 231 -811 405 -1015 458 -145 37 -319 16 -305 -38 4 -16 1 -23 -10 -23 -23 0 -18 -45 7 -63 18 -13 20 -18 10 -25 -46 -31 123 -194 244 -235 32 -11 20 -13 -103 -12 l-138 0 0 -25 c0 -21 8 -28 49 -41 l49 -16 -49 -8 c-148 -22 -165 -72 -48 -141 28 -16 44 -33 44 -45 0 -31 73 -70 261 -139 261 -95 471 -178 704 -280 116 -50 284 -123 375 -161 91 -38 221 -97 289 -130 l125 -60 -60 -38 c-450 -287 -450 -287 -302 -279 64 4 77 3 58 -5 -134 -57 -814 -437 -1040 -582 -174 -113 -352 -280 -375 -356 -4 -13 -14 -33 -21 -44 -8 -11 -14 -36 -14 -57 l0 -38 45 0 c32 0 45 -4 45 -14 0 -35 131 -13 183 31 13 10 10 5 -5 -13 -41 -45 -38 -74 8 -74 104 0 208 47 482 217 103 64 306 188 452 276 146 88 277 168 292 179 15 10 62 25 105 33 43 7 105 20 138 28 270 69 530 55 630 -33 20 -17 213 -84 270 -93 17 -3 41 -8 54 -13 18 -5 23 -4 19 7 -2 8 -22 18 -44 23 -95 21 -263 79 -278 95 -9 10 -35 24 -59 30 -23 7 -53 18 -67 23 -102 43 -363 32 -550 -22 -19 -6 -75 -17 -124 -26 -49 -8 -101 -23 -115 -33 -14 -10 -145 -90 -291 -178 -146 -88 -349 -212 -452 -276 -264 -164 -376 -217 -458 -217 -23 0 -22 3 20 41 25 22 68 61 96 87 28 26 104 79 170 118 566 339 670 404 637 404 -44 -1 -765 -444 -826 -508 -19 -19 -35 -28 -48 -25 -11 3 -39 -8 -69 -27 -71 -46 -139 -65 -147 -42 -10 25 -23 31 -60 25 -37 -6 -44 10 -21 50 7 12 17 34 23 49 39 103 248 280 530 449 259 155 802 452 893 488 72 29 43 54 -55 46 l-88 -6 35 22 c119 78 314 201 362 230 70 42 72 59 10 86 -26 12 -99 44 -162 72 -63 29 -140 63 -170 76 -302 133 -410 179 -440 190 -19 7 -66 27 -105 45 -38 17 -106 45 -150 62 -44 17 -93 36 -110 44 -16 7 -127 49 -245 92 -275 101 -340 134 -340 172 0 11 -17 28 -44 44 -77 45 -84 56 -45 77 80 41 115 38 384 -42 213 -64 189 -55 393 -150 57 -27 106 -49 108 -49 3 0 69 -31 148 -69 163 -78 186 -87 186 -72 0 13 -188 105 -480 235 -132 59 -188 80 -318 117 -71 20 -108 35 -100 40 20 12 9 17 -108 45 -221 54 -224 70 -9 60 147 -6 155 -6 155 12 0 13 -12 21 -48 31 -58 14 -159 78 -225 142 l-49 47 18 27 c15 23 16 28 3 35 -52 30 -54 37 -16 44 36 7 52 26 22 26 -27 0 -16 28 16 39 155 54 566 -101 1234 -466 623 -339 723 -379 940 -370 266 10 279 15 745 262 124 65 297 152 385 193 129 59 400 192 475 233 115 63 458 196 760 294 304 100 344 119 412 195 47 53 118 177 118 207 0 8 13 33 29 56 15 23 31 52 35 64 12 37 102 169 146 213 23 23 39 47 37 54 -7 16 78 117 135 160 329 251 798 261 1100 23 35 -28 54 -47 44 -43 -44 15 -114 -24 -122 -68 -7 -46 -36 -92 -62 -100 -9 -3 -26 -25 -36 -49 -11 -23 -22 -45 -24 -49 -2 -5 2 -8 8 -8 15 0 49 41 50 60 0 8 12 22 28 31 31 18 48 48 57 100 8 52 106 87 143 52 7 -7 64 -28 127 -49 157 -50 334 -162 292 -185 -17 -10 -215 -39 -265 -39 -30 0 -41 -4 -45 -19 -6 -24 -59 -34 -135 -26 -31 4 -93 1 -137 -5 -146 -21 -155 -21 -90 0 33 11 92 25 130 31 39 5 90 17 115 24 109 35 237 50 348 41 152 -12 64 49 -136 95 -88 20 -107 28 -124 52 -36 50 -173 95 -185 61 -2 -8 9 -12 30 -12 45 0 110 -34 137 -72 12 -16 30 -30 41 -30 30 0 206 -48 237 -64 31 -17 25 -19 -38 -6 -48 9 -232 -16 -319 -44 -26 -8 -77 -20 -116 -26 -114 -17 -200 -45 -199 -64 2 -17 -11 -22 -21 -7 -9 15 42 48 95 61 47 11 68 30 34 30 -135 0 -202 -98 -91 -133 49 -16 59 -24 72 -54 14 -32 17 -34 47 -27 39 9 63 11 141 13 34 0 57 5 57 12 0 7 -31 10 -95 7 -87 -3 -117 4 -80 18 15 6 21 34 8 34 -14 -1 -43 -27 -43 -39 0 -24 -18 -10 -23 19 -6 26 -11 30 -39 31 -33 1 -33 1 7 10 138 31 343 33 407 5 45 -19 48 -20 48 -2 0 7 -14 16 -32 20 -17 3 -29 9 -25 12 6 6 191 -42 217 -56 29 -16 -94 -47 -314 -79 -51 -7 -75 -16 -95 -35 -15 -14 -32 -26 -39 -26 -7 0 -12 -7 -12 -15 0 -9 -25 -41 -56 -73 -31 -31 -67 -74 -80 -94 -13 -21 -28 -38 -33 -38 -9 0 -83 -102 -94 -130 -3 -9 -6 -10 -6 -2 -2 25 -20 11 -56 -44 -60 -90 -66 -129 -59 -364 10 -318 -38 -535 -186 -835 -193 -393 -414 -658 -830 -996 -110 -90 -545 -349 -585 -349 -3 0 -33 -13 -67 -29 -75 -34 -356 -131 -381 -131 -69 0 -168 -284 -137 -395 20 -70 221 -316 555 -677 42 -46 74 -49 183 -16 66 19 76 20 104 7 l31 -15 -64 -18 c-35 -9 -66 -22 -70 -27 -3 -6 -20 -3 -42 6 -45 19 -47 19 -47 0 0 -8 6 -15 13 -15 7 0 35 -14 61 -31 27 -16 63 -32 80 -33 17 -2 65 -11 106 -20 62 -14 93 -15 175 -7 101 9 128 5 139 -24 7 -19 -152 -26 -241 -10 -37 7 -46 -12 -10 -20 44 -10 143 -13 210 -6 61 6 71 5 102 -16 19 -13 40 -23 48 -23 15 0 73 -57 65 -65 -2 -3 -27 7 -54 21 l-49 27 -158 -13 c-156 -13 -159 -13 -212 9 -30 12 -62 21 -72 19 -26 -5 -27 -33 -2 -44 29 -13 38 -74 11 -74 -17 1 -32 11 -167 115 -197 152 -200 153 -224 131 -36 -33 -117 -40 -183 -16 -33 12 -73 20 -89 18 -23 -4 -26 -2 -17 9 18 22 64 43 93 43 14 0 28 6 31 14 4 10 15 11 47 5 28 -5 44 -3 49 4 13 20 10 22 -35 23 -23 0 -61 11 -85 23 -71 36 -204 24 -238 -22 -9 -12 -14 -16 -12 -8 13 43 98 71 241 78 106 5 106 4 16 131 -122 171 -318 388 -413 458 -88 65 -109 116 -107 262 l2 112 -25 0 c-88 0 -129 -20 -211 -104 -224 -227 -219 -281 91 -1026 42 -101 151 -256 194 -276 109 -50 122 -58 104 -65 -12 -4 -28 1 -43 12 -25 20 -51 25 -51 10 0 -4 27 -27 60 -50 33 -23 60 -46 60 -50 0 -14 94 -58 136 -65 23 -3 54 -13 70 -21 33 -17 84 -20 84 -5 0 6 -10 10 -22 10 -13 0 -36 7 -51 15 -15 8 -45 17 -65 21 -20 4 -53 15 -72 24 -37 19 -115 88 -87 77 68 -26 287 -48 287 -29 0 6 -42 13 -97 17 -88 7 -205 32 -160 34 19 1 24 21 5 21 -103 3 -261 168 -339 352 -299 710 -303 748 -85 976 62 65 98 88 153 97 l43 7 -2 -114 c-2 -100 1 -117 20 -151 12 -21 22 -44 22 -51 0 -7 26 -31 58 -54 98 -70 270 -257 406 -442 l77 -105 -83 -6 c-171 -13 -266 -61 -242 -123 9 -22 41 -20 54 4 29 55 210 69 210 16 0 -8 -15 -17 -34 -20 -89 -17 -122 -95 -38 -94 26 1 67 -6 92 -16 49 -20 117 -16 176 9 38 16 3 37 304 -193 24 -17 59 -36 79 -42 30 -8 40 -18 61 -62 29 -61 58 -73 84 -36 l16 23 6 -23 c4 -15 14 -22 30 -22 48 0 28 101 -25 123 -15 7 -51 33 -80 59 -51 46 -52 47 -17 33 42 -18 93 -19 240 -4 110 11 111 11 160 -15 67 -35 96 -35 96 2 0 33 -27 61 -85 88 -21 10 -56 35 -75 54 -49 49 -56 51 -172 40 -83 -8 -112 -7 -167 6 -36 9 -81 18 -99 20 -18 2 -42 10 -54 18 -26 18 12 39 92 52 57 9 54 43 -8 64 -39 13 -49 13 -110 -4 -119 -33 -126 -33 -166 11 -19 21 -67 72 -105 113 -161 175 -414 479 -438 528 -54 110 39 376 139 397 46 10 327 110 392 140 30 14 57 25 59 25 40 0 457 249 567 339 409 332 634 600 820 975 151 305 195 496 195 851 0 249 1 262 22 305 27 55 73 119 73 102 0 -18 20 -14 27 6 11 29 84 132 94 132 5 0 20 17 33 38 13 20 49 63 80 94 31 32 56 64 56 73 0 8 6 15 13 15 8 0 24 11 37 25 24 25 44 31 225 59 251 39 270 71 76 126 l-125 35 70 7 c110 12 254 40 254 51 0 56 -142 152 -299 202 -115 37 -128 44 -195 103 -173 154 -483 234 -743 193z m-915 -5371 c22 0 62 -48 61 -72 -1 -19 -3 -17 -11 10 -13 39 -40 42 -56 7 -15 -33 -24 -32 -45 5 -10 17 -13 30 -8 30 21 0 11 44 -16 74 -15 17 -7 12 17 -11 25 -24 51 -43 58 -43z" fill="none" stroke="rgba(255,255,255,0.9)" stroke-width="48.00" stroke-linecap="round" stroke-linejoin="round"/>
  <path d="M6362 6820 c-12 -5 -29 -7 -37 -4 -9 4 -37 -3 -63 -14 -51 -22 -350 -74 -419 -73 -50 0 -103 -37 -101 -72 0 -12 -3 -30 -7 -41 -6 -14 -5 -18 6 -14 8 2 19 18 24 35 15 44 45 75 68 69 29 -7 409 59 446 78 24 13 36 15 41 7 4 -8 18 -7 45 5 39 16 108 16 148 -1 12 -5 17 -3 17 8 0 26 -116 38 -168 17z" fill="none" stroke="rgba(255,255,255,0.9)" stroke-width="48.00" stroke-linecap="round" stroke-linejoin="round"/>
  <path d="M6396 6770 c-128 -40 -71 -177 70 -168 92 6 119 38 98 116 -12 42 -107 71 -168 52z m121 -36 c63 -40 23 -114 -61 -114 -35 0 -48 6 -79 38 l-37 38 27 26 c43 40 99 44 150 12z" fill="none" stroke="rgba(255,255,255,0.9)" stroke-width="48.00" stroke-linecap="round" stroke-linejoin="round"/>
  <path d="M6397 6733 c-11 -3 -16 -10 -13 -20 3 -8 6 -17 6 -19 0 -6 46 -5 64 2 53 20 3 52 -57 37z" fill="none" stroke="rgba(255,255,255,0.9)" stroke-width="48.00" stroke-linecap="round" stroke-linejoin="round"/>
  <path d="M6974 6735 c-10 -8 -29 -15 -41 -15 -28 0 -30 -25 -4 -40 28 -15 123 -12 144 5 27 20 14 51 -25 59 -44 9 -52 8 -74 -9z m64 -11 c36 -10 7 -34 -40 -34 l-40 0 23 20 c27 22 26 22 57 14z" fill="none" stroke="rgba(255,255,255,0.9)" stroke-width="48.00" stroke-linecap="round" stroke-linejoin="round"/>
  <path d="M6015 6619 c-49 -22 -97 -47 -107 -57 -22 -23 -58 -89 -58 -107 0 -8 -7 -15 -15 -15 -8 0 -15 -4 -15 -10 0 -5 5 -10 12 -10 6 0 4 -6 -6 -13 -32 -23 -45 -247 -16 -267 5 -3 19 -27 32 -55 17 -37 33 -55 60 -67 20 -10 42 -26 50 -36 35 -50 298 -140 298 -102 0 6 -8 10 -17 10 -56 1 -223 70 -258 108 -13 14 -39 33 -57 42 -22 10 -41 31 -58 65 -14 28 -28 52 -31 55 -4 3 -5 21 -4 40 1 19 -2 43 -7 53 -13 26 1 106 23 128 11 11 19 24 19 31 0 84 98 170 243 214 26 8 47 19 47 24 0 19 -46 8 -135 -31z" fill="none" stroke="rgba(255,255,255,0.9)" stroke-width="48.00" stroke-linecap="round" stroke-linejoin="round"/>
  <path d="M650 5451 c0 -6 150 -85 333 -175 239 -118 344 -176 376 -205 41 -38 71 -52 71 -33 0 33 -135 115 -425 257 -328 161 -355 173 -355 156z" fill="none" stroke="rgba(255,255,255,0.9)" stroke-width="48.00" stroke-linecap="round" stroke-linejoin="round"/>
  <path d="M4760 5350 c0 -30 28 -69 62 -86 46 -24 45 -9 -1 36 -22 22 -41 47 -41 55 0 8 -4 15 -10 15 -5 0 -10 -9 -10 -20z" fill="none" stroke="rgba(255,255,255,0.9)" stroke-width="48.00" stroke-linecap="round" stroke-linejoin="round"/>
  <path d="M3700 5192 c0 -59 11 -70 83 -88 47 -11 49 -12 17 -13 -70 -1 -290 18 -307 27 -38 20 -116 23 -109 6 6 -15 4 -15 -10 -3 -15 12 -14 15 11 37 32 27 26 40 -10 24 -28 -13 -43 -56 -26 -76 15 -18 74 -33 195 -51 118 -17 121 -19 59 -38 -182 -59 -454 -65 -512 -13 -34 31 -72 -19 -39 -52 9 -9 6 -12 -14 -12 -15 0 -28 5 -30 12 -4 12 -66 -28 -67 -44 -2 -16 75 -20 144 -8 46 8 104 10 152 6 74 -6 238 11 288 30 16 6 13 -1 -13 -36 -39 -53 -39 -63 -7 -126 14 -27 25 -53 25 -58 0 -14 50 -76 61 -76 16 0 10 21 -16 52 -14 16 -25 38 -25 48 0 9 -6 23 -14 29 -38 32 -36 67 5 122 45 61 50 84 17 76 -154 -36 -184 -39 -330 -41 -86 0 -154 2 -151 7 2 4 11 7 19 7 17 0 19 16 2 24 -7 3 -2 3 12 1 109 -19 186 -23 263 -15 156 18 307 58 307 81 0 6 7 6 18 1 18 -10 142 7 142 19 0 4 -37 7 -82 6 -84 -1 -306 28 -343 44 -24 11 32 5 109 -11 78 -16 345 -18 355 -2 11 19 40 5 91 -45 81 -79 98 -93 109 -93 29 0 -14 57 -58 77 -26 12 -31 17 -18 20 32 8 2 83 -34 83 -10 0 -21 5 -24 10 -3 6 -37 10 -75 10 -78 0 -120 12 -120 35 0 12 14 15 70 15 95 0 89 18 -7 22 -43 2 -86 8 -95 12 -16 7 -18 2 -18 -42z m224 -71 c5 -8 -124 -3 -133 5 -2 2 25 4 62 4 36 0 68 -4 71 -9z" fill="none" stroke="rgba(255,255,255,0.9)" stroke-width="48.00" stroke-linecap="round" stroke-linejoin="round"/>
  <path d="M430 5173 c0 -5 64 -24 143 -43 214 -52 453 -136 602 -212 44 -22 246 -113 345 -154 19 -8 52 -23 72 -34 42 -22 58 -25 58 -9 0 6 -35 26 -77 45 -43 19 -87 39 -98 44 -457 209 -592 262 -851 330 -149 40 -194 47 -194 33z" fill="none" stroke="rgba(255,255,255,0.9)" stroke-width="48.00" stroke-linecap="round" stroke-linejoin="round"/>
  <path d="M3165 4675 c-143 -35 -308 -79 -367 -98 -60 -19 -108 -30 -108 -25 0 12 -43 6 -124 -17 -37 -10 -73 -14 -96 -10 -33 6 -39 4 -45 -14 -20 -63 84 -55 330 27 99 33 300 88 448 123 147 34 267 66 267 71 0 15 -42 7 -305 -57z" fill="none" stroke="rgba(255,255,255,0.9)" stroke-width="48.00" stroke-linecap="round" stroke-linejoin="round"/>
  <path d="M5158 4569 c-24 -22 -74 -56 -113 -76 -38 -19 -81 -45 -95 -58 -22 -19 -288 -145 -308 -145 -4 0 -57 -16 -117 -35 -122 -40 -241 -65 -450 -95 -77 -11 -169 -29 -205 -40 -36 -10 -137 -28 -225 -39 -88 -11 -185 -25 -215 -31 -30 -6 -86 -13 -124 -15 -61 -4 -98 -16 -85 -29 2 -2 28 0 58 6 29 5 60 7 67 4 8 -3 44 1 80 10 36 8 138 24 227 35 89 11 191 29 227 39 36 11 128 29 205 40 181 26 333 56 404 79 31 10 94 31 141 46 47 15 129 47 183 71 53 24 101 44 105 44 4 0 23 13 42 29 19 15 67 44 105 64 61 31 165 114 165 131 0 18 -35 1 -72 -35z" fill="none" stroke="rgba(255,255,255,0.9)" stroke-width="48.00" stroke-linecap="round" stroke-linejoin="round"/>
  <path d="M3700 4538 c0 -33 56 -47 120 -32 43 10 67 11 80 4 24 -13 90 -13 90 0 0 6 -10 10 -22 10 -12 0 -36 5 -54 12 -25 9 -45 9 -87 -1 -47 -12 -57 -11 -85 3 -37 19 -42 20 -42 4z" fill="none" stroke="rgba(255,255,255,0.9)" stroke-width="48.00" stroke-linecap="round" stroke-linejoin="round"/>
  <path d="M2041 3981 c-7 -5 -22 -6 -32 -4 -10 3 -19 1 -19 -5 0 -15 37 -25 52 -15 17 10 268 11 268 0 0 -4 6 -7 13 -5 6 1 21 -3 32 -8 11 -6 47 -16 80 -23 33 -7 75 -20 93 -28 17 -9 35 -13 38 -10 13 12 -18 37 -55 43 -53 9 -126 31 -153 45 -26 15 -296 23 -317 10z" fill="none" stroke="rgba(255,255,255,0.9)" stroke-width="48.00" stroke-linecap="round" stroke-linejoin="round"/>
  <path d="M2100 3801 c-30 -21 -80 -53 -110 -71 -414 -248 -850 -521 -850 -531 0 -19 51 6 172 84 46 29 155 97 243 150 88 53 214 130 280 171 66 41 156 96 200 122 95 55 145 91 145 105 0 17 -24 8 -80 -30z" fill="none" stroke="rgba(255,255,255,0.9)" stroke-width="48.00" stroke-linecap="round" stroke-linejoin="round"/>
  <path d="M2910 3471 c0 -5 26 -14 58 -20 31 -6 71 -16 88 -21 16 -5 59 -13 94 -17 36 -3 71 -12 78 -20 16 -15 62 -18 62 -3 0 6 -6 10 -13 10 -8 0 -25 9 -38 21 -15 13 -31 18 -45 15 -12 -3 -41 -2 -65 3 -227 46 -219 45 -219 32z" fill="none" stroke="rgba(255,255,255,0.9)" stroke-width="48.00" stroke-linecap="round" stroke-linejoin="round"/>
  <path d="M3217 3334 c-14 -15 -6 -22 36 -28 55 -9 170 -44 177 -55 3 -4 19 -16 35 -25 l30 -17 -52 6 c-30 3 -53 2 -53 -3 0 -13 36 -22 84 -22 93 0 127 -62 78 -142 -48 -77 -22 -320 41 -387 27 -28 45 -70 138 -311 32 -85 69 -177 80 -205 102 -243 108 -264 79 -290 -38 -34 -14 -88 43 -99 46 -9 74 -38 53 -55 -44 -36 -189 -51 -249 -26 -42 17 -93 20 -102 5 -4 -6 -24 -19 -46 -31 -45 -22 -69 -66 -69 -121 0 -32 14 -67 24 -58 11 12 17 60 7 60 -6 0 -11 8 -11 18 0 14 2 15 10 2 8 -13 12 -12 25 8 35 49 65 54 144 25 l71 -26 135 18 c135 18 135 18 158 -2 61 -56 231 -155 316 -184 74 -26 127 -62 147 -100 13 -26 20 -30 44 -27 30 5 40 -10 40 -59 0 -27 30 -32 50 -8 35 42 17 135 -27 135 -19 0 -16 -14 7 -35 23 -21 25 -44 6 -70 -12 -17 -14 -15 -20 18 -4 21 -11 37 -16 37 -6 0 -10 15 -10 33 0 18 -11 48 -25 69 l-25 37 32 5 c233 35 274 34 296 -4 20 -36 55 -38 60 -3 12 81 -157 205 -255 187 -31 -6 -33 -5 -33 23 0 48 -61 71 -143 53 -114 -24 -114 -24 -143 5 -29 29 -104 48 -104 26 0 -6 11 -11 25 -11 14 0 34 -11 47 -25 30 -35 79 -41 160 -20 68 18 138 4 138 -27 0 -12 -12 -10 -29 6 -26 23 -60 29 -67 13 -3 -9 -13 -13 -26 -9 -15 3 -19 1 -16 -9 6 -19 49 -24 60 -7 7 10 13 8 28 -11 12 -13 26 -21 35 -17 8 3 15 2 15 -3 0 -14 -86 -23 -160 -15 -66 6 -70 5 -70 -14 0 -23 11 -27 83 -38 26 -3 54 -13 62 -20 18 -19 25 -18 25 5 0 21 -17 30 -58 32 -15 1 6 5 47 10 41 5 77 13 80 17 13 20 78 20 117 1 21 -10 29 -16 17 -13 -24 5 -34 -18 -13 -31 5 -3 6 -13 3 -22 -5 -13 -2 -15 19 -10 14 4 32 1 43 -7 16 -11 9 -14 -51 -19 -170 -16 -238 -27 -246 -41 -5 -9 -15 -13 -23 -10 -17 7 -21 -21 -5 -31 6 -3 10 -13 10 -21 0 -11 -9 -8 -37 11 -21 14 -44 25 -53 25 -37 0 -272 134 -335 191 -27 24 -55 26 -150 11 -146 -23 -156 -22 -236 5 l-76 27 -44 -22 -44 -22 30 25 c17 14 34 25 39 25 5 0 18 8 28 17 18 16 22 16 67 0 77 -27 243 -13 289 25 34 29 3 78 -60 93 -45 11 -62 38 -38 60 34 30 3 159 -73 312 -14 27 -30 66 -37 88 -7 22 -32 89 -56 149 -24 60 -42 111 -40 113 3 3 85 -194 167 -404 40 -101 66 -114 35 -18 -3 11 8 -9 26 -45 17 -36 32 -82 32 -102 0 -32 3 -37 19 -32 17 5 17 4 -2 -15 -25 -25 -27 -41 -6 -41 18 0 20 -26 3 -33 -9 -3 -5 -11 10 -22 13 -9 35 -44 49 -76 14 -32 30 -59 34 -59 13 0 11 24 -6 56 -8 16 -12 37 -9 47 3 9 0 17 -6 17 -6 0 -8 5 -5 10 4 6 24 -15 44 -47 21 -32 34 -59 29 -61 -27 -11 -4 -52 54 -98 146 -115 218 -157 218 -125 0 5 2 16 5 24 4 9 -20 32 -71 67 -138 96 -241 219 -317 380 -14 30 -32 71 -40 90 -8 19 -24 55 -35 80 -37 85 -132 317 -132 323 0 4 -13 35 -28 69 -16 35 -39 96 -52 136 -12 39 -28 72 -35 72 -23 0 -36 -26 -27 -51 5 -13 12 -37 16 -54 10 -42 -8 -20 -24 28 -7 21 -24 53 -39 70 -66 76 -85 275 -34 351 50 75 34 142 -39 168 -16 6 -28 15 -28 21 -1 22 -89 65 -177 87 -48 13 -93 24 -99 27 -5 2 -13 0 -17 -3z m1089 -1815 c64 -41 72 -49 55 -49 -16 0 -231 172 -226 180 3 5 28 -13 56 -40 28 -27 80 -68 115 -91z m560 0 c32 -19 81 -85 72 -95 -3 -2 -18 14 -33 36 -32 46 -52 60 -87 60 -18 0 -20 2 -8 10 20 13 18 13 56 -11z m-268 -214 c-4 -29 -16 -25 -39 13 -17 26 -18 31 -5 26 10 -4 16 -1 16 7 1 9 6 7 16 -6 8 -11 13 -29 12 -40z" fill="none" stroke="rgba(255,255,255,0.9)" stroke-width="48.00" stroke-linecap="round" stroke-linejoin="round"/>
  <path d="M4520 2514 c0 -3 24 -31 54 -62 86 -91 216 -246 216 -259 0 -6 5 -13 12 -15 7 -3 5 -13 -7 -31 -20 -32 -14 -46 12 -26 13 11 15 11 9 1 -13 -22 234 -265 252 -248 3 4 -48 61 -113 126 -66 66 -117 120 -114 120 4 0 58 -51 121 -112 121 -119 175 -164 185 -155 11 12 -7 37 -39 57 -36 22 -189 170 -220 213 -14 20 -25 26 -39 22 -16 -5 -19 -1 -19 24 0 23 -18 52 -77 123 -147 175 -233 257 -233 222z" fill="none" stroke="rgba(255,255,255,0.9)" stroke-width="48.00" stroke-linecap="round" stroke-linejoin="round"/>
  <path d="M5094 1958 c-16 -26 118 -110 148 -92 16 10 8 24 -15 24 -28 0 -97 46 -97 65 0 18 -26 20 -36 3z" fill="none" stroke="rgba(255,255,255,0.9)" stroke-width="48.00" stroke-linecap="round" stroke-linejoin="round"/>
  <path d="M5410 1930 c0 -5 20 -10 45 -10 25 0 45 5 45 10 0 6 -20 10 -45 10 -25 0 -45 -4 -45 -10z" fill="none" stroke="rgba(255,255,255,0.9)" stroke-width="48.00" stroke-linecap="round" stroke-linejoin="round"/>
  <path d="M3990 1645 c-25 -7 -66 -16 -92 -20 -27 -3 -48 -11 -48 -17 0 -7 17 -8 48 -4 97 14 162 30 159 40 -5 15 -18 15 -67 1z" fill="none" stroke="rgba(255,255,255,0.9)" stroke-width="48.00" stroke-linecap="round" stroke-linejoin="round"/>
  <path d="M4605 1540 c-6 -9 20 -80 29 -80 3 0 16 4 30 10 32 12 36 34 5 25 -14 -5 -25 -2 -30 6 -16 25 -10 28 41 22 64 -7 68 12 4 21 -62 8 -72 8 -79 -4z" fill="none" stroke="rgba(255,255,255,0.9)" stroke-width="48.00" stroke-linecap="round" stroke-linejoin="round"/>
  </g>
</svg>