<svg xmlns="http://www.w3.org/2000/svg" viewBox="0 0 100 100">
  <g transform="translate(0,100) scale(0.020000,-0.020000)">
  <path d="M833 4469 c-59 -17 -180 -186 -214 -302 -157 -520 -161 -837 -12 -902 1 -1 -2 -18 -8 -38 -9 -32 -7 -45 15 -93 24 -53 25 -57 10 -86 -13 -25 -16 -66 -16 -212 0 -289 21 -353 161 -499 l46 -48 -65 32 c-127 61 -150 74 -150 85 0 6 -14 37 -31 69 -16 31 -44 95 -60 142 -38 107 -67 153 -96 153 -24 0 -34 -52 -13 -65 6 -3 10 -18 10 -33 0 -15 7 -36 15 -46 8 -10 24 -49 36 -85 12 -36 25 -70 28 -76 4 -5 20 -44 35 -85 37 -97 59 -119 157 -160 44 -18 84 -41 90 -52 21 -39 126 -70 173 -52 28 11 17 26 -14 19 -41 -9 -100 11 -130 45 -14 15 -59 42 -101 59 -108 45 -158 120 -229 346 -7 22 -18 49 -25 60 -6 11 -14 31 -17 45 -3 14 -9 34 -13 45 -4 11 4 5 18 -14 14 -18 40 -72 57 -120 16 -47 44 -112 60 -143 17 -31 30 -63 30 -70 0 -8 49 -38 109 -67 60 -29 117 -61 127 -72 17 -19 44 -26 44 -11 0 4 -5 13 -11 19 -9 9 -7 10 9 6 12 -3 20 -9 17 -13 -2 -4 26 -39 63 -78 37 -39 91 -98 119 -130 29 -32 80 -74 113 -93 64 -37 69 -43 43 -53 -10 -4 -36 5 -65 24 -27 16 -51 30 -54 30 -2 0 -26 9 -52 21 -134 59 -113 57 -159 15 -21 -18 -56 -39 -78 -46 -91 -29 -212 -108 -217 -141 -3 -19 -5 -18 -26 11 -33 45 -26 53 100 116 78 39 126 70 154 100 24 27 53 46 72 50 38 8 43 24 7 24 -37 0 -79 -24 -109 -62 -16 -21 -66 -54 -143 -93 -138 -70 -152 -95 -94 -165 31 -37 66 -35 66 4 0 31 185 146 233 146 6 0 27 14 46 30 l34 31 66 -25 c37 -14 94 -41 128 -61 48 -29 68 -35 93 -31 39 8 46 1 34 -32 -27 -70 -22 -180 8 -207 42 -37 133 -30 133 10 0 19 -14 19 -30 0 -18 -21 -51 -18 -83 9 l-29 23 10 82 c7 59 15 86 28 95 19 14 12 36 -12 36 -10 0 -13 7 -8 25 5 21 3 25 -15 25 -32 0 -129 69 -181 129 -25 28 -71 80 -104 116 l-58 64 48 -19 c66 -24 184 -31 184 -10 0 6 -26 10 -58 10 -199 0 -413 184 -441 378 -24 164 -20 415 6 390 13 -13 18 -47 24 -155 10 -177 20 -220 77 -315 58 -98 100 -145 138 -153 16 -3 40 -13 54 -21 14 -8 41 -22 60 -31 19 -8 43 -19 52 -24 24 -12 28 -11 28 5 0 8 -15 19 -32 25 -18 7 -50 23 -70 36 -21 14 -47 25 -58 25 -35 0 -67 29 -116 103 -26 40 -56 85 -67 100 -25 37 -46 159 -47 267 0 95 -14 160 -35 160 -8 0 -11 7 -8 20 11 40 63 -7 63 -57 0 -29 25 -63 47 -63 16 0 144 -94 196 -145 l47 -46 57 11 c64 11 76 20 71 46 -4 25 -28 30 -28 6 0 -48 -77 -43 -132 9 -54 50 -156 124 -184 133 -30 9 -63 48 -46 53 23 9 10 38 -32 73 -52 42 -96 124 -86 160 21 78 21 83 6 77 -23 -9 -82 52 -95 98 -62 226 91 834 253 1001 80 82 90 68 37 -51 -22 -51 -28 -95 -11 -95 6 0 10 8 10 18 0 9 11 40 25 67 l24 50 -7 -45 c-18 -114 -1 -270 30 -270 12 0 10 34 -4 48 -20 20 -16 198 5 246 9 21 15 41 12 46 -2 4 2 16 10 26 20 27 18 37 -5 31 -11 -3 -23 -1 -26 4 -6 10 -8 10 -51 -2z" fill="none" stroke="rgba(255,255,255,0.9)" stroke-width="30.00" stroke-linecap="round" stroke-linejoin="round"/>
  <path d="M2073 4194 c-5 -13 0 -85 9 -124 2 -10 -13 -16 -52 -22 -70 -11 -114 -40 -217 -145 -80 -80 -84 -84 -118 -77 -31 5 -35 4 -35 -14 0 -11 -3 -27 -6 -36 -4 -11 -1 -16 10 -16 9 0 16 8 16 19 0 14 7 18 24 17 23 -1 24 -4 20 -53 -2 -32 1 -53 6 -53 16 0 28 42 23 77 -10 64 220 263 303 263 52 0 58 10 44 73 -16 70 -10 87 32 87 64 0 221 -149 283 -269 17 -32 43 -72 58 -90 15 -18 30 -45 33 -59 8 -39 32 -108 66 -186 62 -144 84 -330 48 -401 -12 -23 -20 -59 -20 -87 0 -59 -15 -98 -64 -162 -27 -35 -39 -61 -42 -94 -2 -25 -9 -51 -14 -56 -6 -6 -10 -16 -10 -24 0 -7 -75 -87 -166 -178 -156 -154 -204 -214 -117 -148 62 47 303 293 303 308 0 8 4 17 9 20 5 4 12 29 16 57 5 36 18 65 42 97 46 60 63 105 63 164 0 30 8 65 21 90 39 77 0 373 -59 452 -11 14 -48 122 -57 164 -4 17 -22 50 -41 73 -19 22 -34 46 -34 52 0 39 -193 261 -247 283 -46 20 -122 18 -130 -2z" fill="none" stroke="rgba(255,255,255,0.9)" stroke-width="30.00" stroke-linecap="round" stroke-linejoin="round"/>
  <path d="M1176 4030 c-108 -35 -115 -41 -86 -72 28 -29 22 -182 -11 -294 -36 -121 -36 -114 3 -114 35 0 124 27 186 56 18 8 71 31 117 49 46 19 107 46 135 60 38 19 60 24 82 20 23 -6 29 -4 26 6 -10 30 -67 21 -176 -29 -238 -110 -404 -167 -375 -129 35 43 69 351 43 382 -15 18 9 29 123 61 66 18 88 35 45 33 -13 0 -63 -14 -112 -29z" fill="none" stroke="rgba(255,255,255,0.9)" stroke-width="30.00" stroke-linecap="round" stroke-linejoin="round"/>
  <path d="M2015 4013 c-59 -14 -253 -218 -241 -253 22 -66 36 -111 45 -147 12 -44 38 -62 28 -20 -25 103 -39 152 -47 162 -27 32 199 238 263 239 l42 1 8 -60 c4 -33 14 -91 21 -130 9 -43 10 -76 5 -87 -29 -55 110 -458 159 -458 18 0 15 10 -21 70 -61 102 -132 324 -118 370 9 30 9 50 1 80 -6 23 -15 77 -20 121 -14 126 -26 136 -125 112z" fill="none" stroke="rgba(255,255,255,0.9)" stroke-width="30.00" stroke-linecap="round" stroke-linejoin="round"/>
  <path d="M1774 3649 c4 -23 15 -58 25 -79 10 -21 15 -42 11 -47 -17 -18 -21 -63 -6 -63 8 0 16 10 19 23 3 21 4 21 12 3 6 -15 2 -24 -18 -40 -36 -29 -34 -39 11 -59 58 -25 79 -12 26 16 -23 12 -24 15 -10 26 9 8 16 22 16 32 0 10 5 21 11 24 6 4 9 21 8 39 -1 17 1 41 5 54 9 28 -2 102 -16 102 -6 0 -8 -16 -4 -42 3 -28 1 -52 -8 -67 l-13 -24 -16 23 c-9 13 -21 45 -28 71 -16 60 -34 65 -25 8z" fill="none" stroke="rgba(255,255,255,0.9)" stroke-width="30.00" stroke-linecap="round" stroke-linejoin="round"/>
  <path d="M1435 3655 c-34 -16 -131 -54 -250 -96 -44 -16 -100 -29 -124 -29 -35 0 -52 -7 -87 -36 -39 -31 -59 -74 -35 -74 13 0 68 -150 76 -210 10 -70 40 -140 60 -140 9 0 15 3 13 8 -29 58 -48 109 -54 149 -4 26 -15 73 -26 103 -47 134 -46 119 -8 151 24 20 46 29 71 29 40 0 150 31 216 61 22 10 70 29 105 42 34 14 72 28 82 32 26 11 18 -41 -19 -119 -26 -54 -28 -86 -5 -86 5 0 10 11 10 24 0 13 4 26 8 28 12 5 52 147 46 163 -8 19 -40 19 -79 0z" fill="none" stroke="rgba(255,255,255,0.9)" stroke-width="30.00" stroke-linecap="round" stroke-linejoin="round"/>
  <path d="M1901 3418 c0 -7 9 -26 20 -43 10 -16 24 -41 30 -55 6 -14 19 -41 29 -60 10 -19 28 -72 41 -117 19 -72 39 -108 39 -71 0 21 -41 162 -60 203 -10 22 -23 51 -29 65 -30 66 -72 114 -70 78z" fill="none" stroke="rgba(255,255,255,0.9)" stroke-width="30.00" stroke-linecap="round" stroke-linejoin="round"/>
  <path d="M1377 3352 c-33 -20 -61 -77 -82 -167 -8 -36 -20 -75 -26 -87 -6 -11 -8 -23 -4 -26 12 -12 34 29 46 87 17 81 54 156 84 169 14 6 25 18 25 27 0 18 -7 18 -43 -3z" fill="none" stroke="rgba(255,255,255,0.9)" stroke-width="30.00" stroke-linecap="round" stroke-linejoin="round"/>
  <path d="M1863 3328 c3 -13 13 -58 23 -100 10 -43 21 -78 26 -78 12 0 10 28 -6 87 -8 28 -12 54 -10 56 7 7 -18 57 -29 57 -5 0 -7 -10 -4 -22z" fill="none" stroke="rgba(255,255,255,0.9)" stroke-width="30.00" stroke-linecap="round" stroke-linejoin="round"/>
  <path d="M2251 3176 c-6 -8 -19 -47 -27 -87 -16 -75 -31 -114 -19 -46 8 39 -37 59 -51 22 -4 -8 -15 -15 -25 -15 -10 0 -19 -4 -19 -10 0 -17 52 -11 66 8 14 17 8 -14 -10 -59 -4 -9 0 -22 10 -30 25 -21 50 18 64 99 6 38 18 81 26 97 20 38 11 52 -15 21z" fill="none" stroke="rgba(255,255,255,0.9)" stroke-width="30.00" stroke-linecap="round" stroke-linejoin="round"/>
  <path d="M2593 2898 c-6 -35 -34 -118 -62 -185 -28 -68 -51 -127 -51 -133 0 -18 -122 -131 -157 -146 -17 -7 -34 -23 -38 -34 -3 -11 -15 -25 -26 -31 -26 -14 -59 -68 -59 -97 0 -13 -17 -41 -40 -64 -22 -23 -40 -45 -40 -49 0 -4 -3 -14 -6 -23 -18 -47 50 -14 144 70 53 48 107 90 119 95 13 5 23 13 23 19 0 6 31 41 69 78 52 50 72 78 80 107 21 89 51 193 72 250 34 93 38 205 7 205 -22 0 -25 -6 -35 -62z m8 -127 c-29 -90 -52 -172 -71 -250 -6 -22 -31 -55 -74 -96 -36 -35 -66 -68 -66 -74 0 -6 -22 -25 -50 -43 -27 -18 -81 -62 -120 -97 -77 -70 -88 -75 -35 -17 19 21 35 48 35 60 0 27 34 82 59 95 11 6 23 20 26 31 4 11 21 27 38 34 18 8 63 44 101 80 38 36 72 66 77 66 5 0 9 5 9 10 0 6 -7 10 -15 10 -13 0 -13 4 1 38 75 176 97 230 99 252 2 14 4 36 6 50 1 16 4 11 6 -14 3 -25 -6 -73 -26 -135z" fill="none" stroke="rgba(255,255,255,0.9)" stroke-width="30.00" stroke-linecap="round" stroke-linejoin="round"/>
  <path d="M2300 2749 c-26 -10 -130 -107 -130 -121 0 -21 30 -3 75 43 28 28 60 55 73 60 12 5 22 13 22 19 0 12 -7 12 -40 -1z" fill="none" stroke="rgba(255,255,255,0.9)" stroke-width="30.00" stroke-linecap="round" stroke-linejoin="round"/>
  <path d="M2086 2314 c-10 -26 -7 -82 5 -90 8 -5 6 -10 -5 -16 -9 -5 -16 -16 -16 -24 0 -22 -59 -147 -73 -156 -9 -5 -9 -10 0 -19 7 -7 15 -11 17 -8 16 17 76 142 76 159 0 11 7 23 15 26 17 7 20 50 4 60 -7 4 -9 21 -5 45 6 38 -6 54 -18 23z" fill="none" stroke="rgba(255,255,255,0.9)" stroke-width="30.00" stroke-linecap="round" stroke-linejoin="round"/>
  <path d="M1196 2233 c27 -120 43 -160 89 -218 18 -22 38 -57 44 -77 9 -27 18 -38 32 -38 22 0 25 15 4 24 -10 4 -13 14 -9 34 4 18 1 32 -5 37 -9 5 -9 10 0 21 16 20 2 31 -20 17 -30 -19 -95 92 -108 182 -3 29 -11 45 -20 45 -9 0 -12 -8 -7 -27z" fill="none" stroke="rgba(255,255,255,0.9)" stroke-width="30.00" stroke-linecap="round" stroke-linejoin="round"/>
  <path d="M2072 2058 c-43 -63 -53 -85 -46 -102 8 -20 50 -20 88 -1 15 8 34 15 42 15 34 0 46 86 16 113 -33 30 -68 21 -100 -25z m82 3 c33 -37 6 -68 -81 -95 -28 -9 -29 0 -2 43 19 31 21 32 38 17 17 -16 51 -22 51 -10 0 3 -11 15 -25 26 -14 11 -23 24 -20 29 9 14 20 11 39 -10z" fill="none" stroke="rgba(255,255,255,0.9)" stroke-width="30.00" stroke-linecap="round" stroke-linejoin="round"/>
  <path d="M1947 1892 c-10 -10 -17 -24 -17 -30 0 -19 18 -14 30 8 24 44 63 -16 84 -130 15 -79 15 -80 -40 -108 -49 -25 -75 -72 -40 -72 16 0 76 -47 76 -60 0 -5 -17 -19 -37 -31 -21 -12 -39 -23 -39 -23 -20 -12 -9 -43 18 -51 50 -15 45 -36 -16 -80 -66 -47 -71 -69 -20 -82 61 -14 64 -47 6 -80 -70 -41 -79 -58 -33 -68 34 -7 58 -30 41 -40 -38 -23 -10 -54 48 -52 112 4 216 -77 206 -160 -8 -61 -75 -135 -144 -159 -25 -8 -58 -22 -75 -31 -52 -27 -146 -29 -169 -4 -22 24 -48 27 -65 7 -19 -23 -92 -36 -149 -27 -29 4 -64 6 -77 3 -18 -3 -25 0 -25 12 0 9 -4 16 -10 16 -5 0 -10 -4 -10 -9 0 -21 -58 -81 -64 -66 -4 11 -21 15 -63 15 -46 0 -62 4 -76 20 -10 12 -29 20 -47 20 -84 0 -170 80 -170 158 0 72 111 182 184 182 35 0 96 26 96 41 0 8 6 6 18 -4 23 -21 32 -21 32 -3 0 8 -20 23 -45 35 -59 28 -49 71 13 54 23 -6 31 12 10 20 -8 3 -6 6 5 6 29 2 18 15 -35 41 -64 31 -69 44 -25 70 54 32 54 47 0 102 -43 44 -46 49 -31 64 13 13 19 14 36 3 26 -16 44 -2 19 15 -9 7 -17 20 -17 29 0 9 -16 28 -35 43 -34 26 -35 28 -19 46 12 12 21 15 28 8 19 -19 28 -10 21 23 -10 43 -9 43 -49 6 -45 -40 -46 -70 -5 -99 l30 -22 -20 -22 c-32 -34 -26 -65 20 -112 l40 -41 -35 -21 c-52 -31 -51 -73 3 -104 l38 -22 -31 -15 c-39 -20 -45 -53 -15 -75 29 -20 23 -25 -53 -43 -121 -28 -189 -95 -196 -195 -3 -32 -8 -61 -13 -64 -14 -9 -10 -58 7 -82 15 -22 64 -31 64 -12 0 5 25 -1 56 -15 31 -14 67 -25 79 -25 13 0 25 -7 29 -15 4 -11 21 -15 67 -15 52 0 62 -3 66 -20 8 -29 33 -25 63 12 26 31 27 31 131 33 105 2 154 10 176 27 8 7 20 4 35 -6 29 -20 119 -20 173 0 22 8 66 24 97 35 154 55 207 226 96 311 -49 37 -125 61 -173 54 -33 -5 -37 -4 -25 7 27 21 22 54 -11 69 -37 17 -37 18 11 46 42 24 48 42 28 87 -7 16 -19 25 -35 25 -35 0 -28 15 27 55 62 45 56 115 -9 115 -9 0 3 12 27 26 63 38 55 91 -21 131 -16 8 -12 13 27 33 55 30 59 43 41 137 -28 145 -71 197 -118 145z" fill="none" stroke="rgba(255,255,255,0.9)" stroke-width="30.00" stroke-linecap="round" stroke-linejoin="round"/>
  </g>
</svg>