<svg xmlns="http://www.w3.org/2000/svg" viewBox="0 0 100 100">
  <g transform="translate(0,100) scale(0.025000,-0.025000)">
  <path d="M3361 3884 c-17 -20 -1 -59 28 -69 33 -10 24 -25 -11 -19 -32 6 -42 14 -63 49 -6 10 -16 14 -27 10 -22 -9 -23 -28 -2 -60 10 -15 14 -34 10 -49 -3 -14 -1 -28 5 -31 6 -4 7 -19 4 -36 -8 -35 2 -69 20 -69 7 0 15 -7 19 -15 3 -8 17 -15 31 -15 25 0 34 -14 15 -25 -15 -9 -12 -25 4 -25 8 0 19 14 25 30 5 17 17 33 26 36 15 6 22 34 8 34 -5 0 -17 -7 -27 -15 -32 -24 -56 -19 -56 13 0 15 -3 38 -5 52 -5 22 -4 22 4 5 5 -11 12 -32 15 -47 8 -36 21 -35 38 2 8 20 20 30 34 30 23 0 30 25 33 122 2 54 -22 88 -63 88 -14 0 -28 5 -31 10 -8 14 -18 12 -34 -6z m84 -38 c18 -13 18 -15 2 -30 -15 -15 -17 -16 -17 -2 0 9 -4 16 -8 16 -5 0 -17 7 -28 15 -18 14 -18 14 7 15 14 0 34 -6 44 -14z m-93 -66 c14 0 16 -4 9 -22 -5 -13 -12 -32 -15 -42 -9 -27 -18 -13 -26 39 -5 32 -4 43 4 35 5 -5 18 -10 28 -10z m109 6 c-7 -9 -10 -28 -6 -48 5 -29 3 -35 -21 -45 l-27 -13 22 24 c24 25 20 56 -8 56 -10 0 -5 7 14 19 37 24 41 25 26 7z" fill="none" stroke="rgba(255,255,255,0.9)" stroke-width="24.00" stroke-linecap="round" stroke-linejoin="round"/>
  <path d="M1190 3635 c-47 -14 -94 -29 -105 -34 -11 -5 -47 -21 -79 -37 -33 -15 -77 -43 -97 -62 -36 -31 -128 -87 -101 -60 14 14 16 28 3 28 -14 0 -91 -83 -91 -97 0 -21 14 -15 45 17 15 16 32 27 37 24 5 -3 15 0 23 6 12 10 15 9 15 -4 0 -25 8 -20 60 37 59 64 156 117 291 157 51 15 95 32 97 39 5 14 3 14 -98 -14z" fill="none" stroke="rgba(255,255,255,0.9)" stroke-width="24.00" stroke-linecap="round" stroke-linejoin="round"/>
  <path d="M1135 3473 c-27 -14 -66 -32 -85 -39 -36 -12 -60 -38 -47 -50 4 -4 15 0 25 9 23 21 33 22 26 2 -4 -8 -2 -15 4 -15 5 0 19 -15 30 -33 l19 -34 -49 -23 c-35 -17 -50 -30 -54 -49 -3 -14 -7 -31 -9 -38 -15 -47 54 -148 93 -137 27 8 29 24 3 24 -36 0 -45 27 -14 42 34 16 41 45 16 63 -24 19 -33 18 -33 0 0 -8 5 -15 10 -15 6 0 10 -5 10 -12 0 -9 -3 -9 -12 0 -7 7 -20 12 -30 12 -13 0 -18 8 -18 30 0 31 77 89 99 76 6 -4 41 -1 78 5 37 6 100 11 139 10 51 -1 75 3 83 13 10 12 18 10 52 -12 44 -29 49 -58 9 -55 -14 1 -61 4 -104 8 -44 3 -97 10 -117 17 -44 13 -159 -22 -159 -48 0 -16 11 -18 26 -5 25 23 100 42 127 32 15 -6 67 -13 115 -17 106 -7 130 -24 67 -47 -24 -10 6 -17 42 -11 52 8 68 18 57 35 -4 7 -7 30 -5 51 2 29 -2 40 -16 44 -10 4 -30 18 -44 31 -27 25 -69 20 -69 -7 0 -6 -16 -10 -35 -10 l-36 0 21 22 c35 37 48 98 25 114 -17 12 -17 14 -2 14 29 0 19 17 -14 24 -77 15 -173 6 -224 -21z m195 -7 c0 -8 9 -18 20 -21 31 -10 24 -25 -12 -25 -65 0 -109 -12 -106 -28 4 -19 35 -39 45 -29 4 5 2 12 -6 16 -15 10 18 21 63 21 l29 0 -24 -26 c-20 -22 -31 -25 -73 -22 -33 2 -51 -1 -53 -9 -3 -7 0 -13 7 -13 6 0 8 -4 5 -10 -3 -5 -21 -9 -38 -9 -24 1 -26 3 -9 6 37 7 26 26 -12 20 -42 -7 -65 13 -41 33 9 7 14 19 11 26 -3 7 0 15 7 17 7 2 8 8 4 13 -5 5 -21 1 -38 -8 -16 -9 -29 -13 -29 -9 0 4 26 21 57 37 67 34 193 48 193 20z" fill="none" stroke="rgba(255,255,255,0.9)" stroke-width="24.00" stroke-linecap="round" stroke-linejoin="round"/>
  <path d="M1140 3191 c0 -6 18 -11 43 -11 48 0 74 -15 79 -45 2 -12 15 -23 36 -29 21 -6 32 -15 32 -27 0 -21 38 -27 56 -9 17 17 104 39 104 27 1 -31 18 -42 37 -24 43 42 74 66 93 72 32 10 26 45 -7 45 -36 0 -115 -28 -125 -43 -6 -9 -8 -9 -8 1 0 17 -29 15 -65 -4 -52 -28 -148 -23 -130 7 4 5 -1 17 -11 26 -20 20 -134 32 -134 14z m445 -33 c-11 -6 -28 -19 -38 -29 -21 -22 -37 -24 -37 -5 0 7 17 20 38 29 44 18 65 21 37 5z" fill="none" stroke="rgba(255,255,255,0.9)" stroke-width="24.00" stroke-linecap="round" stroke-linejoin="round"/>
  <path d="M1205 3140 c-3 -5 -3 -16 1 -22 4 -7 -2 -5 -13 5 -54 48 -83 4 -33 -51 39 -42 120 -59 120 -24 0 13 -11 24 -32 32 -25 10 -28 14 -15 17 25 6 23 53 -2 53 -11 0 -23 -4 -26 -10z" fill="none" stroke="rgba(255,255,255,0.9)" stroke-width="24.00" stroke-linecap="round" stroke-linejoin="round"/>
  <path d="M706 3094 c-9 -23 -9 -22 30 -39 37 -15 130 -20 172 -9 31 9 29 42 -3 50 -32 8 -42 -1 -25 -21 11 -13 5 -15 -49 -15 -36 0 -61 4 -61 11 0 7 16 8 45 3 47 -7 64 8 23 20 -36 9 -88 7 -88 -4 0 -5 -4 -10 -10 -10 -5 0 -10 7 -10 15 0 20 -16 19 -24 -1z" fill="none" stroke="rgba(255,255,255,0.9)" stroke-width="24.00" stroke-linecap="round" stroke-linejoin="round"/>
  <path d="M1604 3046 c-33 -7 -66 -16 -74 -21 -7 -4 -28 -8 -47 -7 -32 1 -45 -11 -20 -21 6 -3 2 -6 -10 -6 -16 -1 -23 -7 -23 -21 0 -17 -3 -18 -26 -10 -33 13 -91 13 -99 0 -8 -13 19 -40 39 -40 54 0 136 -62 136 -103 0 -16 27 -30 41 -21 15 9 11 31 -16 85 l-24 51 22 18 c16 13 26 15 34 8 22 -18 85 0 78 21 -5 16 2 19 45 25 54 7 55 8 40 37 -12 21 -12 21 -96 5z" fill="none" stroke="rgba(255,255,255,0.9)" stroke-width="24.00" stroke-linecap="round" stroke-linejoin="round"/>
  <path d="M888 3033 c-28 -4 -34 -17 -20 -41 11 -17 89 -5 96 15 12 31 -5 37 -76 26z" fill="none" stroke="rgba(255,255,255,0.9)" stroke-width="24.00" stroke-linecap="round" stroke-linejoin="round"/>
  <path d="M2050 3000 c0 -5 12 -10 26 -10 22 0 25 -3 20 -22 -3 -13 -6 -26 -6 -30 0 -5 -25 -8 -55 -8 -30 0 -55 -4 -55 -10 0 -6 32 -10 76 -10 l77 0 -7 42 c-4 22 -9 45 -12 50 -7 11 -64 10 -64 -2z" fill="none" stroke="rgba(255,255,255,0.9)" stroke-width="24.00" stroke-linecap="round" stroke-linejoin="round"/>
  <path d="M1772 2938 c3 -24 58 -41 58 -19 0 6 -7 11 -15 11 -9 0 -18 7 -21 15 -9 23 -26 18 -22 -7z" fill="none" stroke="rgba(255,255,255,0.9)" stroke-width="24.00" stroke-linecap="round" stroke-linejoin="round"/>
  <path d="M1212 2930 c-29 -18 -33 -18 -39 -4 -11 29 -123 1 -123 -31 0 -19 14 -19 29 -1 14 17 69 26 74 12 2 -5 -8 -20 -22 -33 -20 -17 -23 -25 -13 -31 10 -7 4 -18 -23 -47 -19 -22 -35 -44 -35 -49 0 -6 -7 -2 -16 9 -13 17 -16 18 -24 5 -8 -12 -10 -10 -10 8 0 12 6 25 14 28 17 7 17 74 0 74 -13 0 -34 -72 -34 -115 0 -49 58 -95 119 -95 29 0 68 -7 88 -15 47 -20 148 -19 212 2 47 15 52 15 69 0 20 -18 59 -22 81 -8 18 12 6 61 -20 79 -10 7 -19 24 -19 38 0 14 -6 24 -14 24 -8 0 -35 21 -60 46 -51 50 -61 50 -75 -3 -12 -41 -1 -63 29 -63 10 0 27 -8 39 -17 22 -18 21 -18 -21 -20 -23 -2 -65 -9 -93 -17 -38 -11 -66 -13 -120 -6 -38 5 -75 9 -82 10 -7 0 -17 9 -23 19 -15 28 41 89 61 65 22 -26 63 -42 127 -50 62 -7 74 0 50 24 -9 9 -9 15 0 24 23 23 13 55 -25 87 -27 22 -33 30 -20 31 28 0 20 17 -14 29 -18 6 -32 11 -33 11 -1 0 -16 -9 -34 -20z m48 -26 c0 -9 16 -30 35 -47 33 -28 34 -32 19 -48 -9 -10 -14 -25 -11 -33 5 -12 0 -14 -26 -9 -103 19 -136 82 -69 128 43 29 52 31 52 9z m204 -143 c-3 -3 -10 1 -16 7 -7 7 -20 12 -29 12 -22 0 -31 13 -23 34 5 14 12 11 39 -16 18 -18 31 -35 29 -37z m46 -91 c5 0 10 8 12 18 3 15 6 14 16 -6 18 -32 -8 -40 -45 -13 l-28 21 -57 -20 c-69 -24 -166 -27 -194 -5 -18 14 -16 15 27 9 31 -4 62 0 95 11 26 9 69 16 95 17 45 0 48 2 56 31 8 31 8 30 11 -15 2 -27 7 -48 12 -48z m-442 44 c6 3 12 -1 15 -8 3 -8 18 -16 34 -19 27 -4 27 -4 -4 -6 -23 -1 -41 7 -61 27 -15 15 -20 21 -11 14 10 -8 22 -11 27 -8z" fill="none" stroke="rgba(255,255,255,0.9)" stroke-width="24.00" stroke-linecap="round" stroke-linejoin="round"/>
  <path d="M1944 2775 c-9 -23 3 -45 25 -45 26 0 34 15 21 40 -13 24 -38 26 -46 5z" fill="none" stroke="rgba(255,255,255,0.9)" stroke-width="24.00" stroke-linecap="round" stroke-linejoin="round"/>
  <path d="M1592 2618 c-31 -31 -3 -68 66 -89 23 -7 42 -18 42 -25 0 -21 36 -26 75 -9 21 8 49 15 62 15 27 0 62 35 63 63 0 10 -7 17 -19 17 -11 0 -27 9 -35 21 -8 12 -19 18 -25 14 -18 -11 -12 -24 18 -43 25 -15 27 -20 16 -35 -14 -20 -32 -22 -37 -5 -3 9 -9 8 -22 -5 -21 -21 -27 -21 -52 -1 -13 11 -15 17 -6 20 18 8 15 24 -6 24 -9 0 -22 10 -27 23 -12 25 -92 36 -113 15z" fill="none" stroke="rgba(255,255,255,0.9)" stroke-width="24.00" stroke-linecap="round" stroke-linejoin="round"/>
  <path d="M2660 2259 c0 -14 -26 -40 -34 -32 -3 3 -14 -5 -25 -18 -17 -21 -23 -22 -40 -12 -22 14 -51 8 -51 -11 0 -18 95 -19 110 -1 7 8 16 12 21 9 19 -11 51 7 46 27 -3 10 -2 19 3 19 4 0 10 -10 13 -21 5 -17 11 -20 31 -17 14 3 26 1 26 -3 0 -5 5 -9 10 -9 21 0 9 31 -17 43 -16 6 -30 14 -33 18 -10 12 -60 19 -60 8z" fill="none" stroke="rgba(255,255,255,0.9)" stroke-width="24.00" stroke-linecap="round" stroke-linejoin="round"/>
  <path d="M2830 2260 c0 -13 28 -20 78 -20 72 -1 99 -19 166 -105 54 -69 67 -81 100 -86 40 -6 188 -140 242 -219 13 -19 44 -62 69 -95 24 -33 54 -80 66 -105 11 -25 32 -60 45 -77 40 -53 110 -269 93 -288 -11 -11 -12 -45 -1 -45 35 0 28 125 -12 215 -8 17 -19 48 -26 70 -7 22 -21 49 -31 60 -10 11 -28 42 -40 69 -11 27 -36 69 -55 95 -19 25 -48 66 -66 91 -76 103 -219 239 -262 248 -36 7 -48 18 -104 90 -51 66 -70 83 -100 91 -53 13 -162 21 -162 11z" fill="none" stroke="rgba(255,255,255,0.9)" stroke-width="24.00" stroke-linecap="round" stroke-linejoin="round"/>
  <path d="M2408 2233 c-10 -3 -18 -9 -18 -15 0 -7 -15 -9 -40 -5 -28 4 -40 1 -40 -7 0 -17 169 -31 184 -16 21 21 -43 53 -86 43z" fill="none" stroke="rgba(255,255,255,0.9)" stroke-width="24.00" stroke-linecap="round" stroke-linejoin="round"/>
  <path d="M2185 2220 c-11 -5 -34 -9 -52 -9 -23 -1 -36 -8 -44 -23 -16 -30 -46 -55 -95 -79 -40 -19 -134 -117 -134 -138 0 -23 21 -8 74 53 32 36 68 67 83 71 15 3 40 17 56 31 16 14 49 30 73 36 29 8 43 17 40 25 -5 13 16 18 57 15 9 -1 17 5 17 13 0 17 -42 19 -75 5z" fill="none" stroke="rgba(255,255,255,0.9)" stroke-width="24.00" stroke-linecap="round" stroke-linejoin="round"/>
  <path d="M2305 2170 c-84 -23 -154 -42 -194 -53 -27 -7 -46 -18 -48 -28 -3 -10 -11 -20 -19 -23 -8 -3 -14 -17 -14 -31 0 -18 -5 -25 -20 -25 -31 0 -24 -20 8 -21 17 -1 21 -3 9 -6 -30 -8 -12 -28 21 -25 18 2 32 1 32 -1 0 -11 -81 -46 -95 -41 -8 4 -15 1 -15 -5 0 -6 -7 -11 -15 -11 -30 0 -14 -18 32 -36 27 -11 51 -20 55 -22 5 -2 8 2 8 10 0 14 34 16 87 4 51 -12 104 14 56 27 -10 3 1 5 23 6 29 1 44 -4 48 -14 4 -11 -1 -15 -19 -15 -14 0 -25 -4 -25 -10 0 -5 10 -10 22 -10 58 0 -8 -22 -81 -27 -64 -5 -120 -23 -69 -23 6 0 9 -3 6 -6 -9 -8 -130 17 -155 32 -26 16 -33 17 -33 5 0 -23 35 -39 112 -51 47 -7 86 -19 91 -26 10 -17 57 -17 121 0 55 14 76 38 29 32 -52 -6 -58 21 -7 29 45 6 45 7 39 38 -13 67 -14 67 -63 68 l-47 2 47 6 c49 7 73 20 50 28 -12 5 27 43 43 43 4 0 18 9 32 19 13 11 30 18 38 15 18 -7 30 16 14 28 -11 7 -11 11 -1 15 21 8 13 46 -17 81 -30 33 -37 35 -86 22z m71 -41 c29 -41 -21 -119 -75 -119 -5 0 -14 -7 -21 -15 -7 -8 -28 -15 -46 -15 -19 0 -34 -4 -34 -10 0 -5 11 -10 25 -10 14 0 25 -4 25 -10 0 -5 -18 -10 -40 -10 -25 0 -42 -6 -48 -16 -8 -14 -10 -14 -14 4 -4 15 -2 19 8 15 8 -3 14 1 14 11 0 9 -8 16 -19 16 -23 0 -39 19 -19 22 7 1 32 2 56 3 24 1 50 9 59 18 22 22 9 33 -20 19 -12 -6 -33 -11 -47 -11 -14 0 -38 -3 -54 -7 l-28 -7 35 35 c19 20 37 44 39 54 4 21 70 43 76 25 5 -16 22 -13 22 4 0 8 12 17 28 21 15 3 32 7 37 9 18 6 20 5 41 -26z m-266 -69 c-23 -22 -47 -37 -53 -33 -7 4 -3 12 11 21 12 8 22 20 22 27 0 13 17 21 48 24 8 0 -5 -17 -28 -39z m9 -153 c-22 -22 -47 -27 -59 -12 -8 10 -8 15 1 20 6 4 15 2 19 -5 6 -10 12 -10 25 4 10 9 20 15 22 12 3 -3 -1 -11 -8 -19z" fill="none" stroke="rgba(255,255,255,0.9)" stroke-width="24.00" stroke-linecap="round" stroke-linejoin="round"/>
  <path d="M2340 1815 c-6 -8 -9 -19 -5 -25 3 -5 -1 -10 -9 -10 -9 0 -16 -7 -16 -15 0 -20 39 -20 46 0 4 8 26 20 50 26 49 13 62 35 14 26 -17 -4 -30 -2 -30 3 0 15 -36 12 -50 -5z" fill="none" stroke="rgba(255,255,255,0.9)" stroke-width="24.00" stroke-linecap="round" stroke-linejoin="round"/>
  <path d="M1996 1484 c-9 -24 -9 -24 30 -24 29 0 35 3 30 16 -3 9 -6 18 -6 20 0 12 -49 2 -54 -12z" fill="none" stroke="rgba(255,255,255,0.9)" stroke-width="24.00" stroke-linecap="round" stroke-linejoin="round"/>
  <path d="M2887 1090 c-26 -16 -52 -30 -57 -30 -21 0 -146 -44 -159 -56 -22 -20 -5 -29 25 -14 21 12 27 12 34 1 5 -9 17 -11 34 -7 26 6 36 26 14 26 -16 1 7 15 39 24 19 6 22 4 17 -9 -6 -13 -1 -16 22 -13 23 2 29 7 27 26 -2 18 7 27 42 44 25 12 45 26 45 30 0 17 -38 7 -83 -22z" fill="none" stroke="rgba(255,255,255,0.9)" stroke-width="24.00" stroke-linecap="round" stroke-linejoin="round"/>
  <path d="M3030 1011 c0 -5 -8 -8 -17 -7 -10 0 -19 -7 -21 -19 -2 -11 -11 -25 -19 -32 -14 -11 -14 -14 1 -28 9 -9 16 -23 16 -31 0 -8 7 -14 16 -14 9 0 14 6 11 13 -7 19 8 41 22 33 15 -10 14 -41 -3 -55 -8 -7 -17 -27 -20 -45 -4 -19 -13 -37 -21 -40 -17 -6 -20 -26 -5 -26 18 0 50 39 50 61 0 11 7 27 15 35 42 42 24 93 -34 95 -20 1 -22 2 -7 6 28 7 47 29 40 47 -7 17 -24 22 -24 7z" fill="none" stroke="rgba(255,255,255,0.9)" stroke-width="24.00" stroke-linecap="round" stroke-linejoin="round"/>
  <path d="M2880 951 c0 -12 -17 -30 -44 -48 -25 -15 -49 -38 -55 -50 -6 -13 -17 -23 -25 -23 -26 0 -28 -21 -5 -41 47 -41 109 8 69 56 -9 10 -3 18 28 35 44 25 64 52 56 75 -9 21 -24 19 -24 -4z" fill="none" stroke="rgba(255,255,255,0.9)" stroke-width="24.00" stroke-linecap="round" stroke-linejoin="round"/>
  <path d="M2860 755 c0 -14 5 -25 10 -25 14 0 13 -27 -2 -36 -7 -5 -8 -3 -4 5 8 13 -20 51 -37 51 -5 0 -7 -9 -4 -20 4 -15 -2 -24 -24 -35 -34 -18 -38 -49 -10 -65 27 -14 44 -13 38 3 -3 8 10 20 34 30 42 18 56 76 27 105 -19 19 -28 14 -28 -13z" fill="none" stroke="rgba(255,255,255,0.9)" stroke-width="24.00" stroke-linecap="round" stroke-linejoin="round"/>
  </g>
</svg>