<svg xmlns="http://www.w3.org/2000/svg" viewBox="0 0 100 100">
  <g transform="translate(0,100) scale(0.012500,-0.012500)">
  <path d="M5560 7589 c-266 -34 -479 -185 -595 -421 -55 -113 -76 -183 -125 -418 -51 -248 -96 -293 -347 -356 -586 -144 -1064 -361 -1618 -734 -84 -56 -184 -119 -405 -253 -188 -114 -285 -177 -420 -272 -205 -144 -526 -338 -732 -443 -412 -209 -523 -336 -278 -319 l78 5 -142 -72 c-340 -174 -545 -328 -570 -428 -6 -27 -5 -28 32 -28 34 0 291 67 402 104 l45 15 -97 -92 c-120 -114 -168 -172 -168 -202 0 -61 81 -30 367 138 278 163 365 213 411 236 39 20 234 66 252 59 10 -4 -127 -232 -250 -414 -119 -178 -200 -278 -401 -497 -278 -302 -331 -360 -368 -412 -113 -155 -158 -289 -103 -310 21 -8 120 42 199 99 l62 45 -15 -42 c-18 -50 -23 -152 -9 -166 35 -36 181 81 344 274 41 50 116 135 166 190 50 55 132 147 182 205 50 58 104 117 119 131 74 67 504 319 543 319 28 0 -126 -342 -282 -625 -53 -98 -163 -270 -350 -550 -119 -178 -350 -488 -572 -769 -301 -382 -403 -576 -413 -783 -5 -129 6 -169 57 -190 39 -17 135 -12 172 8 19 9 20 8 14 -10 -3 -11 -1 -49 6 -83 36 -187 225 -210 400 -50 45 41 64 52 91 52 78 0 203 92 296 218 103 140 156 249 474 977 131 298 411 874 513 1055 23 41 56 104 72 140 16 36 50 99 75 140 25 41 53 93 62 114 9 22 40 65 69 96 29 32 61 72 72 91 32 53 59 52 51 -3 -26 -179 -6 -258 94 -379 124 -149 355 -602 364 -716 l7 -81 -40 -37 c-28 -26 -43 -49 -47 -74 -3 -20 -13 -71 -21 -114 -17 -89 -17 -92 27 -202 74 -190 79 -239 25 -282 -40 -32 -45 -47 -12 -38 17 5 19 4 7 -4 -21 -15 -35 -14 -57 7 -10 9 -13 13 -6 8 22 -15 28 2 8 24 -22 25 -41 26 -50 3 -11 -31 50 -76 93 -69 68 11 103 62 122 176 7 41 21 98 32 127 l20 52 -26 47 c-65 117 -65 181 1 264 6 6 66 -64 111 -130 49 -70 75 -136 73 -179 -1 -19 3 -37 9 -41 30 -18 -59 -88 -94 -74 -12 4 -16 0 -16 -16 0 -24 9 -23 86 11 51 21 74 77 77 185 2 79 9 82 94 43 60 -27 91 -25 104 8 18 48 0 75 -70 99 -60 21 -101 48 -101 67 0 5 -22 30 -49 56 -60 56 -84 120 -58 149 10 10 17 24 17 30 0 23 21 22 30 -2 17 -46 90 -27 90 22 0 66 -137 109 -178 57 -12 -15 -22 -36 -22 -46 0 -73 -92 82 -285 478 -114 235 -113 230 -125 305 -25 155 103 386 274 493 l59 37 -7 -43 c-4 -30 0 -68 13 -119 26 -97 41 -110 286 -252 333 -193 404 -244 441 -311 16 -29 -10 -87 -39 -87 -7 0 -37 -14 -67 -30 -30 -17 -83 -43 -117 -59 -69 -33 -93 -66 -93 -128 1 -92 93 -114 124 -29 9 25 50 -32 74 -102 23 -69 53 -112 79 -112 12 0 25 -4 28 -10 9 -15 41 -12 55 5 33 40 94 -2 68 -47 l-13 -23 -3 22 c-2 15 -13 25 -28 29 -43 11 -43 -14 0 -29 5 -2 4 -18 -3 -37 -27 -80 123 -136 209 -78 94 64 95 68 101 443 1 80 -12 138 -37 168 -29 34 -30 47 -5 47 25 0 153 -39 165 -51 6 -5 20 -9 32 -9 29 0 45 -21 37 -49 -9 -35 16 -22 39 19 40 76 4 113 -155 160 -101 30 -101 30 14 86 87 43 156 37 214 -18 30 -27 75 -38 75 -18 0 5 7 7 15 4 25 -10 17 14 -10 28 -14 8 -39 38 -57 68 -66 108 -162 128 -273 56 -38 -25 -81 -46 -95 -46 -14 0 -38 -8 -55 -17 -50 -28 -190 -24 -240 6 -22 14 -100 60 -174 104 -339 200 -364 223 -359 337 6 151 92 264 253 334 312 134 867 533 1087 778 327 366 521 715 614 1103 24 99 24 337 1 475 -50 286 53 438 397 587 280 122 316 135 411 140 108 6 650 -38 709 -57 72 -24 76 9 8 72 -86 80 -190 128 -416 189 -287 78 -382 116 -421 169 -163 223 -487 341 -815 299z m238 -20 c243 -27 422 -126 572 -316 25 -31 209 -99 401 -148 194 -49 339 -114 424 -190 45 -41 47 -44 20 -35 -64 20 -603 63 -720 57 -107 -5 -167 -26 -474 -161 -254 -111 -371 -257 -371 -461 0 -42 -17 -46 -130 -36 -70 7 -88 5 -102 -7 -10 -9 -18 -10 -18 -4 0 16 -57 41 -80 35 -15 -4 -20 0 -20 15 0 13 -11 24 -32 33 -17 7 -52 30 -77 51 -25 21 -52 43 -58 49 -16 13 -17 91 -1 107 7 7 12 24 13 39 0 48 173 112 305 113 43 0 161 43 265 97 58 29 132 58 175 68 89 20 164 46 244 86 62 30 86 36 86 19 0 -5 8 -11 18 -11 9 -1 -5 -5 -31 -9 -27 -5 -52 -11 -55 -14 -13 -14 10 -16 69 -6 35 5 97 10 137 10 91 0 95 18 5 23 -38 3 6 3 98 2 119 -3 231 -13 404 -36 180 -26 239 -31 243 -21 3 9 9 9 24 1 11 -6 22 -8 25 -5 20 19 -76 72 -184 102 -49 13 -106 32 -127 41 -29 13 -41 14 -43 6 -11 -32 -137 10 -169 56 -19 26 -38 27 -31 1 10 -39 -17 -44 -106 -21 -102 26 -138 26 -218 2 -35 -11 -89 -23 -120 -26 -65 -8 -82 -16 -74 -36 5 -13 37 -15 208 -13 l202 2 -150 -8 c-151 -7 -229 -24 -256 -56 -6 -8 -18 -14 -26 -14 -8 0 -35 -8 -61 -19 -26 -10 -87 -28 -136 -40 -55 -13 -124 -40 -182 -71 -104 -54 -192 -83 -303 -100 -194 -28 -261 -56 -261 -109 0 -15 -5 -32 -11 -38 -16 -16 -7 -145 11 -151 7 -3 29 -19 49 -36 20 -18 53 -40 74 -50 45 -21 46 -32 4 -82 -38 -46 -87 -120 -87 -132 0 -5 -15 -29 -32 -52 -18 -24 -53 -73 -78 -109 -38 -56 -52 -68 -90 -79 -25 -8 -70 -24 -101 -38 -68 -29 -108 -30 -182 -5 -74 26 -201 43 -254 35 -46 -7 -59 -24 -18 -24 14 0 25 -4 25 -9 0 -5 39 -14 88 -21 48 -6 102 -17 119 -23 35 -12 57 -2 33 14 -12 9 -11 9 5 4 45 -17 130 -17 175 0 25 10 74 27 110 39 60 21 68 27 110 87 25 36 60 85 78 109 17 23 32 47 32 51 0 5 16 32 35 61 85 126 100 135 162 97 29 -18 38 -20 56 -10 15 8 57 10 122 7 l100 -4 13 -78 c82 -466 -127 -991 -608 -1532 -227 -256 -800 -667 -1113 -798 -148 -61 -229 -181 -235 -346 -5 -112 12 -136 165 -236 380 -246 514 -294 641 -228 17 9 41 16 53 16 12 0 56 21 96 46 112 70 165 56 249 -65 l46 -66 -37 35 c-21 20 -48 36 -63 37 -15 1 -47 4 -72 8 -51 7 -197 -55 -222 -94 -16 -26 -30 -26 -53 -1 -24 26 -75 27 -75 2 0 -46 100 -89 125 -55 23 31 230 -40 255 -87 10 -20 -3 -39 -15 -20 -3 5 -15 10 -26 10 -10 0 -27 4 -37 10 -31 17 -153 50 -188 50 -43 0 -47 -36 -11 -84 25 -32 41 -98 37 -151 -1 -16 -1 -90 -1 -163 1 -111 -2 -138 -17 -168 l-19 -37 5 56 c3 40 -2 73 -18 122 -14 41 -20 78 -16 96 3 16 1 29 -4 29 -5 0 -13 24 -19 53 -24 110 -91 213 -134 205 -16 -3 -28 0 -31 7 -3 8 2 11 15 8 12 -3 19 0 19 8 0 8 20 -8 43 -34 45 -48 64 -59 53 -31 -3 8 -2 13 3 10 11 -7 61 -131 61 -151 0 -16 16 -20 24 -6 14 22 -65 188 -112 238 -22 22 -32 38 -24 41 17 5 15 22 -2 22 -8 0 -16 7 -20 15 -3 8 -16 15 -29 15 -33 0 -56 -68 -30 -87 15 -12 14 -13 -7 -13 -25 0 -80 45 -80 65 0 34 -123 120 -424 296 -78 45 -103 65 -89 67 26 4 463 -257 457 -273 -7 -18 54 -57 84 -53 30 3 38 36 12 48 -47 21 -95 49 -292 168 -230 139 -258 152 -279 129 -12 -12 -20 -11 -59 9 -97 49 -143 128 -142 246 1 82 -10 89 -80 51 -179 -97 -317 -350 -288 -527 15 -92 23 -113 180 -426 127 -254 164 -320 213 -382 19 -24 57 -13 57 16 0 63 69 80 132 33 32 -24 34 -30 12 -48 -19 -15 -44 10 -44 43 0 37 -35 18 -64 -36 -43 -80 -25 -154 54 -216 22 -17 40 -37 40 -44 0 -22 35 -45 99 -67 68 -23 90 -48 65 -73 -19 -19 -24 -20 -49 -2 -11 7 -44 19 -74 26 -66 16 -70 11 -70 -82 0 -37 -5 -76 -11 -86 -9 -13 -10 -9 -5 20 3 20 1 45 -4 55 -5 10 -21 43 -34 74 -31 68 -149 219 -171 219 -3 0 -18 -19 -34 -42 -52 -76 -50 -135 5 -260 25 -56 25 -60 10 -100 -8 -24 -21 -78 -27 -121 -16 -97 -40 -139 -33 -56 3 30 9 58 14 64 14 14 11 28 -6 22 -10 -5 -16 4 -21 31 -3 20 -17 59 -30 86 -13 28 -24 56 -24 64 0 8 -7 26 -16 41 -15 26 -15 34 0 108 9 44 16 90 16 101 0 12 21 44 46 73 l45 51 -5 87 c-3 47 -7 93 -11 101 -4 11 1 16 15 16 15 0 22 -9 26 -33 7 -35 18 -43 27 -18 5 12 -144 313 -317 638 -20 38 -36 75 -36 83 0 8 -7 14 -16 14 -12 0 -14 -5 -8 -17 4 -10 7 -35 6 -55 -2 -41 43 -131 62 -125 12 4 34 -34 159 -276 55 -106 84 -173 80 -182 -5 -9 -31 31 -77 118 -122 235 -225 410 -287 487 -71 89 -102 174 -93 255 3 28 8 74 11 103 l5 53 -38 -3 c-32 -2 -42 -9 -59 -36 -11 -19 -48 -65 -82 -103 -37 -42 -63 -80 -65 -97 -2 -19 -8 -26 -20 -24 -9 1 -56 -26 -104 -60 -329 -237 -361 -250 -409 -158 -26 51 -33 159 -8 138 13 -12 37 -18 74 -18 32 -1 62 -7 73 -15 21 -16 121 -21 130 -6 3 4 19 11 36 14 21 5 31 14 36 32 3 14 10 25 14 25 12 0 62 92 54 99 -5 6 -19 -9 -67 -71 l-18 -23 7 35 c4 19 7 42 8 50 1 8 26 26 56 39 69 29 110 58 110 77 0 19 -1 19 -60 -21 -29 -19 -57 -35 -62 -35 -5 0 -25 -7 -43 -16 -58 -27 -85 -17 -122 50 -48 85 -50 100 -17 131 15 14 24 28 21 31 -15 15 38 87 80 107 28 14 42 26 38 35 -3 9 9 19 35 29 40 16 53 33 25 33 -29 0 -85 -29 -85 -44 0 -9 -18 -25 -40 -36 -35 -18 -80 -83 -80 -116 0 -4 -8 -13 -18 -20 -12 -9 -17 -26 -17 -58 0 -25 -5 -48 -11 -50 -39 -15 -176 -131 -188 -160 -17 -40 -4 -211 19 -256 32 -61 86 -75 155 -40 67 34 340 225 353 247 4 7 12 13 18 13 5 0 -3 -19 -18 -42 -15 -24 -55 -97 -89 -163 -33 -66 -109 -212 -168 -325 -117 -224 -319 -651 -456 -965 -48 -110 -115 -263 -149 -340 -221 -505 -403 -748 -563 -751 -42 0 -52 -6 -105 -54 -166 -152 -328 -135 -362 38 -8 36 -8 59 -1 72 21 39 -21 70 -49 36 -36 -43 -160 -26 -186 25 -76 147 68 486 355 839 577 706 1099 1529 1239 1953 40 119 28 121 -157 26 -212 -109 -413 -248 -491 -339 -35 -41 -120 -137 -188 -212 -68 -75 -159 -179 -202 -230 -91 -108 -240 -253 -277 -270 -46 -21 -53 34 -17 136 22 64 -9 97 -47 51 -19 -23 -187 -125 -206 -125 -31 0 -11 80 41 167 64 105 130 186 314 382 350 373 515 588 706 916 32 55 64 108 72 117 21 24 8 59 -20 53 -12 -2 -69 -14 -126 -25 -132 -26 -137 -28 -462 -217 -306 -179 -415 -237 -423 -224 -18 28 284 321 331 321 7 0 13 5 13 11 0 7 -10 9 -27 5 -16 -4 -37 -7 -48 -7 -11 0 -44 -9 -74 -20 -147 -54 -411 -119 -411 -100 0 88 549 436 788 499 40 11 76 22 79 26 14 14 -8 17 -47 6 -23 -6 -44 -9 -47 -6 -3 2 11 8 31 11 20 4 36 12 36 17 0 12 -35 7 -139 -22 -81 -22 -176 -27 -187 -9 -19 32 145 145 394 271 207 106 528 300 732 443 135 95 232 158 420 272 91 55 224 138 295 183 786 504 1110 655 1723 806 200 49 245 74 289 164 30 60 42 106 103 384 97 437 454 695 898 645z m684 -489 c54 -14 94 -19 123 -14 31 4 49 2 68 -10 15 -10 53 -18 98 -21 41 -2 94 -11 119 -20 41 -14 42 -15 10 -10 -186 26 -319 37 -510 42 -151 5 -210 9 -180 14 25 4 65 14 90 22 62 21 90 20 182 -3z m278 -79 c80 -11 173 -26 208 -35 35 -10 71 -14 81 -11 9 3 26 -2 37 -10 27 -20 18 -20 -192 11 -99 14 -217 29 -263 32 -54 5 -86 12 -89 20 -5 17 44 15 218 -7z m-2170 -1162 c32 -10 -74 0 -121 11 -23 6 -13 7 31 3 36 -3 76 -10 90 -14z m-2200 -2600 c0 -14 36 -29 69 -29 31 0 45 -30 21 -45 -15 -9 -12 -41 5 -59 35 -35 -107 -74 -151 -41 -11 8 -42 14 -76 15 -31 0 -60 5 -63 11 -4 5 -18 14 -31 19 -21 8 -22 12 -13 40 10 27 109 120 127 120 4 0 21 13 37 28 l30 29 23 -40 c12 -21 22 -43 22 -48z m1882 -407 c-7 -2 -12 -10 -12 -18 0 -8 -7 -14 -15 -14 -8 0 -15 -4 -15 -10 0 -5 11 -10 25 -10 15 0 25 6 25 14 0 15 24 28 34 18 4 -3 -28 -41 -70 -83 l-76 -77 4 -63 c3 -50 13 -83 45 -146 39 -78 44 -124 7 -68 -19 29 -34 33 -34 8 0 -14 -3 -13 -16 5 -15 21 -15 25 1 42 16 18 16 21 -4 63 -29 60 -29 168 0 216 11 18 17 36 14 40 -12 12 -55 -50 -55 -80 0 -19 -5 -29 -15 -29 -8 0 -15 -4 -15 -10 0 -5 6 -10 14 -10 11 0 14 -12 11 -52 -2 -35 1 -56 11 -65 8 -8 11 -19 8 -25 -4 -6 -2 -13 4 -17 6 -4 7 -12 3 -19 -5 -9 -15 8 -30 47 -12 33 -26 63 -32 66 -5 4 -7 32 -3 71 8 78 -9 94 -55 50 -15 -15 -34 -24 -42 -21 -23 8 -41 -11 -49 -51 -7 -38 -8 -38 -9 -7 -1 43 36 85 96 108 26 10 73 33 103 52 30 18 60 33 66 33 5 0 23 13 39 30 15 16 33 26 39 23 6 -4 6 -8 -2 -11z m156 -120 c30 -58 62 -164 62 -208 0 -13 10 -51 21 -85 39 -114 10 -188 -80 -205 -44 -9 -142 36 -101 46 61 14 45 117 -18 122 -36 3 -39 6 -79 88 -66 131 -63 147 42 250 98 95 98 95 153 -8z m-358 -66 c0 -27 -24 -56 -46 -56 -22 0 -17 21 13 52 32 34 33 34 33 4z" fill="none" stroke="rgba(255,255,255,0.9)" stroke-width="48.00" stroke-linecap="round" stroke-linejoin="round"/>
  <path d="M5750 7401 c0 -11 40 -18 145 -27 98 -8 127 -20 216 -84 38 -27 79 -50 91 -50 29 -1 103 -34 114 -51 6 -11 5 -12 -7 -3 -8 6 -38 17 -68 24 -30 7 -74 27 -99 44 -61 43 -57 41 -173 86 -71 27 -193 36 -223 17 -11 -8 -48 -17 -81 -21 -115 -14 -297 -76 -370 -127 -22 -15 -52 -31 -67 -34 -17 -4 -32 -18 -40 -36 -7 -16 -19 -29 -27 -29 -8 0 -23 -7 -33 -17 -10 -9 -28 -21 -39 -27 -24 -12 -62 -102 -54 -126 3 -9 -4 -33 -15 -55 -11 -22 -20 -52 -20 -68 0 -15 -9 -45 -20 -67 -11 -22 -20 -52 -20 -68 0 -33 -33 -113 -55 -135 -23 -23 -8 -57 25 -57 27 0 100 68 100 92 0 11 32 82 72 163 27 53 30 67 24 118 -4 42 -2 66 9 87 8 16 15 36 15 45 0 9 9 28 20 42 11 14 20 34 20 45 0 32 30 66 68 79 20 7 54 25 75 40 21 15 55 33 75 40 20 6 51 17 67 24 48 21 135 43 200 50 33 4 71 14 84 22 20 13 25 13 32 2 7 -12 12 -12 29 -1 25 15 109 -3 182 -38 23 -11 47 -20 53 -20 7 0 20 -9 30 -20 10 -11 23 -20 28 -20 6 0 18 -7 28 -16 9 -8 43 -22 76 -31 32 -8 66 -22 76 -31 14 -12 22 -14 35 -5 43 27 3 73 -83 95 -28 7 -79 33 -115 59 -94 67 -99 69 -238 84 -152 17 -142 17 -142 6z m-594 -333 c-9 -13 -18 -27 -20 -33 -33 -97 -37 -118 -31 -164 6 -44 2 -58 -35 -137 -23 -49 -51 -107 -61 -130 -21 -44 -75 -102 -86 -91 -3 4 0 15 9 24 22 26 58 121 52 137 -3 8 4 32 15 55 12 22 21 56 21 74 0 20 10 50 25 71 18 27 22 42 16 58 -4 13 -5 30 -1 38 4 8 13 27 19 43 6 15 21 31 34 36 12 5 29 16 36 25 20 24 26 19 7 -6z" fill="none" stroke="rgba(255,255,255,0.9)" stroke-width="48.00" stroke-linecap="round" stroke-linejoin="round"/>
  <path d="M5748 7309 c-39 -15 -86 -129 -53 -129 9 0 15 9 15 23 0 12 4 27 8 34 4 6 7 -8 7 -32 0 -45 33 -95 62 -95 19 0 16 9 -17 47 -38 43 -24 113 23 113 23 0 38 17 31 33 -7 19 -35 21 -76 6z" fill="none" stroke="rgba(255,255,255,0.9)" stroke-width="48.00" stroke-linecap="round" stroke-linejoin="round"/>
  <path d="M5797 7243 c-17 -17 -6 -43 18 -43 20 0 25 5 25 25 0 24 -26 35 -43 18z" fill="none" stroke="rgba(255,255,255,0.9)" stroke-width="48.00" stroke-linecap="round" stroke-linejoin="round"/>
  <path d="M6198 6914 c-9 -9 -29 -16 -45 -16 -15 0 -35 -6 -43 -13 -8 -7 -40 -21 -70 -30 -30 -9 -68 -23 -83 -31 -36 -18 -48 -18 -41 1 7 17 -11 20 -29 5 -28 -24 -89 -60 -100 -60 -7 0 -4 6 6 14 21 17 22 26 1 26 -9 0 -26 -10 -38 -23 -14 -16 -46 -28 -102 -40 -76 -16 -128 -46 -111 -63 10 -10 59 -9 82 1 26 11 -22 -54 -51 -70 -56 -30 -73 -47 -71 -72 3 -32 27 -44 27 -13 0 22 35 59 56 60 14 0 54 43 54 57 0 7 9 15 21 18 12 4 18 12 15 21 -3 8 -1 14 4 14 21 0 9 20 -12 21 -33 1 35 18 96 23 29 3 63 15 87 30 22 15 41 22 44 16 8 -12 43 -4 92 21 21 10 45 19 56 19 10 0 37 9 59 20 23 11 54 20 68 20 24 0 70 35 70 53 0 13 -26 7 -42 -9z" fill="none" stroke="rgba(255,255,255,0.9)" stroke-width="48.00" stroke-linecap="round" stroke-linejoin="round"/>
  <path d="M5607 6568 c-37 -46 -74 -120 -84 -168 -11 -55 12 -31 40 44 19 49 41 86 68 112 42 41 48 54 25 54 -8 0 -30 -19 -49 -42z" fill="none" stroke="rgba(255,255,255,0.9)" stroke-width="48.00" stroke-linecap="round" stroke-linejoin="round"/>
  <path d="M5275 5976 c-22 -33 -11 -76 20 -76 26 0 35 17 35 66 0 42 -31 48 -55 10z" fill="none" stroke="rgba(255,255,255,0.9)" stroke-width="48.00" stroke-linecap="round" stroke-linejoin="round"/>
  <path d="M5218 5839 c-28 -16 -23 -59 5 -59 27 0 57 28 57 53 0 19 -34 23 -62 6z" fill="none" stroke="rgba(255,255,255,0.9)" stroke-width="48.00" stroke-linecap="round" stroke-linejoin="round"/>
  <path d="M5061 5804 c-48 -40 -38 -83 15 -70 32 8 63 74 42 87 -19 13 -24 11 -57 -17z" fill="none" stroke="rgba(255,255,255,0.9)" stroke-width="48.00" stroke-linecap="round" stroke-linejoin="round"/>
  <path d="M5143 5628 c-41 -45 -37 -98 7 -98 40 0 70 100 34 114 -21 8 -18 9 -41 -16z" fill="none" stroke="rgba(255,255,255,0.9)" stroke-width="48.00" stroke-linecap="round" stroke-linejoin="round"/>
  <path d="M5000 5478 c-40 -43 -38 -88 4 -88 33 0 56 31 56 73 0 44 -26 51 -60 15z" fill="none" stroke="rgba(255,255,255,0.9)" stroke-width="48.00" stroke-linecap="round" stroke-linejoin="round"/>
  <path d="M4810 5470 c0 -5 5 -10 10 -10 18 0 10 -23 -54 -154 -97 -198 -198 -302 -436 -450 -171 -106 -157 -99 -280 -131 -58 -16 -154 -46 -214 -67 -167 -60 -406 -127 -527 -149 -61 -11 -154 -33 -207 -51 -53 -17 -124 -38 -157 -48 -33 -10 -135 -40 -226 -68 -91 -28 -184 -54 -207 -58 -23 -4 -45 -11 -48 -15 -3 -5 -14 -9 -25 -9 -10 0 -29 -11 -41 -25 -12 -14 -30 -25 -40 -25 -28 0 -58 -18 -58 -35 0 -19 10 -18 34 0 11 8 28 15 38 15 11 0 29 10 41 23 12 13 40 28 62 34 121 35 398 117 450 133 33 11 110 35 171 54 61 20 161 44 221 55 127 23 284 67 538 151 99 33 217 69 262 81 229 59 550 321 653 534 90 186 100 225 60 225 -11 0 -20 -4 -20 -10z" fill="none" stroke="rgba(255,255,255,0.9)" stroke-width="48.00" stroke-linecap="round" stroke-linejoin="round"/>
  <path d="M2670 5425 c-7 -8 -44 -33 -84 -55 -119 -67 -138 -97 -75 -119 40 -14 259 -15 259 -1 0 6 -43 10 -109 10 -60 0 -122 5 -138 11 l-28 11 25 20 c14 11 55 35 91 53 36 18 71 40 78 49 10 12 17 13 31 3 24 -14 37 -3 20 18 -16 19 -54 19 -70 0z" fill="none" stroke="rgba(255,255,255,0.9)" stroke-width="48.00" stroke-linecap="round" stroke-linejoin="round"/>
  <path d="M2532 5385 c-41 -28 -76 -77 -44 -63 24 11 122 82 122 89 0 17 -26 8 -78 -26z" fill="none" stroke="rgba(255,255,255,0.9)" stroke-width="48.00" stroke-linecap="round" stroke-linejoin="round"/>
  <path d="M2790 5385 c-64 -68 -21 -140 77 -131 48 4 52 3 43 -13 -12 -23 -2 -87 16 -102 25 -21 148 -25 141 -5 -4 10 -7 21 -7 26 0 5 -18 11 -40 15 -26 4 -47 16 -61 33 l-21 27 32 8 c22 5 30 13 26 23 -3 8 1 14 9 14 21 0 19 20 -2 21 -10 1 -1 6 20 11 43 11 52 34 10 24 -63 -13 -195 -26 -218 -20 -28 7 -35 -10 -8 -20 10 -4 53 -5 98 -2 l80 6 -65 -16 c-129 -30 -182 17 -101 90 12 11 21 23 21 28 0 16 -27 7 -50 -17z m214 -232 c38 -10 39 -11 11 -12 -36 -1 -76 18 -83 39 -5 13 -3 13 13 0 10 -8 36 -20 59 -27z" fill="none" stroke="rgba(255,255,255,0.9)" stroke-width="48.00" stroke-linecap="round" stroke-linejoin="round"/>
  <path d="M4862 5332 c-34 -28 -43 -66 -17 -76 36 -13 95 33 95 76 0 37 -33 38 -78 0z" fill="none" stroke="rgba(255,255,255,0.9)" stroke-width="48.00" stroke-linecap="round" stroke-linejoin="round"/>
  <path d="M4972 5191 c-39 -48 -42 -81 -9 -81 35 0 79 51 75 86 -5 42 -30 40 -66 -5z" fill="none" stroke="rgba(255,255,255,0.9)" stroke-width="48.00" stroke-linecap="round" stroke-linejoin="round"/>
  <path d="M2749 5196 c-27 -27 -519 -99 -519 -76 0 6 -6 10 -14 7 -8 -3 -17 -1 -19 6 -5 15 -13 8 -21 -19 -23 -74 129 -72 467 4 135 31 150 37 127 52 -10 7 -11 10 -2 10 6 0 12 5 12 10 0 10 -23 14 -31 6z m-181 -71 c-21 -21 -350 -56 -361 -37 -3 4 39 8 92 9 53 0 125 8 161 16 66 15 117 21 108 12z" fill="none" stroke="rgba(255,255,255,0.9)" stroke-width="48.00" stroke-linecap="round" stroke-linejoin="round"/>
  <path d="M4836 5099 c-47 -41 -48 -69 -3 -69 42 0 70 28 65 66 -4 39 -21 40 -62 3z" fill="none" stroke="rgba(255,255,255,0.9)" stroke-width="48.00" stroke-linecap="round" stroke-linejoin="round"/>
  <path d="M1952 4986 c-28 -19 -53 -29 -54 -24 -13 38 -91 -66 -86 -114 l3 -33 65 -3 c53 -2 83 4 165 34 55 19 155 54 223 77 110 37 147 57 108 57 -11 0 -189 -60 -311 -105 -11 -4 21 16 71 43 50 28 110 56 133 63 40 12 56 29 26 29 -22 0 -126 -40 -165 -65 -97 -59 -270 -109 -270 -77 0 12 52 59 114 101 43 30 58 51 37 51 -5 0 -32 -15 -59 -34z" fill="none" stroke="rgba(255,255,255,0.9)" stroke-width="48.00" stroke-linecap="round" stroke-linejoin="round"/>
  <path d="M4060 4974 c-36 -19 -92 -52 -125 -73 -65 -41 -133 -66 -208 -77 -27 -3 -51 -13 -54 -20 -3 -8 -20 -14 -39 -14 -19 0 -34 -4 -34 -10 0 -17 133 -11 214 10 106 27 216 90 159 90 -23 0 15 27 110 77 62 33 84 54 55 53 -7 -1 -42 -17 -78 -36z" fill="none" stroke="rgba(255,255,255,0.9)" stroke-width="48.00" stroke-linecap="round" stroke-linejoin="round"/>
  <path d="M4637 4858 c-64 -59 -56 -129 11 -94 53 28 84 70 73 99 -14 36 -40 34 -84 -5z m32 -44 c-18 -19 -37 -34 -41 -34 -18 0 -6 25 29 58 47 44 58 23 12 -24z" fill="none" stroke="rgba(255,255,255,0.9)" stroke-width="48.00" stroke-linecap="round" stroke-linejoin="round"/>
  <path d="M1631 4795 c-91 -104 -39 -165 113 -132 119 25 334 117 276 117 -5 0 -55 -18 -110 -41 -243 -98 -361 -84 -265 31 55 65 42 88 -14 25z" fill="none" stroke="rgba(255,255,255,0.9)" stroke-width="48.00" stroke-linecap="round" stroke-linejoin="round"/>
  <path d="M4472 4800 c-70 -51 -86 -117 -27 -113 50 4 108 85 91 128 -8 21 -17 19 -64 -15z m23 -45 c-28 -37 -51 -52 -62 -41 -3 3 13 24 36 47 51 48 65 44 26 -6z" fill="none" stroke="rgba(255,255,255,0.9)" stroke-width="48.00" stroke-linecap="round" stroke-linejoin="round"/>
  <path d="M3115 4710 c-21 -35 7 -78 55 -84 52 -7 100 0 100 15 0 5 7 9 15 9 8 0 15 4 15 9 0 8 -79 21 -137 21 -26 0 -30 3 -26 20 5 20 -11 28 -22 10z" fill="none" stroke="rgba(255,255,255,0.9)" stroke-width="48.00" stroke-linecap="round" stroke-linejoin="round"/>
  <path d="M4075 4644 c-44 -22 -75 -55 -75 -77 0 -28 67 -18 114 18 68 52 37 99 -39 59z m55 -8 c0 -7 -83 -66 -93 -66 -15 0 15 31 48 52 29 17 45 22 45 14z" fill="none" stroke="rgba(255,255,255,0.9)" stroke-width="48.00" stroke-linecap="round" stroke-linejoin="round"/>
  <path d="M4275 4616 c-36 -16 -70 -52 -80 -85 -17 -56 119 -4 140 53 14 42 -9 54 -60 32z m33 -28 c-5 -15 -66 -58 -82 -58 -14 1 60 70 75 70 6 0 9 -6 7 -12z" fill="none" stroke="rgba(255,255,255,0.9)" stroke-width="48.00" stroke-linecap="round" stroke-linejoin="round"/>
  <path d="M2828 4543 c-137 -48 -190 -75 -145 -72 30 1 311 105 315 117 5 17 5 17 -170 -45z" fill="none" stroke="rgba(255,255,255,0.9)" stroke-width="48.00" stroke-linecap="round" stroke-linejoin="round"/>
  <path d="M2485 4518 c-157 -51 -530 -147 -536 -137 -4 7 -37 1 -95 -17 -49 -15 -118 -33 -154 -40 -134 -28 -284 -82 -232 -84 6 -1 215 54 324 85 32 9 48 10 51 2 2 -7 15 -7 43 0 504 137 684 190 684 203 0 13 -15 11 -85 -12z" fill="none" stroke="rgba(255,255,255,0.9)" stroke-width="48.00" stroke-linecap="round" stroke-linejoin="round"/>
  <path d="M3813 4475 c-78 -39 -83 -78 -9 -78 81 0 175 80 114 97 -38 10 -52 7 -105 -19z m87 -4 c0 -14 -52 -49 -75 -51 -43 -5 -50 0 -27 16 55 38 102 54 102 35z" fill="none" stroke="rgba(255,255,255,0.9)" stroke-width="48.00" stroke-linecap="round" stroke-linejoin="round"/>
  <path d="M2520 4473 c-126 -41 -650 -173 -686 -173 -23 0 -66 -11 -95 -24 -30 -14 -75 -30 -101 -37 -46 -11 -65 -29 -32 -29 22 0 167 49 178 61 6 5 30 9 55 9 73 0 751 181 751 201 0 12 -15 10 -70 -8z" fill="none" stroke="rgba(255,255,255,0.9)" stroke-width="48.00" stroke-linecap="round" stroke-linejoin="round"/>
  <path d="M3358 4468 c-42 -18 -38 -55 5 -63 76 -14 136 24 102 63 -9 10 -84 9 -107 0z m82 -18 c21 -13 -36 -33 -70 -25 l-25 7 25 13 c29 17 49 18 70 5z" fill="none" stroke="rgba(255,255,255,0.9)" stroke-width="48.00" stroke-linecap="round" stroke-linejoin="round"/>
  <path d="M4013 4428 c-36 -25 -40 -39 -19 -57 24 -20 96 25 96 61 0 25 -38 23 -77 -4z" fill="none" stroke="rgba(255,255,255,0.9)" stroke-width="48.00" stroke-linecap="round" stroke-linejoin="round"/>
  <path d="M3623 4330 c-25 -10 -59 -57 -49 -68 14 -13 120 -7 151 8 82 41 -12 96 -102 60z m102 -20 c8 -13 -54 -40 -90 -40 -31 0 -32 14 -3 34 25 18 84 21 93 6z" fill="none" stroke="rgba(255,255,255,0.9)" stroke-width="48.00" stroke-linecap="round" stroke-linejoin="round"/>
  <path d="M3330 4268 c-41 -11 -36 -7 -44 -35 -8 -25 99 -35 133 -14 16 10 6 51 -14 51 -7 0 -19 2 -27 4 -7 2 -29 0 -48 -6z m65 -28 c-3 -5 -25 -10 -48 -10 -31 0 -38 3 -27 10 20 13 83 13 75 0z" fill="none" stroke="rgba(255,255,255,0.9)" stroke-width="48.00" stroke-linecap="round" stroke-linejoin="round"/>
  <path d="M3108 4114 c-16 -8 -28 -19 -28 -24 0 -4 -3 -15 -6 -24 -9 -22 85 -22 132 0 35 17 38 22 28 48 -8 21 -88 21 -126 0z m83 -24 c-14 -12 -38 -20 -60 -20 l-36 0 25 20 c14 11 40 20 60 19 l35 0 -24 -19z" fill="none" stroke="rgba(255,255,255,0.9)" stroke-width="48.00" stroke-linecap="round" stroke-linejoin="round"/>
  <path d="M2339 4041 c-73 -23 -174 -111 -126 -111 7 0 26 13 41 29 36 38 121 75 152 67 17 -5 24 -2 24 9 0 17 -45 19 -91 6z" fill="none" stroke="rgba(255,255,255,0.9)" stroke-width="48.00" stroke-linecap="round" stroke-linejoin="round"/>
  <path d="M2312 3887 c1 -7 -6 -28 -16 -47 -13 -23 -15 -35 -7 -38 6 -2 11 -16 11 -30 1 -37 26 -70 42 -54 9 9 8 16 -4 29 -32 36 -28 82 9 111 42 34 41 40 -2 40 -21 0 -35 -5 -33 -11z" fill="none" stroke="rgba(255,255,255,0.9)" stroke-width="48.00" stroke-linecap="round" stroke-linejoin="round"/>
  <path d="M2177 3852 c-21 -21 -72 -59 -115 -85 -80 -47 -122 -87 -212 -197 -29 -36 -71 -77 -94 -91 -77 -49 -244 -239 -210 -239 4 0 54 50 112 111 89 94 109 109 129 104 13 -3 36 1 51 9 34 18 272 249 272 265 0 23 -22 8 -102 -72 -110 -108 -188 -181 -188 -174 0 35 176 212 265 267 85 52 158 116 150 130 -10 16 -19 12 -58 -28z" fill="none" stroke="rgba(255,255,255,0.9)" stroke-width="48.00" stroke-linecap="round" stroke-linejoin="round"/>
  <path d="M2523 3853 c-35 -7 -28 -19 23 -38 49 -18 71 -12 40 11 -19 13 -19 14 7 14 15 0 27 5 27 10 0 10 -53 11 -97 3z" fill="none" stroke="rgba(255,255,255,0.9)" stroke-width="48.00" stroke-linecap="round" stroke-linejoin="round"/>
  <path d="M2630 3590 c0 -5 14 -10 30 -10 17 0 30 -4 30 -8 0 -13 69 -34 90 -27 27 9 25 27 -2 25 -29 -3 -68 10 -68 21 0 5 -18 9 -40 9 -22 0 -40 -4 -40 -10z" fill="none" stroke="rgba(255,255,255,0.9)" stroke-width="48.00" stroke-linecap="round" stroke-linejoin="round"/>
  <path d="M1911 2943 c-63 -90 -70 -103 -48 -103 13 1 127 161 127 179 0 27 -24 4 -79 -76z" fill="none" stroke="rgba(255,255,255,0.9)" stroke-width="48.00" stroke-linecap="round" stroke-linejoin="round"/>
  <path d="M1980 2915 c0 -8 -6 -12 -14 -9 -28 11 -77 -157 -74 -250 4 -95 10 -100 113 -69 96 30 88 97 -9 79 -65 -12 -69 48 -15 187 21 53 24 77 9 77 -5 0 -10 -7 -10 -15z m-57 -199 c-7 -63 9 -78 74 -74 21 2 40 -1 43 -7 6 -12 -97 -48 -117 -41 -14 6 -18 109 -7 154 10 37 13 25 7 -32z" fill="none" stroke="rgba(255,255,255,0.9)" stroke-width="48.00" stroke-linecap="round" stroke-linejoin="round"/>
  <path d="M1828 2703 c-9 -10 -90 -142 -180 -293 -326 -545 -601 -947 -852 -1243 -57 -66 -87 -146 -53 -134 22 7 278 321 385 472 58 83 134 190 169 238 73 103 286 443 397 635 43 73 100 169 127 213 50 82 57 99 39 99 -5 0 -7 7 -4 15 8 20 -9 19 -28 -2z" fill="none" stroke="rgba(255,255,255,0.9)" stroke-width="48.00" stroke-linecap="round" stroke-linejoin="round"/>
  <path d="M2247 2593 c-210 -286 -370 -321 -313 -70 5 24 5 37 -2 37 -30 0 -40 -182 -11 -216 13 -16 59 -18 109 -4 73 20 347 340 291 340 -5 0 -38 -39 -74 -87z" fill="none" stroke="rgba(255,255,255,0.9)" stroke-width="48.00" stroke-linecap="round" stroke-linejoin="round"/>
  <path d="M3490 2206 c0 -8 5 -18 10 -21 6 -4 8 -10 5 -15 -3 -5 7 -22 23 -37 15 -16 21 -22 12 -15 -21 15 -30 15 -30 1 0 -13 170 -189 182 -189 15 0 8 24 -14 49 -21 24 -21 24 8 -1 16 -16 33 -28 37 -28 23 0 -4 37 -88 119 -52 51 -102 106 -110 122 -16 31 -35 39 -35 15z" fill="none" stroke="rgba(255,255,255,0.9)" stroke-width="48.00" stroke-linecap="round" stroke-linejoin="round"/>
  <path d="M3413 2143 c-4 -10 -15 -29 -25 -44 -21 -27 -49 -134 -44 -165 2 -10 1 -13 -1 -6 -8 22 -21 13 -28 -19 -8 -35 4 -53 31 -47 15 3 19 13 20 48 2 80 16 141 38 168 22 28 46 68 46 77 0 13 -31 3 -37 -12z" fill="none" stroke="rgba(255,255,255,0.9)" stroke-width="48.00" stroke-linecap="round" stroke-linejoin="round"/>
  <path d="M4748 2643 c-36 -4 -55 -23 -24 -23 10 0 6 -9 -12 -27 -16 -17 -30 -24 -34 -18 -11 13 -28 -13 -28 -43 0 -28 27 -27 44 2 31 54 55 66 74 36 16 -26 30 -25 43 3 11 23 -3 79 -18 75 -5 -1 -25 -3 -45 -5z" fill="none" stroke="rgba(255,255,255,0.9)" stroke-width="48.00" stroke-linecap="round" stroke-linejoin="round"/>
  <path d="M4160 2220 c0 -5 11 -10 24 -10 49 0 86 -93 56 -140 -6 -10 -8 -4 -4 22 8 44 -26 108 -57 108 -25 0 -24 -2 11 -40 78 -83 -34 -173 -125 -100 -74 58 -120 23 -50 -38 74 -66 200 -51 243 29 18 34 11 133 -13 159 -19 21 -85 29 -85 10z m-83 -199 c27 -14 78 -14 106 0 21 10 21 10 3 -5 -39 -31 -176 5 -176 46 0 6 10 2 23 -9 12 -11 32 -26 44 -32z" fill="none" stroke="rgba(255,255,255,0.9)" stroke-width="48.00" stroke-linecap="round" stroke-linejoin="round"/>
  </g>
</svg>