<svg xmlns="http://www.w3.org/2000/svg" viewBox="0 0 100 100">
  <g transform="translate(0,100) scale(0.030030,-0.030030)">
  <path d="M2480 2522 c0 -4 6 -15 13 -22 10 -13 10 -13 -2 -2 -46 39 -39 -1 9 -55 22 -25 40 -50 40 -54 0 -5 5 -9 11 -9 7 0 9 9 6 21 -7 28 0 19 28 -32 25 -49 52 -66 40 -28 -24 78 -145 229 -145 181z" fill="none" stroke="rgba(255,255,255,0.9)" stroke-width="19.98" stroke-linecap="round" stroke-linejoin="round"/>
  <path d="M1127 2450 c-75 -23 -87 -35 -87 -79 0 -40 20 -105 38 -123 7 -7 12 -20 12 -29 0 -31 57 -166 91 -217 57 -85 152 -205 195 -247 22 -22 64 -70 92 -106 65 -83 132 -130 247 -170 50 -17 96 -36 103 -41 7 -6 37 -8 72 -5 l60 5 0 -39 c0 -21 5 -39 10 -39 6 0 10 23 10 51 l0 51 -60 -7 c-36 -4 -65 -3 -73 3 -6 5 -50 22 -95 37 -116 38 -189 90 -263 185 -33 43 -66 81 -74 84 -7 2 -32 29 -54 58 -22 29 -67 88 -99 131 -73 95 -142 231 -142 279 0 12 -6 29 -14 37 -33 37 -43 111 -17 132 86 70 360 60 606 -22 136 -45 425 -183 404 -193 -10 -4 -10 -8 -3 -11 48 -23 42 -32 -10 -15 -33 11 -66 20 -74 20 -8 0 -20 7 -26 15 -10 13 -35 25 -151 69 -17 6 -43 19 -58 29 -14 9 -31 17 -37 17 -18 0 -10 -16 15 -30 14 -7 25 -17 25 -22 0 -4 7 -8 16 -8 20 0 154 -57 174 -74 8 -8 31 -16 50 -20 19 -4 53 -15 75 -26 39 -18 39 -19 8 -13 -19 3 -39 0 -47 -6 -15 -13 -123 -4 -132 10 -3 5 -15 9 -28 9 -12 0 -27 5 -33 11 -11 11 -83 -15 -83 -31 0 -4 -24 -10 -52 -14 -29 -3 -75 -9 -102 -12 -68 -9 -214 14 -230 37 -6 10 -24 21 -39 24 -15 4 -27 12 -27 19 0 13 -62 65 -103 85 -82 43 46 63 221 35 69 -11 58 34 -13 53 -60 17 -238 11 -261 -8 -8 -6 -17 -9 -21 -5 -6 6 17 28 47 45 19 10 211 -12 305 -35 122 -30 159 -44 218 -86 46 -32 61 -38 70 -28 9 10 9 14 0 17 -6 2 -29 17 -51 33 -82 59 -499 152 -547 122 -5 -4 -30 -9 -55 -12 -59 -7 -66 -45 -13 -70 18 -8 38 -27 45 -42 7 -15 23 -32 36 -38 35 -16 102 -73 102 -87 0 -7 9 -13 20 -13 12 0 31 -10 43 -23 30 -32 167 -53 264 -42 86 10 134 10 201 0 33 -5 52 -4 52 2 0 6 -23 14 -52 17 -51 7 -51 7 -25 21 28 14 93 10 103 -6 3 -5 18 -9 34 -9 16 0 41 -5 56 -10 21 -8 32 -7 51 6 28 18 62 9 175 -47 64 -32 68 -33 68 -19 0 5 -12 16 -26 23 -17 9 -23 17 -15 21 6 4 43 -15 83 -43 40 -28 81 -51 92 -51 11 0 40 -17 65 -38 25 -21 57 -45 71 -52 14 -7 37 -23 51 -36 19 -18 35 -24 60 -22 33 3 35 1 66 -62 51 -106 84 -138 117 -117 14 10 26 23 26 31 0 46 58 56 89 16 l22 -31 -24 6 c-33 9 -46 -32 -17 -52 16 -11 18 -21 13 -63 -4 -34 -2 -50 6 -50 6 0 11 12 11 28 0 57 67 47 70 -10 0 -11 30 -10 30 1 0 4 21 -2 47 -15 55 -28 135 -32 190 -9 19 8 44 15 54 15 11 0 19 5 19 10 0 22 -34 22 -76 1 -99 -47 -190 -14 -264 97 -24 37 -47 69 -50 72 -19 18 -38 62 -41 98 l-5 42 38 0 c21 0 38 5 38 10 0 6 -14 10 -30 10 -23 0 -41 10 -68 39 -40 42 -92 63 -92 36 0 -8 8 -15 18 -15 10 0 33 -16 52 -35 19 -19 29 -35 23 -35 -6 0 -20 11 -31 25 -11 14 -24 25 -28 25 -25 0 -94 34 -83 41 12 7 -95 119 -113 119 -25 0 -7 -100 21 -116 17 -10 27 -23 24 -31 -9 -23 23 -58 85 -91 83 -44 89 -54 66 -98 -35 -66 -60 -53 -111 56 -36 77 -49 90 -85 83 -21 -4 -35 0 -51 14 -12 12 -37 28 -55 37 -39 20 -32 38 24 58 19 6 34 16 34 20 0 16 -38 7 -73 -17 l-37 -24 -35 33 c-82 77 -21 167 123 181 67 7 69 7 76 -16 8 -32 43 -76 52 -66 4 4 -2 25 -14 46 -25 45 -27 51 -9 51 23 0 117 49 117 61 0 13 -12 10 -95 -24 -39 -17 -87 -27 -135 -30 -122 -8 -157 -36 -169 -135 l-6 -52 -91 62 c-50 35 -116 77 -148 93 -34 17 -51 31 -42 33 38 8 32 11 -250 144 -262 123 -605 180 -767 128z m1638 -518 c-5 -5 -41 15 -59 34 -33 32 -15 34 23 2 22 -18 38 -34 36 -36z m47 -48 c15 -8 33 -14 40 -14 7 0 19 -9 26 -20 7 -12 24 -25 37 -30 18 -7 25 -17 25 -35 0 -30 -25 -34 -40 -5 -6 11 -30 29 -53 41 -54 27 -107 67 -107 80 0 11 30 4 72 -17z" fill="none" stroke="rgba(255,255,255,0.9)" stroke-width="19.98" stroke-linecap="round" stroke-linejoin="round"/>
  <path d="M2942 2458 c-17 -17 -16 -22 18 -58 33 -35 35 -50 19 -116 -12 -46 -5 -70 11 -44 8 12 10 12 10 -4 0 -12 5 -16 15 -13 8 4 17 2 20 -3 8 -13 95 -13 95 0 0 6 -15 10 -32 10 -55 1 -65 16 -64 96 1 96 -52 172 -92 132z" fill="none" stroke="rgba(255,255,255,0.9)" stroke-width="19.98" stroke-linecap="round" stroke-linejoin="round"/>
  <path d="M4970 2370 c-11 -7 -12 -14 -4 -27 18 -30 34 -27 34 6 0 33 -6 37 -30 21z" fill="none" stroke="rgba(255,255,255,0.9)" stroke-width="19.98" stroke-linecap="round" stroke-linejoin="round"/>
  <path d="M4520 2235 c-28 -52 -19 -72 14 -30 l23 29 12 -22 c8 -16 9 -28 1 -41 -12 -24 -13 -61 -2 -61 36 0 34 138 -2 162 -18 12 -20 10 -46 -37z" fill="none" stroke="rgba(255,255,255,0.9)" stroke-width="19.98" stroke-linecap="round" stroke-linejoin="round"/>
  <path d="M3017 2182 c-61 -22 -134 -158 -102 -191 9 -8 25 20 25 43 0 74 72 138 153 137 41 0 50 13 15 23 -31 8 -35 7 -91 -12z" fill="none" stroke="rgba(255,255,255,0.9)" stroke-width="19.98" stroke-linecap="round" stroke-linejoin="round"/>
  <path d="M4121 1960 c-82 -54 -101 -79 -83 -108 16 -24 64 3 60 35 -2 22 4 31 41 53 45 25 64 51 39 49 -7 0 -33 -14 -57 -29z" fill="none" stroke="rgba(255,255,255,0.9)" stroke-width="19.98" stroke-linecap="round" stroke-linejoin="round"/>
  <path d="M1393 1953 c-35 -13 -1 -60 91 -127 21 -16 47 -44 58 -62 11 -19 26 -34 34 -34 8 0 14 -4 14 -8 0 -4 13 -15 29 -25 16 -10 42 -31 58 -47 19 -21 36 -30 53 -28 14 1 48 -8 75 -21 69 -31 285 3 435 69 84 37 197 62 235 52 25 -7 18 -11 -66 -40 -125 -43 -213 -92 -217 -121 -2 -13 -14 -26 -29 -32 -158 -60 -171 -68 -177 -112 -7 -45 13 -144 40 -194 7 -16 14 -32 14 -36 0 -4 18 -44 40 -88 40 -81 53 -194 26 -238 -4 -6 -5 -19 -2 -29 4 -12 -7 -30 -35 -57 l-42 -40 27 40 c28 44 45 105 28 105 -5 0 -15 -13 -20 -29 -11 -32 -132 -213 -168 -252 -24 -25 -33 -69 -14 -69 6 0 10 6 10 13 0 7 14 26 31 43 l32 29 -7 -39 c-6 -29 -4 -37 6 -34 7 3 15 17 16 33 4 36 49 102 116 175 29 30 63 70 78 89 l26 34 7 -32 c8 -37 19 -38 105 -14 57 15 74 33 49 49 -6 3 -14 2 -18 -4 -7 -11 -38 -25 -83 -35 -34 -9 -56 39 -32 70 11 13 17 14 20 6 8 -18 21 -16 28 5 3 9 11 25 18 34 19 27 1 34 -25 10 -13 -12 -31 -22 -40 -22 -10 0 -22 -11 -26 -24 -5 -13 -17 -26 -25 -29 -22 -9 -20 2 6 43 13 19 30 62 39 95 10 33 18 50 18 38 1 -28 16 -29 56 -5 17 10 55 28 85 40 61 23 109 49 191 103 l54 36 22 -33 c27 -39 66 -50 147 -40 71 9 75 15 136 169 27 70 33 74 55 41 35 -53 275 -128 275 -85 0 6 -18 11 -42 12 -39 0 -100 17 -70 18 26 2 10 17 -43 40 -39 17 -65 37 -92 72 -46 61 -78 69 -36 10 9 -14 11 -21 5 -17 -25 15 -50 -16 -81 -99 -44 -116 -61 -135 -133 -142 -113 -11 -158 90 -109 249 11 35 24 79 29 98 7 28 8 18 5 -45 -6 -132 63 -227 119 -162 33 38 78 135 78 167 l0 31 -53 -6 c-66 -8 -76 1 -85 87 -9 79 -33 90 -72 31 -46 -68 -427 -543 -436 -543 -2 0 1 12 6 26 6 14 10 37 10 52 0 15 7 36 15 46 8 11 15 26 15 34 0 8 20 37 43 65 93 110 201 286 191 312 -4 10 3 23 20 36 32 25 32 33 4 47 -23 11 -23 11 -2 11 62 2 52 40 -14 58 -220 60 -369 79 -436 57 -28 -10 -58 -19 -66 -20 -8 -1 -35 -9 -59 -18 -84 -31 -264 -3 -305 48 -6 8 -24 17 -41 20 -70 16 -81 20 -110 40 -30 21 -93 57 -97 55 -2 0 -9 -3 -15 -6z m117 -80 c14 -6 45 -17 70 -24 25 -7 53 -21 63 -31 10 -10 24 -18 31 -18 7 0 27 -7 44 -16 83 -41 206 -33 362 23 69 25 238 7 393 -42 l72 -22 -80 0 c-86 1 -178 -21 -256 -60 -108 -54 -317 -87 -386 -61 -64 24 -65 20 2 58 54 31 72 47 62 56 -8 8 -83 -33 -122 -67 l-36 -32 -30 31 c-16 17 -52 45 -79 62 -27 17 -52 40 -55 50 -6 18 -46 56 -99 93 -15 10 -24 23 -20 28 4 7 12 5 22 -3 10 -8 28 -19 42 -25z m995 -199 c-11 -8 -31 -17 -45 -20 -14 -3 -52 -14 -84 -25 -107 -34 -71 -10 59 40 28 10 59 19 70 20 l20 0 -20 -15z m-96 -195 c-45 -68 -100 -142 -121 -165 -22 -24 -37 -48 -33 -54 3 -5 -1 -20 -9 -32 -9 -12 -16 -35 -16 -50 0 -15 -7 -45 -14 -65 -8 -21 -20 -58 -26 -83 -7 -24 -20 -55 -31 -68 l-19 -25 0 49 c0 38 -10 70 -45 139 -24 50 -45 97 -45 105 0 9 -5 21 -10 26 -17 17 -40 122 -34 153 6 27 132 101 174 101 6 0 37 11 69 25 32 13 94 34 137 45 44 12 83 26 89 31 35 34 4 -27 -66 -132z m244 49 c-3 -18 -12 -51 -20 -73 -8 -22 -18 -73 -21 -114 l-7 -75 -60 -42 c-55 -39 -102 -65 -237 -129 l-47 -23 62 76 c34 41 73 89 87 106 13 17 73 93 133 169 120 151 119 151 110 105z m77 9 c0 -28 31 -59 51 -53 47 15 79 15 79 1 0 -20 -56 -118 -79 -139 -49 -45 -94 60 -75 177 7 41 24 51 24 14z" fill="none" stroke="rgba(255,255,255,0.9)" stroke-width="19.98" stroke-linecap="round" stroke-linejoin="round"/>
  <path d="M3340 1950 c0 -5 -11 -19 -24 -32 -36 -35 -40 -71 -12 -95 36 -31 73 -37 86 -13 6 12 16 17 26 13 17 -6 11 35 -6 47 -4 3 -12 21 -19 42 -12 37 -51 67 -51 38z m34 -62 c22 -52 -5 -84 -44 -51 -26 22 -26 50 0 58 11 3 20 11 20 16 0 19 11 8 24 -23z" fill="none" stroke="rgba(255,255,255,0.9)" stroke-width="19.98" stroke-linecap="round" stroke-linejoin="round"/>
  <path d="M4380 1834 c0 -10 45 -38 98 -63 l33 -16 -47 -45 -46 -45 4 57 c3 43 1 59 -10 63 -21 8 -23 7 -18 -17 3 -13 7 -59 10 -104 3 -44 9 -95 12 -113 4 -18 1 -49 -8 -74 -9 -23 -16 -55 -17 -70 -6 -133 -78 -267 -206 -381 l-77 -69 27 54 c15 30 31 62 36 71 27 51 4 69 -59 47 -30 -10 -34 -8 -118 65 -47 42 -90 76 -95 76 -19 0 -8 -29 19 -46 15 -10 53 -42 84 -72 60 -57 78 -61 141 -36 16 6 17 4 9 -12 -99 -191 -81 -219 60 -91 149 134 226 328 220 555 -2 73 1 92 12 92 7 0 33 21 56 46 l43 47 68 -37 c72 -38 89 -43 89 -26 0 11 -132 80 -153 80 -14 0 -80 32 -100 48 -17 15 -67 26 -67 16z" fill="none" stroke="rgba(255,255,255,0.9)" stroke-width="19.98" stroke-linecap="round" stroke-linejoin="round"/>
  <path d="M4354 1778 c3 -24 11 -94 17 -156 l11 -113 -59 -67 c-33 -37 -72 -87 -88 -112 -15 -25 -31 -47 -35 -50 -10 -7 0 -70 11 -70 5 0 9 10 9 21 0 31 53 112 123 192 l60 67 -12 138 c-11 121 -15 154 -20 185 -5 33 -22 -1 -17 -35z" fill="none" stroke="rgba(255,255,255,0.9)" stroke-width="19.98" stroke-linecap="round" stroke-linejoin="round"/>
  <path d="M2600 1758 c-31 -51 -24 -98 14 -98 24 0 56 60 56 105 0 39 -45 34 -70 -7z m32 -42 c-13 -24 -22 -32 -25 -23 -3 8 4 30 15 48 27 44 35 22 10 -25z" fill="none" stroke="rgba(255,255,255,0.9)" stroke-width="19.98" stroke-linecap="round" stroke-linejoin="round"/>
  <path d="M4720 1749 c0 -6 18 -18 40 -26 26 -11 40 -22 40 -34 0 -19 55 -49 91 -49 30 0 22 18 -11 25 -33 7 -37 16 -15 35 12 10 15 10 15 -2 0 -16 106 -45 118 -33 9 8 -19 25 -43 25 -44 1 -44 16 0 28 25 7 45 16 45 22 0 13 -12 13 -46 0 -15 -6 -43 -11 -63 -12 -24 0 -42 -8 -54 -22 -11 -13 -15 -15 -12 -5 5 12 -6 22 -39 38 -51 24 -66 26 -66 10z" fill="none" stroke="rgba(255,255,255,0.9)" stroke-width="19.98" stroke-linecap="round" stroke-linejoin="round"/>
  <path d="M3500 1634 c0 -81 90 -122 145 -65 20 22 39 31 68 33 22 2 42 8 44 14 8 25 -101 3 -132 -27 -43 -40 -60 -37 -86 16 -23 46 -39 58 -39 29z" fill="none" stroke="rgba(255,255,255,0.9)" stroke-width="19.98" stroke-linecap="round" stroke-linejoin="round"/>
  <path d="M4702 1574 c-40 -54 -37 -69 15 -78 21 -4 50 -9 66 -12 15 -3 27 -1 27 5 0 11 -15 16 -73 26 l-38 6 31 42 c33 45 37 57 18 57 -7 -1 -28 -21 -46 -46z" fill="none" stroke="rgba(255,255,255,0.9)" stroke-width="19.98" stroke-linecap="round" stroke-linejoin="round"/>
  <path d="M4653 1588 c3 -10 -6 -27 -24 -44 -32 -31 -36 -44 -15 -44 39 0 80 87 47 98 -9 3 -12 0 -8 -10z" fill="none" stroke="rgba(255,255,255,0.9)" stroke-width="19.98" stroke-linecap="round" stroke-linejoin="round"/>
  <path d="M3803 1483 c-27 -18 -30 -38 -5 -29 11 4 8 0 -7 -12 -19 -16 -25 -32 -31 -96 -4 -42 -11 -80 -15 -84 -3 -4 -3 26 0 66 9 84 -9 102 -19 20 -10 -91 -8 -131 8 -125 16 7 26 -13 21 -40 -2 -10 -6 -30 -9 -45 -6 -29 -52 -88 -68 -88 -5 0 4 18 21 39 32 40 52 101 33 101 -5 0 -12 -10 -16 -22 -3 -13 -17 -36 -31 -53 l-25 -30 6 28 c8 37 -8 34 -40 -7 -34 -45 -34 -66 2 -67 16 -1 20 -3 10 -6 -10 -2 -18 -9 -18 -14 0 -28 100 17 126 57 21 32 39 133 25 147 -5 5 -6 21 0 40 5 18 9 53 9 80 0 47 32 97 62 97 12 0 6 53 -7 56 -5 2 -20 -4 -32 -13z" fill="none" stroke="rgba(255,255,255,0.9)" stroke-width="19.98" stroke-linecap="round" stroke-linejoin="round"/>
  <path d="M4500 1472 c0 -5 12 -19 26 -33 34 -32 112 -161 106 -177 -5 -17 17 -15 24 3 12 29 -111 215 -142 215 -8 0 -14 -4 -14 -8z" fill="none" stroke="rgba(255,255,255,0.9)" stroke-width="19.98" stroke-linecap="round" stroke-linejoin="round"/>
  <path d="M3475 1403 c15 -81 17 -78 -55 -80 -35 -1 -74 -4 -85 -7 -23 -6 -68 -97 -91 -186 -8 -30 -39 -104 -69 -165 -30 -60 -55 -113 -55 -117 0 -21 22 -4 38 30 10 20 37 72 60 115 23 42 42 88 42 101 0 26 17 80 49 149 23 51 55 64 130 54 69 -9 82 12 59 98 -15 55 -34 61 -23 8z" fill="none" stroke="rgba(255,255,255,0.9)" stroke-width="19.98" stroke-linecap="round" stroke-linejoin="round"/>
  <path d="M3626 1371 c-3 -5 -14 -7 -24 -5 -24 6 -39 -7 -47 -39 -6 -21 -4 -27 9 -27 9 0 16 5 16 10 0 6 7 10 15 10 8 0 15 4 15 8 0 5 11 14 25 20 14 6 25 16 25 22 0 12 -27 13 -34 1z" fill="none" stroke="rgba(255,255,255,0.9)" stroke-width="19.98" stroke-linecap="round" stroke-linejoin="round"/>
  <path d="M3223 1269 c-18 -5 -61 -37 -95 -70 -66 -65 -125 -98 -170 -99 -47 0 -171 -22 -213 -37 -49 -18 -205 -119 -205 -133 0 -19 21 -10 97 41 73 50 161 95 169 87 2 -2 -26 -21 -61 -42 -62 -36 -80 -56 -52 -56 15 0 125 65 152 91 13 11 43 21 80 25 104 10 144 29 217 99 39 37 81 68 100 73 17 4 33 13 36 20 4 14 -10 14 -55 1z" fill="none" stroke="rgba(255,255,255,0.9)" stroke-width="19.98" stroke-linecap="round" stroke-linejoin="round"/>
  <path d="M3418 1133 c-8 -10 -34 -46 -56 -80 -23 -34 -50 -64 -59 -68 -22 -7 -74 -74 -109 -141 -30 -57 -50 -80 -39 -46 7 23 -1 28 -22 14 -16 -10 -6 -49 15 -57 18 -7 33 9 64 70 30 58 98 145 114 145 7 0 34 31 59 69 25 38 52 74 60 81 8 7 15 16 15 21 0 15 -26 10 -42 -8z" fill="none" stroke="rgba(255,255,255,0.9)" stroke-width="19.98" stroke-linecap="round" stroke-linejoin="round"/>
  <path d="M2566 1077 c-36 -77 -68 -119 -102 -137 -14 -8 -55 -50 -90 -93 -47 -56 -73 -79 -95 -84 -30 -6 -68 -47 -55 -60 3 -4 16 3 29 15 12 11 35 24 50 28 19 4 50 32 89 80 34 41 76 84 95 95 20 13 50 49 75 92 23 40 49 80 57 90 13 16 13 19 1 27 -22 14 -23 14 -54 -53z" fill="none" stroke="rgba(255,255,255,0.9)" stroke-width="19.98" stroke-linecap="round" stroke-linejoin="round"/>
  <path d="M3928 1041 c-65 -34 -104 -63 -150 -113 -35 -37 -77 -73 -94 -82 -17 -8 -50 -34 -74 -58 -24 -24 -34 -31 -22 -17 20 23 29 49 17 49 -26 0 -239 -194 -250 -227 -10 -33 4 -28 42 16 39 47 163 146 163 131 0 -24 38 -6 79 36 24 24 57 51 75 58 17 7 45 29 61 47 29 33 30 33 33 11 5 -32 -9 -45 -67 -66 -51 -18 -69 -32 -57 -43 5 -5 69 18 126 47 19 9 31 69 19 91 -12 23 29 57 126 103 45 21 75 42 75 51 0 20 -1 20 -102 -34z" fill="none" stroke="rgba(255,255,255,0.9)" stroke-width="19.98" stroke-linecap="round" stroke-linejoin="round"/>
  <path d="M4391 996 c-16 -20 -3 -46 24 -46 15 0 25 7 28 22 9 34 -29 52 -52 24z" fill="none" stroke="rgba(255,255,255,0.9)" stroke-width="19.98" stroke-linecap="round" stroke-linejoin="round"/>
  <path d="M4310 986 c0 -32 91 -158 105 -144 3 3 -9 28 -28 55 -19 27 -38 59 -41 71 -6 18 -36 33 -36 18z" fill="none" stroke="rgba(255,255,255,0.9)" stroke-width="19.98" stroke-linecap="round" stroke-linejoin="round"/>
  <path d="M3289 898 c-19 -18 -50 -59 -68 -90 -18 -32 -57 -95 -87 -140 -57 -86 -62 -98 -41 -98 12 0 73 89 154 227 24 40 55 80 68 89 24 15 35 44 17 44 -4 0 -24 -15 -43 -32z" fill="none" stroke="rgba(255,255,255,0.9)" stroke-width="19.98" stroke-linecap="round" stroke-linejoin="round"/>
  <path d="M4601 782 c-11 -16 -23 -40 -26 -55 -4 -15 -12 -27 -17 -27 -22 0 1 -25 28 -30 22 -4 34 -15 49 -47 15 -33 24 -42 37 -37 10 3 34 -4 53 -16 19 -12 39 -18 45 -15 16 10 156 -61 189 -95 31 -33 41 -37 41 -17 0 36 -162 137 -220 137 -10 0 -31 7 -46 15 -16 8 -37 15 -47 15 -11 0 -24 13 -33 35 -8 20 -25 41 -38 47 -27 11 -25 25 6 70 10 14 18 31 18 37 0 20 -18 12 -39 -17z" fill="none" stroke="rgba(255,255,255,0.9)" stroke-width="19.98" stroke-linecap="round" stroke-linejoin="round"/>
  <path d="M3740 750 c-19 -10 -36 -14 -38 -9 -8 21 -52 8 -66 -18 -8 -16 -26 -38 -41 -51 -27 -24 -29 -61 -4 -86 15 -16 23 3 11 28 -9 21 -8 27 13 40 14 9 32 31 42 49 13 24 18 28 21 15 6 -29 112 7 112 38 0 17 -6 17 -50 -6z" fill="none" stroke="rgba(255,255,255,0.9)" stroke-width="19.98" stroke-linecap="round" stroke-linejoin="round"/>
  <path d="M4478 716 c-24 -18 -23 -40 1 -33 27 7 62 -32 54 -61 -4 -16 -1 -22 11 -22 26 0 20 57 -9 86 -14 14 -25 29 -25 34 0 13 -12 12 -32 -4z" fill="none" stroke="rgba(255,255,255,0.9)" stroke-width="19.98" stroke-linecap="round" stroke-linejoin="round"/>
  <path d="M3254 408 c-58 -66 -84 -128 -94 -229 -4 -43 -11 -100 -15 -128 -5 -35 -3 -51 4 -51 6 0 11 9 11 19 0 11 4 22 8 25 5 3 9 44 10 93 2 81 13 127 42 173 6 8 14 24 19 35 5 11 18 29 30 39 21 19 28 46 13 46 -5 0 -17 -10 -28 -22z" fill="none" stroke="rgba(255,255,255,0.9)" stroke-width="19.98" stroke-linecap="round" stroke-linejoin="round"/>
  <path d="M3336 271 c-21 -23 -18 -54 5 -59 23 -4 49 25 49 54 0 30 -29 33 -54 5z" fill="none" stroke="rgba(255,255,255,0.9)" stroke-width="19.98" stroke-linecap="round" stroke-linejoin="round"/>
  </g>
</svg>