<svg xmlns="http://www.w3.org/2000/svg" viewBox="0 0 100 100">
  <g transform="translate(0,100) scale(0.030030,-0.030030)">
  <path d="M3094 3272 c-4 -21 -15 -34 -35 -42 -31 -13 -39 -30 -14 -30 36 0 76 30 70 53 -5 19 -5 20 5 5 6 -10 19 -18 30 -18 21 0 44 -51 41 -93 -2 -17 3 -29 14 -33 20 -8 29 1 19 18 -5 7 -7 21 -5 31 4 29 -49 127 -70 127 -9 0 -24 3 -33 6 -12 5 -18 -2 -22 -24z" fill="none" stroke="rgba(255,255,255,0.9)" stroke-width="19.98" stroke-linecap="round" stroke-linejoin="round"/>
  <path d="M4360 3270 c-10 -7 -11 -12 -4 -17 6 -5 13 -15 16 -24 13 -34 88 -32 88 2 0 11 7 22 15 25 30 12 14 20 -42 22 -32 1 -65 -3 -73 -8z" fill="none" stroke="rgba(255,255,255,0.9)" stroke-width="19.98" stroke-linecap="round" stroke-linejoin="round"/>
  <path d="M1630 3232 c0 -28 14 -42 41 -42 6 0 9 15 7 33 -4 46 -48 54 -48 9z" fill="none" stroke="rgba(255,255,255,0.9)" stroke-width="19.98" stroke-linecap="round" stroke-linejoin="round"/>
  <path d="M4883 3150 c-3 -11 -9 -20 -14 -20 -4 0 -11 -16 -15 -35 -3 -20 -13 -43 -21 -51 -14 -13 -13 -17 1 -33 9 -10 16 -25 16 -33 0 -17 27 -44 36 -35 5 5 3 11 -23 62 -11 22 37 145 57 145 5 0 10 5 10 10 0 19 -42 10 -47 -10z" fill="none" stroke="rgba(255,255,255,0.9)" stroke-width="19.98" stroke-linecap="round" stroke-linejoin="round"/>
  <path d="M3094 3084 c3 -9 6 -18 6 -20 0 -2 9 -4 20 -4 11 0 20 -4 20 -9 0 -13 -27 -21 -45 -15 -22 9 -18 -14 5 -26 24 -13 54 3 69 37 15 33 15 33 -19 33 -16 0 -30 5 -30 10 0 6 -7 10 -16 10 -11 0 -14 -5 -10 -16z" fill="none" stroke="rgba(255,255,255,0.9)" stroke-width="19.98" stroke-linecap="round" stroke-linejoin="round"/>
  <path d="M3480 3087 c0 -36 75 -52 100 -22 18 22 4 31 -25 15 -21 -11 -27 -11 -43 3 -22 20 -32 21 -32 4z" fill="none" stroke="rgba(255,255,255,0.9)" stroke-width="19.98" stroke-linecap="round" stroke-linejoin="round"/>
  <path d="M1230 3068 c0 -6 14 -35 30 -65 20 -35 28 -61 25 -76 -4 -13 1 -43 9 -68 9 -24 16 -57 16 -74 0 -31 50 -69 58 -45 6 18 22 11 22 -10 0 -11 8 -23 18 -26 9 -3 25 -10 34 -15 24 -12 28 -11 28 5 0 8 -13 19 -30 25 -20 6 -30 17 -30 30 0 24 -18 37 -32 23 -21 -21 -48 -1 -48 37 0 20 -5 42 -12 49 -6 6 -11 36 -10 66 1 38 -4 61 -16 78 -10 12 -23 35 -30 51 -12 27 -32 37 -32 15z" fill="none" stroke="rgba(255,255,255,0.9)" stroke-width="19.98" stroke-linecap="round" stroke-linejoin="round"/>
  <path d="M3220 3021 c0 -5 5 -13 10 -16 6 -3 10 -14 10 -24 0 -10 18 -28 43 -42 36 -21 39 -24 20 -27 -23 -3 -89 -89 -78 -101 4 -3 23 12 43 34 20 22 34 36 30 31 -12 -15 -9 -29 5 -24 6 2 23 -6 36 -19 20 -19 21 -23 7 -23 -9 0 -19 -7 -22 -15 -4 -8 -10 -15 -15 -15 -4 0 -6 7 -3 15 4 9 0 15 -10 15 -20 0 -21 -36 -2 -47 8 -4 21 -25 29 -45 18 -43 43 -53 33 -14 -5 20 -1 27 24 38 17 7 30 16 30 20 0 35 34 38 86 8 64 -36 74 -37 74 -7 0 35 -24 72 -45 72 -11 0 -37 6 -57 13 -37 13 -58 10 -58 -9 0 -5 13 -9 29 -9 17 0 32 -3 35 -8 15 -25 -94 -3 -118 24 -36 41 -37 78 -1 44 14 -13 25 -32 25 -42 0 -10 5 -18 10 -18 6 0 10 13 10 28 0 30 -36 66 -107 107 -18 10 -33 28 -35 39 -3 21 -38 36 -38 17z m180 -236 c0 -8 -64 -35 -69 -29 -10 10 39 43 54 37 8 -3 15 -7 15 -8z" fill="none" stroke="rgba(255,255,255,0.9)" stroke-width="19.98" stroke-linecap="round" stroke-linejoin="round"/>
  <path d="M4283 2978 c-37 -12 -59 -72 -32 -89 19 -11 5 -21 -31 -24 -43 -4 -46 -10 -19 -44 29 -37 49 -39 49 -6 0 14 5 25 11 25 5 0 16 15 24 34 8 19 28 47 45 64 49 50 31 65 -47 40z" fill="none" stroke="rgba(255,255,255,0.9)" stroke-width="19.98" stroke-linecap="round" stroke-linejoin="round"/>
  <path d="M3020 2891 c0 -5 12 -19 26 -32 14 -13 35 -32 45 -41 21 -20 39 -23 39 -8 0 10 -7 17 -63 68 -26 23 -47 29 -47 13z" fill="none" stroke="rgba(255,255,255,0.9)" stroke-width="19.98" stroke-linecap="round" stroke-linejoin="round"/>
  <path d="M4830 2875 c-16 -19 -4 -33 17 -19 13 8 26 0 65 -38 27 -26 58 -48 69 -48 30 0 22 12 -31 50 -27 19 -52 43 -56 53 -7 21 -47 23 -64 2z" fill="none" stroke="rgba(255,255,255,0.9)" stroke-width="19.98" stroke-linecap="round" stroke-linejoin="round"/>
  <path d="M2067 2873 c-13 -12 -7 -41 9 -47 37 -14 61 5 48 39 -6 15 -45 21 -57 8z" fill="none" stroke="rgba(255,255,255,0.9)" stroke-width="19.98" stroke-linecap="round" stroke-linejoin="round"/>
  <path d="M3630 2871 c0 -17 43 -43 50 -30 7 10 11 9 24 -2 50 -46 56 -48 56 -19 0 11 -4 20 -9 20 -5 0 -17 8 -27 18 -17 16 -94 28 -94 13z" fill="none" stroke="rgba(255,255,255,0.9)" stroke-width="19.98" stroke-linecap="round" stroke-linejoin="round"/>
  <path d="M1970 2835 c0 -8 -7 -15 -15 -15 -18 0 -18 -7 -4 -49 11 -32 17 -36 35 -23 27 18 35 51 18 77 -18 28 -34 33 -34 10z" fill="none" stroke="rgba(255,255,255,0.9)" stroke-width="19.98" stroke-linecap="round" stroke-linejoin="round"/>
  <path d="M2233 2834 c-7 -19 16 -64 33 -64 19 0 36 37 29 60 -8 24 -53 27 -62 4z" fill="none" stroke="rgba(255,255,255,0.9)" stroke-width="19.98" stroke-linecap="round" stroke-linejoin="round"/>
  <path d="M1706 2795 c-6 -29 -1 -45 34 -102 22 -37 40 -70 40 -74 0 -10 51 -41 57 -35 4 3 -1 14 -9 23 -18 20 -4 43 20 35 19 -6 14 13 -8 33 -15 13 -17 22 -10 36 6 10 10 22 10 28 0 19 -17 12 -28 -11 -6 -13 -11 -17 -11 -10 -1 15 -21 16 -21 0 0 -6 8 -20 17 -30 12 -14 14 -21 5 -30 -8 -8 -14 -4 -22 18 -6 16 -22 42 -34 59 -17 22 -22 39 -18 63 6 43 -14 41 -22 -3z" fill="none" stroke="rgba(255,255,255,0.9)" stroke-width="19.98" stroke-linecap="round" stroke-linejoin="round"/>
  <path d="M4017 2763 c-4 -3 -7 -13 -7 -21 0 -9 -7 -23 -16 -33 -13 -14 -13 -20 -2 -38 16 -26 30 -27 26 -3 -1 9 0 22 4 27 21 36 17 91 -5 68z" fill="none" stroke="rgba(255,255,255,0.9)" stroke-width="19.98" stroke-linecap="round" stroke-linejoin="round"/>
  <path d="M3792 2748 c5 -14 65 -58 79 -58 21 0 5 27 -27 48 -40 25 -58 28 -52 10z" fill="none" stroke="rgba(255,255,255,0.9)" stroke-width="19.98" stroke-linecap="round" stroke-linejoin="round"/>
  <path d="M3470 2698 c0 -18 -3 -49 -6 -69 -5 -28 -1 -41 20 -66 14 -17 26 -41 26 -52 0 -12 7 -24 15 -28 21 -7 32 4 17 19 -7 7 -12 21 -12 32 0 11 -11 32 -26 47 -19 20 -24 32 -18 53 l6 26 32 -25 c17 -14 40 -34 51 -45 24 -24 35 -25 35 -6 0 8 -27 36 -59 63 -33 26 -60 56 -60 66 -1 32 -21 17 -21 -15z" fill="none" stroke="rgba(255,255,255,0.9)" stroke-width="19.98" stroke-linecap="round" stroke-linejoin="round"/>
  <path d="M4540 2690 c0 -5 -11 -12 -25 -16 -24 -6 -35 -24 -15 -24 6 0 15 -11 20 -25 5 -14 24 -41 42 -61 18 -20 32 -42 30 -50 -2 -8 4 -14 13 -14 25 0 18 46 -10 68 -14 11 -25 24 -25 30 0 5 -7 12 -15 16 -16 6 -21 46 -5 46 5 0 17 -11 26 -25 9 -14 25 -25 36 -25 22 0 51 -59 42 -84 -3 -9 -1 -16 5 -16 38 0 15 106 -24 116 -13 3 -36 21 -50 40 -25 33 -45 44 -45 24z" fill="none" stroke="rgba(255,255,255,0.9)" stroke-width="19.98" stroke-linecap="round" stroke-linejoin="round"/>
  <path d="M1480 2666 c0 -7 12 -30 26 -52 14 -21 27 -53 27 -71 1 -29 4 -32 21 -27 30 9 31 12 12 33 -10 11 -15 25 -11 31 4 6 -7 26 -24 46 -17 19 -31 39 -31 44 0 6 -4 10 -10 10 -5 0 -10 -6 -10 -14z" fill="none" stroke="rgba(255,255,255,0.9)" stroke-width="19.98" stroke-linecap="round" stroke-linejoin="round"/>
  <path d="M4040 2655 c0 -3 5 -16 11 -27 10 -19 9 -20 -16 -14 -33 8 -30 -13 4 -30 12 -6 35 -23 50 -38 15 -14 34 -26 43 -26 9 0 20 -4 23 -10 3 -5 15 -10 25 -10 10 0 22 -9 25 -20 8 -25 25 -26 25 -1 0 23 -14 35 -63 52 -45 16 -77 48 -92 91 -9 27 -35 52 -35 33z" fill="none" stroke="rgba(255,255,255,0.9)" stroke-width="19.98" stroke-linecap="round" stroke-linejoin="round"/>
  <path d="M1942 2610 c-14 -47 -15 -60 -4 -60 5 0 15 17 22 39 15 47 38 45 78 -5 39 -49 88 -46 75 4 -5 22 -43 32 -43 12 0 -5 5 -10 10 -10 6 0 10 -6 10 -12 0 -7 -13 1 -28 19 -25 30 -67 53 -95 53 -7 0 -18 -18 -25 -40z" fill="none" stroke="rgba(255,255,255,0.9)" stroke-width="19.98" stroke-linecap="round" stroke-linejoin="round"/>
  <path d="M1990 2588 c0 -35 50 -78 91 -78 6 0 28 -13 49 -30 43 -34 50 -36 50 -15 0 18 -60 58 -114 76 -27 10 -43 23 -50 42 -13 33 -26 35 -26 5z" fill="none" stroke="rgba(255,255,255,0.9)" stroke-width="19.98" stroke-linecap="round" stroke-linejoin="round"/>
  <path d="M1380 2580 c0 -5 16 -10 35 -10 29 0 38 -6 59 -38 31 -49 54 -68 67 -55 7 7 0 21 -21 44 -17 19 -37 42 -45 52 -16 18 -95 25 -95 7z" fill="none" stroke="rgba(255,255,255,0.9)" stroke-width="19.98" stroke-linecap="round" stroke-linejoin="round"/>
  <path d="M1620 2521 c0 -20 43 -71 60 -71 18 0 2 36 -32 72 -23 23 -28 23 -28 -1z" fill="none" stroke="rgba(255,255,255,0.9)" stroke-width="19.98" stroke-linecap="round" stroke-linejoin="round"/>
  <path d="M4698 2515 c-10 -13 -18 -28 -18 -33 0 -6 -13 -21 -30 -35 -28 -24 -29 -26 -14 -56 14 -28 49 -50 61 -38 8 9 -7 27 -23 27 -23 0 -16 37 13 59 14 12 23 24 20 27 -4 4 0 16 8 28 30 42 13 63 -17 21z" fill="none" stroke="rgba(255,255,255,0.9)" stroke-width="19.98" stroke-linecap="round" stroke-linejoin="round"/>
  <path d="M4417 2462 c-10 -10 -17 -21 -17 -25 0 -7 59 -67 66 -67 20 0 44 25 44 44 0 26 -33 61 -49 51 -6 -3 -11 -1 -11 4 0 17 -15 13 -33 -7z" fill="none" stroke="rgba(255,255,255,0.9)" stroke-width="19.98" stroke-linecap="round" stroke-linejoin="round"/>
  <path d="M790 2429 c0 -6 9 -13 20 -16 19 -5 25 -24 21 -70 -1 -14 6 -24 20 -28 26 -9 39 8 39 53 0 34 8 37 98 32 21 -1 32 3 32 12 0 17 -115 18 -144 1 -15 -8 -23 -6 -37 8 -21 21 -49 25 -49 8z" fill="none" stroke="rgba(255,255,255,0.9)" stroke-width="19.98" stroke-linecap="round" stroke-linejoin="round"/>
  <path d="M4880 2419 c0 -43 47 -98 71 -83 14 8 10 52 -7 79 -21 32 -64 35 -64 4z" fill="none" stroke="rgba(255,255,255,0.9)" stroke-width="19.98" stroke-linecap="round" stroke-linejoin="round"/>
  <path d="M1840 2331 c0 -11 4 -21 8 -23 13 -5 76 -99 91 -135 14 -34 31 -44 31 -19 0 21 -21 65 -65 133 -40 63 -65 79 -65 44z" fill="none" stroke="rgba(255,255,255,0.9)" stroke-width="19.98" stroke-linecap="round" stroke-linejoin="round"/>
  <path d="M1423 2271 c-38 -32 -28 -55 11 -26 11 8 23 15 28 15 15 0 48 -80 48 -117 0 -21 6 -49 13 -63 8 -15 17 -47 20 -72 3 -25 13 -61 21 -79 8 -19 22 -61 32 -94 9 -33 24 -71 32 -85 9 -14 15 -39 13 -57 -3 -35 25 -59 58 -48 43 13 34 61 -18 97 -22 15 -41 39 -52 68 -33 87 -69 208 -69 231 -1 13 -7 35 -15 49 -8 14 -15 45 -15 70 -1 92 -59 152 -107 111z" fill="none" stroke="rgba(255,255,255,0.9)" stroke-width="19.98" stroke-linecap="round" stroke-linejoin="round"/>
  <path d="M1635 2263 c18 -73 125 -96 125 -27 0 21 -18 17 -30 -6 -12 -23 -64 5 -76 42 -9 30 -27 21 -19 -9z" fill="none" stroke="rgba(255,255,255,0.9)" stroke-width="19.98" stroke-linecap="round" stroke-linejoin="round"/>
  <path d="M1223 2255 c-8 -23 2 -28 26 -14 24 16 39 5 21 -16 -8 -10 -21 -13 -37 -8 -19 4 -24 2 -21 -7 2 -7 -36 -53 -84 -101 -81 -81 -102 -109 -79 -109 4 0 49 41 99 90 50 50 97 90 105 90 19 0 43 29 51 63 8 32 -68 43 -81 12z" fill="none" stroke="rgba(255,255,255,0.9)" stroke-width="19.98" stroke-linecap="round" stroke-linejoin="round"/>
  <path d="M4610 2208 c3 -39 1 -48 -15 -48 -8 0 -15 -4 -15 -10 0 -5 4 -10 8 -10 36 0 45 -27 23 -64 -15 -23 -21 -46 -18 -63 3 -17 -2 -32 -14 -44 -24 -24 -24 -29 1 -29 13 0 24 10 30 25 5 14 14 25 20 25 5 0 10 5 10 10 0 6 -7 10 -15 10 -19 0 -19 3 5 50 22 43 26 75 10 85 -8 5 -7 11 1 21 9 12 9 20 -1 39 -17 31 -32 32 -30 3z" fill="none" stroke="rgba(255,255,255,0.9)" stroke-width="19.98" stroke-linecap="round" stroke-linejoin="round"/>
  <path d="M3753 2137 c-15 -12 -40 -29 -55 -36 -76 -39 -100 -117 -33 -109 24 3 35 0 35 -9 0 -7 7 -13 15 -13 8 0 15 7 15 15 0 8 5 15 10 15 14 0 12 37 -2 43 -7 3 -1 6 14 6 15 1 30 6 33 11 3 6 14 10 23 10 9 0 24 4 32 10 28 17 2 20 -59 6 -33 -8 -61 -10 -61 -5 0 5 7 9 15 9 7 0 18 6 22 14 4 7 18 18 31 25 12 6 22 16 22 21 0 17 -27 11 -57 -13z m-50 -97 c-3 -11 -9 -20 -13 -20 -5 0 -15 -3 -24 -6 -25 -10 -19 21 7 39 27 18 37 14 30 -13z" fill="none" stroke="rgba(255,255,255,0.9)" stroke-width="19.98" stroke-linecap="round" stroke-linejoin="round"/>
  <path d="M610 2100 c0 -5 14 -25 30 -43 36 -41 38 -57 8 -57 -48 0 -64 -41 -23 -56 23 -9 135 18 135 33 0 9 -9 11 -30 7 -26 -6 -30 -4 -30 15 0 26 -59 110 -77 111 -7 0 -13 -4 -13 -10z" fill="none" stroke="rgba(255,255,255,0.9)" stroke-width="19.98" stroke-linecap="round" stroke-linejoin="round"/>
  <path d="M1048 2084 c-20 -20 -38 -27 -74 -29 -65 -4 -64 -3 -64 -15 0 -5 28 -9 63 -9 64 1 117 31 117 66 0 20 -13 16 -42 -13z" fill="none" stroke="rgba(255,255,255,0.9)" stroke-width="19.98" stroke-linecap="round" stroke-linejoin="round"/>
  <path d="M4760 2016 c0 -9 7 -16 15 -16 9 0 24 -13 33 -30 15 -27 42 -41 42 -22 0 13 -40 72 -49 72 -5 0 -16 3 -25 6 -11 4 -16 1 -16 -10z" fill="none" stroke="rgba(255,255,255,0.9)" stroke-width="19.98" stroke-linecap="round" stroke-linejoin="round"/>
  <path d="M2480 1854 c-38 -32 -69 -66 -74 -83 -4 -16 -19 -34 -32 -40 -33 -15 -31 -33 4 -25 38 9 52 23 52 49 0 14 14 33 38 51 l37 28 -27 -33 c-27 -31 -35 -51 -22 -51 8 0 154 143 154 151 0 27 -72 1 -130 -47z" fill="none" stroke="rgba(255,255,255,0.9)" stroke-width="19.98" stroke-linecap="round" stroke-linejoin="round"/>
  <path d="M820 1871 c0 -11 5 -23 10 -26 16 -10 11 -21 -15 -33 -54 -25 -16 -117 39 -96 23 9 20 27 -4 21 -26 -7 -47 27 -29 49 17 21 35 17 61 -15 28 -35 61 -53 82 -45 23 9 20 24 -5 24 -22 0 -99 71 -99 93 -1 32 -40 60 -40 28z" fill="none" stroke="rgba(255,255,255,0.9)" stroke-width="19.98" stroke-linecap="round" stroke-linejoin="round"/>
  <path d="M3731 1857 c-18 -23 -25 -75 -11 -92 16 -19 54 -19 70 0 7 8 17 12 22 9 5 -3 19 -3 32 0 41 10 58 86 19 86 -10 0 -13 -6 -9 -16 7 -17 -10 -54 -24 -54 -5 0 -7 6 -5 13 7 17 -5 32 -42 51 -39 19 -38 19 -52 3z m67 -45 c4 -14 -35 -35 -53 -28 -11 4 -11 10 -2 29 12 25 46 25 55 -1z" fill="none" stroke="rgba(255,255,255,0.9)" stroke-width="19.98" stroke-linecap="round" stroke-linejoin="round"/>
  <path d="M678 1770 c-9 -6 -43 -16 -75 -23 -51 -12 -61 -19 -87 -56 -33 -50 -70 -71 -89 -52 -12 13 1 28 49 57 34 21 6 27 -33 8 -33 -17 -38 -23 -38 -53 0 -65 85 -59 119 8 22 41 46 56 119 75 42 12 67 23 67 32 0 16 -8 17 -32 4z" fill="none" stroke="rgba(255,255,255,0.9)" stroke-width="19.98" stroke-linecap="round" stroke-linejoin="round"/>
  <path d="M4950 1708 c1 -14 34 -58 44 -58 14 0 5 38 -12 53 -22 20 -32 21 -32 5z" fill="none" stroke="rgba(255,255,255,0.9)" stroke-width="19.98" stroke-linecap="round" stroke-linejoin="round"/>
  <path d="M1640 1618 c0 -13 -9 -34 -20 -48 -35 -45 -16 -58 22 -15 13 15 32 25 48 25 32 0 66 23 56 38 -10 17 -36 15 -36 -3 0 -22 -37 -18 -43 5 -7 27 -27 25 -27 -2z" fill="none" stroke="rgba(255,255,255,0.9)" stroke-width="19.98" stroke-linecap="round" stroke-linejoin="round"/>
  <path d="M4984 1622 c-6 -4 -13 -15 -17 -25 -4 -9 -17 -21 -31 -27 -13 -5 -27 -18 -31 -29 -3 -11 -22 -36 -41 -56 -33 -34 -41 -64 -28 -99 11 -29 26 -17 19 14 -6 27 -1 37 34 75 23 25 41 49 41 55 0 5 13 16 29 24 16 9 32 27 35 42 8 30 5 36 -10 26z" fill="none" stroke="rgba(255,255,255,0.9)" stroke-width="19.98" stroke-linecap="round" stroke-linejoin="round"/>
  <path d="M494 1609 c-3 -6 -1 -16 5 -22 6 -6 11 -18 11 -27 0 -16 29 -50 43 -50 4 0 7 7 7 16 0 14 8 16 50 11 29 -4 50 -2 50 3 0 13 -46 24 -92 23 -32 0 -37 3 -42 28 -6 30 -20 37 -32 18z" fill="none" stroke="rgba(255,255,255,0.9)" stroke-width="19.98" stroke-linecap="round" stroke-linejoin="round"/>
  <path d="M4747 1475 c-15 -19 -35 -57 -44 -83 -9 -26 -20 -55 -24 -64 -12 -24 -11 -78 1 -78 6 0 10 9 10 20 0 12 7 32 16 46 9 13 14 27 11 30 -9 9 24 87 44 104 19 17 35 60 22 60 -4 0 -21 -16 -36 -35z" fill="none" stroke="rgba(255,255,255,0.9)" stroke-width="19.98" stroke-linecap="round" stroke-linejoin="round"/>
  <path d="M520 1460 c0 -5 -6 -10 -14 -10 -17 0 -41 -28 -32 -37 3 -3 17 0 31 7 24 13 53 -4 55 -32 1 -25 -160 -41 -175 -18 -9 15 -43 12 -71 -6 -14 -9 -41 -17 -61 -18 -20 -1 -38 -7 -41 -13 -6 -20 63 -16 108 6 22 11 42 15 46 10 7 -12 156 -12 188 1 33 12 35 50 5 91 -20 29 -39 38 -39 19z" fill="none" stroke="rgba(255,255,255,0.9)" stroke-width="19.98" stroke-linecap="round" stroke-linejoin="round"/>
  <path d="M2982 1400 c-13 -22 17 -100 38 -100 14 0 12 16 -5 50 -14 26 -13 30 3 39 15 9 15 12 2 21 -21 14 -23 13 -38 -10z" fill="none" stroke="rgba(255,255,255,0.9)" stroke-width="19.98" stroke-linecap="round" stroke-linejoin="round"/>
  <path d="M1290 1363 c0 -5 15 -16 33 -24 42 -18 47 -50 12 -77 -41 -32 -84 0 -50 38 19 21 19 30 0 30 -25 0 -41 -46 -28 -81 10 -26 9 -32 -15 -54 -14 -13 -24 -27 -21 -30 9 -8 86 33 92 50 4 8 13 15 20 15 41 0 70 85 39 113 -20 18 -82 33 -82 20z" fill="none" stroke="rgba(255,255,255,0.9)" stroke-width="19.98" stroke-linecap="round" stroke-linejoin="round"/>
  <path d="M3592 1348 c-17 -17 -15 -38 6 -61 17 -19 16 -20 -11 -13 -22 5 -28 3 -25 -6 5 -16 68 -24 68 -9 0 6 7 8 15 5 27 -11 16 14 -17 37 -17 13 -26 25 -20 27 13 4 17 32 4 32 -4 0 -13 -5 -20 -12z" fill="none" stroke="rgba(255,255,255,0.9)" stroke-width="19.98" stroke-linecap="round" stroke-linejoin="round"/>
  <path d="M640 1340 c0 -11 78 -70 93 -70 6 0 20 -8 31 -18 25 -22 92 -43 112 -35 8 3 14 0 14 -6 0 -6 15 -11 34 -11 19 0 38 -4 41 -10 7 -12 45 -13 45 -2 0 12 -47 32 -75 32 -16 0 -23 5 -19 13 3 10 -9 13 -49 13 -44 -1 -59 4 -86 27 -18 15 -37 27 -43 27 -6 0 -26 11 -44 25 -34 26 -54 32 -54 15z" fill="none" stroke="rgba(255,255,255,0.9)" stroke-width="19.98" stroke-linecap="round" stroke-linejoin="round"/>
  <path d="M2253 1333 c-37 -5 -43 -18 -14 -28 12 -4 18 -12 14 -21 -6 -16 17 -19 33 -5 19 18 95 24 88 7 -8 -21 13 -21 33 0 20 20 3 34 -39 34 -16 0 -28 5 -28 10 0 10 -24 11 -87 3z" fill="none" stroke="rgba(255,255,255,0.9)" stroke-width="19.98" stroke-linecap="round" stroke-linejoin="round"/>
  <path d="M4707 1283 c-4 -3 -7 -21 -7 -39 0 -18 -6 -35 -12 -37 -10 -4 -10 -8 1 -15 11 -8 11 -16 2 -42 -14 -41 -14 -40 3 -40 8 0 17 11 20 25 4 14 13 25 21 25 19 0 19 14 0 30 -17 14 -21 75 -5 65 6 -4 8 -10 5 -15 -9 -14 14 -60 32 -67 46 -16 68 -53 28 -46 -25 5 -85 -47 -85 -74 0 -22 15 -15 50 25 36 41 51 32 30 -19 -7 -16 -10 -32 -7 -35 11 -11 25 6 32 36 4 17 16 36 27 44 25 18 5 54 -46 84 -26 16 -34 28 -40 61 -6 39 -29 55 -49 34z" fill="none" stroke="rgba(255,255,255,0.9)" stroke-width="19.98" stroke-linecap="round" stroke-linejoin="round"/>
  <path d="M2538 1179 c-34 -19 -6 -59 42 -59 38 0 48 29 18 52 -26 20 -36 21 -60 7z" fill="none" stroke="rgba(255,255,255,0.9)" stroke-width="19.98" stroke-linecap="round" stroke-linejoin="round"/>
  <path d="M2763 1163 c-26 -10 -15 -53 13 -53 22 0 25 4 22 27 -3 27 -14 35 -35 26z" fill="none" stroke="rgba(255,255,255,0.9)" stroke-width="19.98" stroke-linecap="round" stroke-linejoin="round"/>
  <path d="M3243 1047 c-53 -54 -74 -127 -36 -127 10 0 14 9 11 29 -2 25 6 38 45 75 41 40 61 77 40 75 -5 0 -31 -24 -60 -52z" fill="none" stroke="rgba(255,255,255,0.9)" stroke-width="19.98" stroke-linecap="round" stroke-linejoin="round"/>
  <path d="M2220 1015 c0 -18 -4 -23 -15 -19 -9 4 -15 0 -15 -10 0 -21 46 -21 54 0 3 9 4 20 0 25 -3 5 6 9 20 9 14 0 26 5 26 10 0 6 -16 10 -35 10 -31 0 -35 -3 -35 -25z" fill="none" stroke="rgba(255,255,255,0.9)" stroke-width="19.98" stroke-linecap="round" stroke-linejoin="round"/>
  <path d="M645 870 c-9 -16 -20 -30 -25 -30 -17 0 -11 -46 8 -63 27 -25 72 -10 72 24 0 14 -28 11 -33 -3 -3 -10 -7 -10 -20 0 -14 12 -14 15 4 33 10 10 19 23 19 28 0 5 9 13 20 16 28 9 25 25 -5 25 -17 0 -29 -9 -40 -30z" fill="none" stroke="rgba(255,255,255,0.9)" stroke-width="19.98" stroke-linecap="round" stroke-linejoin="round"/>
  <path d="M1214 862 c-17 -15 -34 -35 -37 -45 -4 -9 -22 -27 -42 -38 -39 -23 -47 -44 -12 -34 29 9 87 53 87 66 0 6 14 22 30 36 17 13 30 29 30 34 0 17 -25 8 -56 -19z" fill="none" stroke="rgba(255,255,255,0.9)" stroke-width="19.98" stroke-linecap="round" stroke-linejoin="round"/>
  <path d="M4580 866 c0 -29 24 -56 50 -56 20 0 72 -39 53 -40 -7 0 -13 -7 -13 -16 0 -11 6 -14 20 -9 25 8 58 -14 39 -26 -9 -5 -8 -11 4 -23 17 -18 47 -21 47 -6 0 6 -4 10 -9 10 -5 0 -11 12 -13 28 -2 16 -12 31 -25 37 -12 5 -26 19 -31 30 -6 12 -27 26 -50 33 -22 7 -42 19 -45 27 -4 9 -1 12 9 8 8 -3 14 1 14 11 0 10 -9 16 -25 16 -20 0 -25 -5 -25 -24z" fill="none" stroke="rgba(255,255,255,0.9)" stroke-width="19.98" stroke-linecap="round" stroke-linejoin="round"/>
  <path d="M1068 827 c-30 -11 -37 -27 -14 -27 36 0 76 14 76 26 0 16 -23 16 -62 1z" fill="none" stroke="rgba(255,255,255,0.9)" stroke-width="19.98" stroke-linecap="round" stroke-linejoin="round"/>
  <path d="M2492 799 c-16 -26 5 -56 32 -46 29 12 15 67 -17 67 -1 0 -8 -10 -15 -21z" fill="none" stroke="rgba(255,255,255,0.9)" stroke-width="19.98" stroke-linecap="round" stroke-linejoin="round"/>
  <path d="M1656 751 c-3 -5 -15 -7 -26 -4 -17 5 -19 2 -14 -23 5 -28 -26 -76 -56 -86 -9 -3 -8 -11 1 -31 15 -34 42 -37 34 -4 -4 16 2 30 25 52 16 16 30 36 30 46 0 9 7 19 15 23 8 3 15 12 15 21 0 16 -15 20 -24 6z" fill="none" stroke="rgba(255,255,255,0.9)" stroke-width="19.98" stroke-linecap="round" stroke-linejoin="round"/>
  <path d="M3570 739 c0 -24 26 -53 40 -44 23 14 11 65 -15 65 -19 0 -25 -5 -25 -21z" fill="none" stroke="rgba(255,255,255,0.9)" stroke-width="19.98" stroke-linecap="round" stroke-linejoin="round"/>
  <path d="M1700 720 c0 -11 4 -20 9 -20 12 0 41 -29 41 -41 0 -5 -9 -4 -20 3 -10 7 -23 9 -27 4 -12 -12 37 -47 57 -41 9 3 23 -1 30 -10 18 -21 35 -19 65 10 41 42 33 59 -13 27 -23 -16 -30 -17 -52 -5 -17 8 -19 13 -9 13 9 0 19 8 23 18 3 9 9 23 12 30 3 7 -1 12 -9 12 -9 0 -19 -9 -22 -21 -7 -20 -7 -20 -25 -2 -49 48 -60 52 -60 23z" fill="none" stroke="rgba(255,255,255,0.9)" stroke-width="19.98" stroke-linecap="round" stroke-linejoin="round"/>
  <path d="M1948 573 c-32 -5 -35 -15 -12 -37 17 -17 30 -19 87 -10 54 9 47 28 -9 20 -28 -3 -43 -2 -39 4 3 6 15 10 26 10 10 0 19 5 19 10 0 10 -20 11 -72 3z" fill="none" stroke="rgba(255,255,255,0.9)" stroke-width="19.98" stroke-linecap="round" stroke-linejoin="round"/>
  <path d="M1992 294 c-22 -33 -24 -64 -5 -64 4 0 16 19 26 41 20 42 52 47 114 17 23 -11 53 -5 53 11 0 5 -8 10 -17 10 -10 0 -36 4 -58 10 -69 18 -88 14 -113 -25z" fill="none" stroke="rgba(255,255,255,0.9)" stroke-width="19.98" stroke-linecap="round" stroke-linejoin="round"/>
  <path d="M1272 258 c3 -20 9 -23 56 -24 67 -1 92 -26 70 -71 -11 -22 -20 -28 -46 -28 -25 0 -39 -8 -58 -33 -33 -42 -23 -54 14 -19 16 15 31 27 35 27 11 0 8 -38 -3 -45 -11 -7 -14 -45 -4 -45 13 0 33 35 34 57 0 12 9 27 20 33 20 11 28 26 43 75 10 32 -48 93 -73 77 -13 -8 -21 -8 -25 -1 -4 5 -15 7 -26 4 -11 -4 -19 -2 -19 4 0 6 -5 11 -11 11 -6 0 -9 -10 -7 -22z" fill="none" stroke="rgba(255,255,255,0.9)" stroke-width="19.98" stroke-linecap="round" stroke-linejoin="round"/>
  <path d="M3195 124 c-11 -8 -30 -12 -42 -9 -17 4 -25 -1 -35 -22 -7 -16 -23 -29 -36 -31 -46 -7 -24 -30 28 -29 28 0 50 4 50 9 0 4 -4 8 -10 8 -5 0 -10 9 -10 20 0 15 7 20 28 20 30 1 62 21 62 39 0 15 -11 14 -35 -5z" fill="none" stroke="rgba(255,255,255,0.9)" stroke-width="19.98" stroke-linecap="round" stroke-linejoin="round"/>
  <path d="M3250 121 c-20 -38 -13 -54 22 -49 32 5 32 5 10 -10 -21 -14 -31 -42 -14 -42 5 0 21 13 37 30 21 22 34 28 52 24 31 -8 29 6 -5 39 -34 33 -86 37 -102 8z" fill="none" stroke="rgba(255,255,255,0.9)" stroke-width="19.98" stroke-linecap="round" stroke-linejoin="round"/>
  <path d="M762 38 c-15 -40 -8 -48 19 -22 12 13 17 27 13 37 -9 25 -18 21 -32 -15z" fill="none" stroke="rgba(255,255,255,0.9)" stroke-width="19.98" stroke-linecap="round" stroke-linejoin="round"/>
  </g>
</svg>